<svg width="100%" viewBox="0 0 400 497" fill="none" xmlns="http://www.w3.org/2000/svg">
                <rect x="16.5" y="16.5" width="367" height="130" fill="#E0DBDB" stroke="black" />
                <rect width="3" height="10" transform="matrix(1 0 0 -1 51 77)" fill="#858384" />
                <path fill-rule="evenodd" clip-rule="evenodd" d="M54.0004 66.9905L51.4023 68.4905L48.9024 64.1605L46.3047 65.6602L40.3047 55.2679L42.9024 53.7682L40.4023 49.438L43.0004 47.938L54.0004 66.9905Z" fill="#858384" />
                <path d="M55.5254 78.0415C55.5254 79.6983 54.1822 81.0415 52.5254 81.0415C50.8685 81.0415 49.5254 79.6983 49.5254 78.0415C49.5254 76.3846 50.8685 75.0415 52.5254 75.0415C54.1822 75.0415 55.5254 76.3846 55.5254 78.0415Z" fill="#858384" />
                <path d="M45.5254 78C45.5254 79.8565 46.2629 81.637 47.5756 82.9497C48.8884 84.2625 50.6689 85 52.5254 85C54.3819 85 56.1624 84.2625 57.4751 82.9497C58.7879 81.637 59.5254 79.8565 59.5254 78L57.1972 78C57.1972 79.239 56.705 80.4273 55.8289 81.3035C54.9527 82.1796 53.7644 82.6718 52.5254 82.6718C51.2863 82.6718 50.098 82.1796 49.2219 81.3035C48.3458 80.4273 47.8536 79.239 47.8536 78L45.5254 78Z" fill="#858384" />
                <rect width="3" height="8" transform="matrix(1 0 0 -1 51.0254 25)" fill="#858384" />
                <rect width="3" height="14" transform="matrix(1 0 0 -1 51.0254 47)" fill="#858384" />
                <path d="M55.5254 30.9585C55.5254 32.6154 54.1822 33.9585 52.5254 33.9585C50.8685 33.9585 49.5254 32.6154 49.5254 30.9585C49.5254 29.3017 50.8685 27.9585 52.5254 27.9585C54.1822 27.9585 55.5254 29.3017 55.5254 30.9585Z" fill="#858384" />
                <path d="M59.5254 31C59.5254 29.1435 58.7879 27.363 57.4751 26.0503C56.1624 24.7375 54.3819 24 52.5254 24C50.6689 24 48.8884 24.7375 47.5756 26.0503C46.2629 27.363 45.5254 29.1435 45.5254 31L47.8536 31C47.8536 29.761 48.3458 28.5727 49.2219 27.6965C50.098 26.8204 51.2863 26.3282 52.5254 26.3282C53.7644 26.3282 54.9527 26.8204 55.8289 27.6965C56.705 28.5727 57.1972 29.761 57.1972 31H59.5254Z" fill="#858384" />
                <rect x="49.0254" y="46" width="7" height="2" fill="#858384" />
                <path d="M54.0254 49C54.0254 49.8284 53.3538 50.5 52.5254 50.5C51.697 50.5 51.0254 49.8284 51.0254 49C51.0254 48.1716 51.697 47.5 52.5254 47.5C53.3538 47.5 54.0254 48.1716 54.0254 49Z" stroke="#858384" />
                <path d="M37.4004 58.4473C37.4004 59.0645 37.2168 59.5859 36.8496 60.0117C36.4863 60.4336 36.0371 60.6445 35.502 60.6445C35.2207 60.6445 34.9551 60.5938 34.7051 60.4922C34.4551 60.3867 34.1641 60.1895 33.832 59.9004C33.5039 59.6113 33.2676 59.4316 33.123 59.3613C32.9785 59.291 32.8242 59.2559 32.6602 59.2559C32.3555 59.2559 32.1211 59.3613 31.957 59.5723C31.793 59.7793 31.7109 60.0664 31.7109 60.4336L30.7676 60.4453C30.7676 59.8203 30.9473 59.3066 31.3066 58.9043C31.666 58.502 32.1172 58.3008 32.6602 58.3008C32.957 58.3008 33.2422 58.3633 33.5156 58.4883C33.7891 58.6133 34.0977 58.834 34.4414 59.1504C34.7852 59.4629 35.082 59.6387 35.332 59.6777L35.502 59.6895C35.7988 59.6895 36.0391 59.5762 36.2227 59.3496C36.4102 59.123 36.5039 58.8242 36.5039 58.4531L37.4004 58.4473Z" fill="black" />
                <line x1="52.5" y1="84" x2="52.5" y2="130" stroke="#858384" stroke-width="3" stroke-dasharray="9 9" />
                <line x1="349" y1="128.5" x2="51" y2="128.5" stroke="#858384" stroke-width="3" stroke-dasharray="6 6" />
                <rect width="3" height="10" transform="matrix(1 0 0 -1 346.025 77)" fill="#858384" />
                <path fill-rule="evenodd" clip-rule="evenodd" d="M349.026 67.0526L346.428 68.5526L343.928 64.2225L341.33 65.7222L335.33 55.3299L337.928 53.8302L335.428 49.5L338.026 48L349.026 67.0526Z" fill="#858384" />
                <path d="M350.525 78.0415C350.525 79.6983 349.182 81.0415 347.525 81.0415C345.869 81.0415 344.525 79.6983 344.525 78.0415C344.525 76.3846 345.869 75.0415 347.525 75.0415C349.182 75.0415 350.525 76.3846 350.525 78.0415Z" fill="#858384" />
                <path d="M340.525 78C340.525 79.8565 341.263 81.637 342.576 82.9497C343.888 84.2625 345.669 85 347.525 85C349.382 85 351.162 84.2625 352.475 82.9497C353.788 81.637 354.525 79.8565 354.525 78L352.197 78C352.197 79.239 351.705 80.4273 350.829 81.3035C349.953 82.1796 348.764 82.6718 347.525 82.6718C346.286 82.6718 345.098 82.1796 344.222 81.3035C343.346 80.4273 342.854 79.239 342.854 78L340.525 78Z" fill="#858384" />
                <rect width="3" height="8" transform="matrix(1 0 0 -1 346.025 25)" fill="#858384" />
                <rect width="3" height="14" transform="matrix(1 0 0 -1 346.025 47)" fill="#858384" />
                <path d="M350.525 30.9585C350.525 32.6154 349.182 33.9585 347.525 33.9585C345.869 33.9585 344.525 32.6154 344.525 30.9585C344.525 29.3017 345.869 27.9585 347.525 27.9585C349.182 27.9585 350.525 29.3017 350.525 30.9585Z" fill="#858384" />
                <path d="M354.525 31C354.525 29.1435 353.788 27.363 352.475 26.0503C351.162 24.7375 349.382 24 347.525 24C345.669 24 343.888 24.7375 342.576 26.0503C341.263 27.363 340.525 29.1435 340.525 31L342.854 31C342.854 29.761 343.346 28.5727 344.222 27.6965C345.098 26.8204 346.286 26.3282 347.525 26.3282C348.764 26.3282 349.953 26.8204 350.829 27.6965C351.705 28.5727 352.197 29.761 352.197 31H354.525Z" fill="#858384" />
                <rect x="344.025" y="46" width="7" height="2" fill="#858384" />
                <path d="M349.025 49C349.025 49.8284 348.354 50.5 347.525 50.5C346.697 50.5 346.025 49.8284 346.025 49C346.025 48.1716 346.697 47.5 347.525 47.5C348.354 47.5 349.025 48.1716 349.025 49Z" stroke="#858384" />
                <rect x="334" y="58" width="5" height="1" fill="#858384" />
                <path d="M333.6 58.5C333.6 60.9853 331.585 63 329.1 63C326.614 63 324.6 60.9853 324.6 58.5C324.6 56.0147 326.614 54 329.1 54C331.585 54 333.6 56.0147 333.6 58.5Z" fill="#C4C4C4" stroke="#858384" />
                <path d="M332.4 57.4473C332.4 58.0645 332.217 58.5859 331.85 59.0117C331.486 59.4336 331.037 59.6445 330.502 59.6445C330.221 59.6445 329.955 59.5938 329.705 59.4922C329.455 59.3867 329.164 59.1895 328.832 58.9004C328.504 58.6113 328.268 58.4316 328.123 58.3613C327.979 58.291 327.824 58.2559 327.66 58.2559C327.355 58.2559 327.121 58.3613 326.957 58.5723C326.793 58.7793 326.711 59.0664 326.711 59.4336L325.768 59.4453C325.768 58.8203 325.947 58.3066 326.307 57.9043C326.666 57.502 327.117 57.3008 327.66 57.3008C327.957 57.3008 328.242 57.3633 328.516 57.4883C328.789 57.6133 329.098 57.834 329.441 58.1504C329.785 58.4629 330.082 58.6387 330.332 58.6777L330.502 58.6895C330.799 58.6895 331.039 58.5762 331.223 58.3496C331.41 58.123 331.504 57.8242 331.504 57.4531L332.4 57.4473Z" fill="black" />
                <line x1="347.5" y1="84" x2="347.5" y2="130" stroke="#858384" stroke-width="3" stroke-dasharray="9 9" />
                <line x1="201.5" y1="130" x2="201.5" y2="183" stroke="#858384" stroke-width="3" stroke-dasharray="9 9" />
                <line x1="52.5" y1="-6.55672e-08" x2="52.5" y2="16" stroke="#858384" stroke-width="3" stroke-dasharray="9 9" />
                <line x1="347.5" y1="-6.55671e-08" x2="347.5" y2="10" stroke="#858384" stroke-width="3" stroke-dasharray="9 9" />
                <path d="M50.5 418.5H348.5V463.785L199.5 495.466L50.5 463.785V418.5Z" fill="#E0DBDB" stroke="black" stroke-width="3" />
                <rect x="0.5" y="0.5" width="399" height="399" stroke="black" stroke-dasharray="7 7" />
                <rect x="116.287" y="176.5" width="169" height="120" fill="#EAEAEA" stroke="black" />
                <rect x="126.287" y="205.5" width="149" height="81" fill="#D6D6D6" stroke="black" />
                <rect x="130.287" y="210.5" width="95" height="72" fill="white" stroke="black" />
                <rect x="134.787" y="215" width="39" height="20" rx="2" fill="white" />
                <rect id="SHRIK1_IBP1_chargeAnim" x="136.787" y="217" width="35" height="16" fill="#7ABD84" />
                <rect x="172.787" y="221" width="3" height="8" fill="#070707" />
                <path fill-rule="evenodd" clip-rule="evenodd" d="M136.787 215C135.683 215 134.787 215.896 134.787 217V233C134.787 234.105 135.683 235 136.787 235H171.787C172.892 235 173.787 234.105 173.787 233V217C173.787 215.896 172.892 215 171.787 215H136.787ZM136.787 217H141.787V233H136.787V217ZM142.787 217H147.787V233H142.787V217ZM165.787 217H160.787V233H165.787V217ZM166.787 217H171.787V233H166.787V217ZM153.787 217H148.787V233H153.787V217ZM154.787 217H159.787V233H154.787V217Z" fill="white" />
                <rect x="135.287" y="215.5" width="38" height="19" rx="1.5" stroke="#070707" />
                <circle cx="143.287" cy="251.5" r="8" stroke="black" />
                <line x1="143.287" y1="245" x2="143.287" y2="252" stroke="black" />
                <path d="M147.287 255.5L143.287 251.5" stroke="black" />
                <rect x="198.75" y="297.75" width="1.5" height="118.5" stroke="#858384" stroke-width="1.5" stroke-dasharray="7 7" />
                <rect x="198.75" y="297.75" width="1.5" height="118.5" fill="#C4C4C4" stroke="#858384" stroke-width="1.5" stroke-dasharray="7 7" />
                <mask id="path-47-inside-1" fill="white">
                    <path fill-rule="evenodd" clip-rule="evenodd" d="M349.033 24.1627C350.33 24.4472 351.53 25.0971 352.483 26.0504C353.796 27.3631 354.533 29.1436 354.533 31.0001H352.205C352.205 29.7611 351.713 28.5728 350.837 27.6966C349.961 26.8205 348.772 26.3283 347.533 26.3283C346.294 26.3283 345.106 26.8205 344.23 27.6966C343.354 28.5728 342.861 29.7611 342.861 31.0001H340.533C340.533 29.1436 341.271 27.3631 342.583 26.0504C343.537 25.0971 344.737 24.4472 346.033 24.1627V0.00012207H349.033V24.1627ZM344.533 78.0416C344.533 76.9312 345.137 75.9617 346.033 75.443V67.3203L344.996 62.828L342.073 63.5027L341.034 59H334.073C333.822 61.5263 331.69 63.4991 329.098 63.4991C326.336 63.4991 324.098 61.2606 324.098 58.4991C324.098 55.7377 326.336 53.4991 329.098 53.4991C331.691 53.4991 333.823 55.4729 334.073 58H340.803L339.374 51.8103L342.297 51.1355L341.172 46.2636L344.095 45.5888L344.19 46.0001H346.033V33.5573C345.137 33.0386 344.533 32.0691 344.533 30.9587C344.533 29.3018 345.876 27.9587 347.533 27.9587C349.19 27.9587 350.533 29.3018 350.533 30.9587C350.533 32.0691 349.93 33.0386 349.033 33.5573V46.0001H351.033V48.0001H349.266C349.436 48.2943 349.533 48.6358 349.533 49.0001C349.533 50.1047 348.638 51.0001 347.533 51.0001C346.429 51.0001 345.533 50.1047 345.533 49.0001C345.533 48.6358 345.631 48.2943 345.801 48.0001H344.652L349.044 67.0249L349.033 67.0274V75.443C349.93 75.9617 350.533 76.9312 350.533 78.0416C350.533 79.6985 349.19 81.0416 347.533 81.0416C345.876 81.0416 344.533 79.6985 344.533 78.0416ZM342.583 82.9499C341.271 81.6371 340.533 79.8566 340.533 78.0001H342.861C342.861 79.2392 343.354 80.4275 344.23 81.3036C345.106 82.1797 346.294 82.672 347.533 82.672C348.772 82.672 349.961 82.1797 350.837 81.3036C351.713 80.4275 352.205 79.2392 352.205 78.0001H354.533C354.533 79.8566 353.796 81.6371 352.483 82.9499C351.523 83.9094 350.314 84.5616 349.008 84.8431V127V130H346.008H203.008L203.008 176H200.008V130L200.008 127H203.008L346.008 127V84.8319C344.721 84.5446 343.531 83.8969 342.583 82.9499ZM347.539 48.0001C348.089 48.0035 348.533 48.4499 348.533 49.0001C348.533 49.5524 348.085 50.0001 347.533 50.0001C346.981 50.0001 346.533 49.5524 346.533 49.0001C346.533 48.4499 346.978 48.0035 347.527 48.0001H347.539ZM198 297H201V417H198V297ZM329.098 62.4991C331.307 62.4991 333.098 60.7083 333.098 58.4991C333.098 56.29 331.307 54.4991 329.098 54.4991C326.889 54.4991 325.098 56.29 325.098 58.4991C325.098 60.7083 326.889 62.4991 329.098 62.4991Z" />
                </mask>
                <path id="SHRIK1_input2_on" d="M352.483 26.0504L354.604 23.9291L354.604 23.929L352.483 26.0504ZM349.033 24.1627H346.033V26.5759L348.39 27.093L349.033 24.1627ZM354.533 31.0001V34.0001H357.533V31.0001H354.533ZM352.205 31.0001H349.205V34.0001H352.205V31.0001ZM350.837 27.6966L348.715 29.8179L348.715 29.818L350.837 27.6966ZM342.861 31.0001V34.0001H345.861V31.0001H342.861ZM340.533 31.0001H337.533V34.0001H340.533V31.0001ZM342.583 26.0504L340.462 23.929L340.462 23.9291L342.583 26.0504ZM346.033 24.1627L346.676 27.093L349.033 26.5759V24.1627H346.033ZM346.033 0.00012207V-2.99988H343.033V0.00012207H346.033ZM349.033 0.00012207H352.033V-2.99988H349.033V0.00012207ZM346.033 75.443L347.535 78.0398L349.033 77.1733V75.443H346.033ZM346.033 67.3203H349.033V66.9785L348.956 66.6455L346.033 67.3203ZM344.996 62.828L347.919 62.1531L347.244 59.23L344.321 59.9049L344.996 62.828ZM342.073 63.5027L339.15 64.1776L339.825 67.1007L342.748 66.4258L342.073 63.5027ZM341.034 59L343.957 58.3251L343.42 56H341.034V59ZM334.073 59V56H331.356L331.088 58.7031L334.073 59ZM334.073 58L331.088 58.2959L331.356 61H334.073V58ZM340.803 58V61H344.575L343.726 57.3252L340.803 58ZM339.374 51.8103L338.699 48.8872L335.776 49.562L336.451 52.4851L339.374 51.8103ZM342.297 51.1355L342.972 54.0586L345.895 53.3838L345.22 50.4607L342.297 51.1355ZM341.172 46.2636L340.497 43.3405L337.574 44.0154L338.249 46.9385L341.172 46.2636ZM344.095 45.5888L347.018 44.9139L346.343 41.9908L343.42 42.6657L344.095 45.5888ZM344.19 46.0001L341.267 46.675L341.804 49.0001H344.19V46.0001ZM346.033 46.0001V49.0001H349.033V46.0001H346.033ZM346.033 33.5573H349.033V31.827L347.535 30.9605L346.033 33.5573ZM349.033 33.5573L347.531 30.9605L346.033 31.827V33.5573H349.033ZM349.033 46.0001H346.033V49.0001H349.033V46.0001ZM351.033 46.0001H354.033V43.0001H351.033V46.0001ZM351.033 48.0001V51.0001H354.033V48.0001H351.033ZM349.266 48.0001V45.0001H344.065L346.669 49.5023L349.266 48.0001ZM345.801 48.0001L348.398 49.5023L351.002 45.0001H345.801V48.0001ZM344.652 48.0001V45.0001H340.88L341.729 48.675L344.652 48.0001ZM349.044 67.0249L349.718 69.9481L352.642 69.2735L351.967 66.3501L349.044 67.0249ZM349.033 67.0274L348.359 64.1042L346.033 64.6409V67.0274H349.033ZM349.033 75.443H346.033V77.1733L347.531 78.0398L349.033 75.443ZM340.533 78.0001V75.0001H337.533V78.0001H340.533ZM342.583 82.9499L340.462 85.0712L340.462 85.0712L342.583 82.9499ZM342.861 78.0001H345.861V75.0001H342.861V78.0001ZM344.23 81.3036L346.351 79.1823L346.351 79.1823L344.23 81.3036ZM352.205 78.0001V75.0001H349.205V78.0001H352.205ZM354.533 78.0001H357.533V75.0001H354.533V78.0001ZM352.483 82.9499L354.604 85.0712L354.604 85.0712L352.483 82.9499ZM349.008 84.8431L348.376 81.9104L346.008 82.4207V84.8431H349.008ZM349.008 130V133H352.008V130H349.008ZM203.008 130V127H200.008L200.008 130L203.008 130ZM203.008 176V179H206.008L206.008 176L203.008 176ZM200.008 176H197.008V179H200.008V176ZM200.008 130L197.008 130V130H200.008ZM200.008 127V124H197.008L197.008 127L200.008 127ZM203.008 127L203.008 124H203.008V127ZM346.008 127L346.008 130L349.008 130V127H346.008ZM346.008 84.8319H349.008V82.428L346.662 81.904L346.008 84.8319ZM347.539 48.0001L347.558 45.0002L347.549 45.0001H347.539V48.0001ZM347.527 48.0001V45.0001H347.518L347.509 45.0002L347.527 48.0001ZM201 297H204V294H201V297ZM198 297V294H195V297H198ZM201 417V420H204V417H201ZM198 417H195V420H198V417ZM354.604 23.929C353.242 22.5672 351.528 21.6387 349.676 21.2324L348.39 27.093C349.131 27.2556 349.817 27.627 350.362 28.1717L354.604 23.929ZM357.533 31.0001C357.533 28.348 356.48 25.8044 354.604 23.9291L350.362 28.1717C351.112 28.9218 351.533 29.9393 351.533 31.0001H357.533ZM352.205 34.0001H354.533V28.0001H352.205V34.0001ZM348.715 29.818C349.029 30.1315 349.205 30.5567 349.205 31.0001H355.205C355.205 28.9654 354.397 27.0141 352.958 25.5753L348.715 29.818ZM347.533 29.3283C347.977 29.3283 348.402 29.5044 348.715 29.8179L352.958 25.5753C351.519 24.1366 349.568 23.3283 347.533 23.3283V29.3283ZM346.351 29.818C346.665 29.5044 347.09 29.3283 347.533 29.3283V23.3283C345.499 23.3283 343.547 24.1366 342.108 25.5753L346.351 29.818ZM345.861 31.0001C345.861 30.5567 346.038 30.1315 346.351 29.818L342.108 25.5753C340.67 27.0141 339.861 28.9654 339.861 31.0001H345.861ZM340.533 34.0001H342.861V28.0001H340.533V34.0001ZM340.462 23.9291C338.587 25.8044 337.533 28.348 337.533 31.0001H343.533C343.533 29.9393 343.955 28.9218 344.705 28.1717L340.462 23.9291ZM345.39 21.2324C343.538 21.6387 341.824 22.5672 340.462 23.929L344.705 28.1717C345.249 27.627 345.935 27.2556 346.676 27.093L345.39 21.2324ZM343.033 0.00012207V24.1627H349.033V0.00012207H343.033ZM349.033 -2.99988H346.033V3.00012H349.033V-2.99988ZM352.033 24.1627V0.00012207H346.033V24.1627H352.033ZM344.531 72.8461C342.745 73.879 341.533 75.817 341.533 78.0416H347.533C347.533 78.0388 347.533 78.0376 347.533 78.0378C347.533 78.038 347.533 78.0387 347.533 78.0398C347.532 78.0421 347.532 78.0435 347.531 78.0438C347.531 78.0438 347.532 78.0429 347.533 78.0416C347.535 78.0403 347.535 78.0397 347.535 78.0398L344.531 72.8461ZM343.033 67.3203V75.443H349.033V67.3203H343.033ZM342.073 63.5028L343.11 67.9952L348.956 66.6455L347.919 62.1531L342.073 63.5028ZM342.748 66.4258L345.671 65.7511L344.321 59.9049L341.399 60.5796L342.748 66.4258ZM338.111 59.6749L339.15 64.1776L344.997 62.8279L343.957 58.3251L338.111 59.6749ZM341.034 56H334.073V62H341.034V56ZM331.088 58.7031C330.987 59.7104 330.133 60.4991 329.098 60.4991V66.4991C333.247 66.4991 336.656 63.3421 337.058 59.2969L331.088 58.7031ZM329.098 60.4991C327.993 60.4991 327.098 59.6037 327.098 58.4991H321.098C321.098 62.9174 324.679 66.4991 329.098 66.4991V60.4991ZM327.098 58.4991C327.098 57.3946 327.993 56.4991 329.098 56.4991V50.4991C324.679 50.4991 321.098 54.0809 321.098 58.4991H327.098ZM329.098 56.4991C330.133 56.4991 330.988 57.2883 331.088 58.2959L337.058 57.7041C336.657 53.6576 333.248 50.4991 329.098 50.4991V56.4991ZM334.073 61H340.803V55H334.073V61ZM336.451 52.4851L337.88 58.6748L343.726 57.3252L342.297 51.1354L336.451 52.4851ZM341.622 48.2124L338.699 48.8872L340.049 54.7334L342.972 54.0586L341.622 48.2124ZM338.249 46.9385L339.374 51.8104L345.22 50.4607L344.095 45.5888L338.249 46.9385ZM343.42 42.6657L340.497 43.3405L341.847 49.1868L344.77 48.5119L343.42 42.6657ZM347.113 45.3252L347.018 44.9139L341.172 46.2637L341.267 46.675L347.113 45.3252ZM346.033 43.0001H344.19V49.0001H346.033V43.0001ZM343.033 33.5573V46.0001H349.033V33.5573H343.033ZM341.533 30.9587C341.533 33.1833 342.745 35.1212 344.531 36.1541L347.535 30.9605C347.535 30.9606 347.535 30.96 347.533 30.9587C347.532 30.9574 347.531 30.9565 347.531 30.9565C347.532 30.9567 347.532 30.9582 347.533 30.9605C347.533 30.9616 347.533 30.9623 347.533 30.9625C347.533 30.9626 347.533 30.9615 347.533 30.9587H341.533ZM347.533 24.9587C344.219 24.9587 341.533 27.645 341.533 30.9587H347.533V24.9587ZM353.533 30.9587C353.533 27.645 350.847 24.9587 347.533 24.9587V30.9587H353.533ZM350.535 36.1541C352.321 35.1212 353.533 33.1833 353.533 30.9587H347.533C347.533 30.9615 347.533 30.9626 347.533 30.9625C347.533 30.9623 347.533 30.9616 347.533 30.9605C347.534 30.9582 347.535 30.9567 347.535 30.9565C347.535 30.9565 347.534 30.9574 347.533 30.9587C347.532 30.96 347.531 30.9606 347.531 30.9605L350.535 36.1541ZM352.033 46.0001V33.5573H346.033V46.0001H352.033ZM351.033 43.0001H349.033V49.0001H351.033V43.0001ZM354.033 48.0001V46.0001H348.033V48.0001H354.033ZM349.266 51.0001H351.033V45.0001H349.266V51.0001ZM352.533 49.0001C352.533 48.0944 352.29 47.2365 351.862 46.498L346.669 49.5023C346.582 49.3521 346.533 49.1772 346.533 49.0001H352.533ZM347.533 54.0001C350.295 54.0001 352.533 51.7615 352.533 49.0001H346.533C346.533 48.4478 346.981 48.0001 347.533 48.0001V54.0001ZM342.533 49.0001C342.533 51.7615 344.772 54.0001 347.533 54.0001V48.0001C348.085 48.0001 348.533 48.4478 348.533 49.0001H342.533ZM343.204 46.498C342.777 47.2365 342.533 48.0944 342.533 49.0001H348.533C348.533 49.1772 348.484 49.3521 348.398 49.5023L343.204 46.498ZM344.652 51.0001H345.801V45.0001H344.652V51.0001ZM351.967 66.3501L347.575 47.3253L341.729 48.675L346.121 67.6998L351.967 66.3501ZM349.708 69.9506L349.718 69.9481L348.369 64.1018L348.359 64.1042L349.708 69.9506ZM352.033 75.443V67.0274H346.033V75.443H352.033ZM353.533 78.0416C353.533 75.817 352.321 73.879 350.535 72.8461L347.531 78.0398C347.531 78.0397 347.532 78.0403 347.533 78.0416C347.534 78.0429 347.535 78.0438 347.535 78.0438C347.535 78.0435 347.534 78.0421 347.533 78.0398C347.533 78.0387 347.533 78.038 347.533 78.0378C347.533 78.0376 347.533 78.0388 347.533 78.0416H353.533ZM347.533 84.0416C350.847 84.0416 353.533 81.3553 353.533 78.0416H347.533V84.0416ZM341.533 78.0416C341.533 81.3553 344.219 84.0416 347.533 84.0416V78.0416H341.533ZM337.533 78.0001C337.533 80.6523 338.587 83.1958 340.462 85.0712L344.705 80.8286C343.955 80.0784 343.533 79.061 343.533 78.0001H337.533ZM342.861 75.0001H340.533V81.0001H342.861V75.0001ZM346.351 79.1823C346.038 78.8688 345.861 78.4435 345.861 78.0001H339.861C339.861 80.0348 340.67 81.9862 342.108 83.4249L346.351 79.1823ZM347.533 79.672C347.09 79.672 346.665 79.4958 346.351 79.1823L342.108 83.4249C343.547 84.8637 345.499 85.672 347.533 85.672V79.672ZM348.715 79.1823C348.402 79.4958 347.977 79.672 347.533 79.672V85.672C349.568 85.672 351.519 84.8637 352.958 83.4249L348.715 79.1823ZM349.205 78.0001C349.205 78.4435 349.029 78.8688 348.715 79.1823L352.958 83.4249C354.397 81.9862 355.205 80.0348 355.205 78.0001H349.205ZM354.533 75.0001H352.205V81.0001H354.533V75.0001ZM354.604 85.0712C356.48 83.1958 357.533 80.6523 357.533 78.0001H351.533C351.533 79.061 351.112 80.0784 350.362 80.8286L354.604 85.0712ZM349.64 87.7757C351.506 87.3736 353.233 86.442 354.604 85.0712L350.362 80.8285C349.813 81.3768 349.122 81.7495 348.376 81.9104L349.64 87.7757ZM352.008 127V84.8431H346.008V127H352.008ZM352.008 130V127H346.008V130H352.008ZM346.008 133H349.008V127H346.008V133ZM203.008 133H346.008V127H203.008V133ZM206.008 176L206.008 130L200.008 130L200.008 176L206.008 176ZM200.008 179H203.008V173H200.008V179ZM197.008 130V176H203.008V130H197.008ZM197.008 127L197.008 130L203.008 130L203.008 127L197.008 127ZM203.008 124H200.008V130H203.008V124ZM346.008 124L203.008 124L203.008 130L346.008 130L346.008 124ZM343.008 84.8319V127H349.008V84.8319H343.008ZM340.462 85.0712C341.815 86.4242 343.516 87.3494 345.354 87.7598L346.662 81.904C345.926 81.7398 345.246 81.3696 344.705 80.8286L340.462 85.0712ZM351.533 49.0001C351.533 46.7992 349.756 45.0136 347.558 45.0002L347.521 51.0001C346.422 50.9933 345.533 50.1006 345.533 49.0001H351.533ZM347.533 53.0001C349.742 53.0001 351.533 51.2092 351.533 49.0001H345.533C345.533 47.8955 346.429 47.0001 347.533 47.0001V53.0001ZM343.533 49.0001C343.533 51.2092 345.324 53.0001 347.533 53.0001V47.0001C348.638 47.0001 349.533 47.8955 349.533 49.0001H343.533ZM347.509 45.0002C345.311 45.0136 343.533 46.7992 343.533 49.0001H349.533C349.533 50.1006 348.645 50.9933 347.545 51.0001L347.509 45.0002ZM347.539 45.0001H347.527V51.0001H347.539V45.0001ZM201 294H198V300H201V294ZM204 417V297H198V417H204ZM198 420H201V414H198V420ZM195 297V417H201V297H195ZM330.098 58.4991C330.098 59.0514 329.65 59.4991 329.098 59.4991V65.4991C332.964 65.4991 336.098 62.3651 336.098 58.4991H330.098ZM329.098 57.4991C329.65 57.4991 330.098 57.9469 330.098 58.4991H336.098C336.098 54.6331 332.964 51.4991 329.098 51.4991V57.4991ZM328.098 58.4991C328.098 57.9469 328.545 57.4991 329.098 57.4991V51.4991C325.232 51.4991 322.098 54.6331 322.098 58.4991H328.098ZM329.098 59.4991C328.545 59.4991 328.098 59.0514 328.098 58.4991H322.098C322.098 62.3651 325.232 65.4991 329.098 65.4991V59.4991Z" fill="#352295" mask="url(#path-47-inside-1)" />
                <rect x="39" y="59" width="5" height="1" fill="#858384" />
                <path d="M38.5996 59.5C38.5996 61.9853 36.5849 64 34.0996 64C31.6143 64 29.5996 61.9853 29.5996 59.5C29.5996 57.0147 31.6143 55 34.0996 55C36.5849 55 38.5996 57.0147 38.5996 59.5Z" fill="#C4C4C4" stroke="#858384" />
                <path id="SHRIK1_input1_on" fill-rule="evenodd" clip-rule="evenodd" d="M57.4703 26.0503C56.517 25.097 55.3171 24.447 54.0205 24.1626V0H51.0205V24.1626C49.724 24.447 48.5241 25.097 47.5708 26.0503C46.258 27.363 45.5205 29.1435 45.5205 31H47.8487C47.8487 29.761 48.3409 28.5727 49.2171 27.6965C50.0932 26.8204 51.2815 26.3282 52.5205 26.3282C53.7596 26.3282 54.9479 26.8204 55.824 27.6965C56.7002 28.5727 57.1924 29.761 57.1924 31H59.5205C59.5205 29.1435 58.783 27.363 57.4703 26.0503ZM53.9952 75.4283V67H53.9865L53.9922 66.9987L49.606 48H50.7881C50.6179 48.2942 50.5205 48.6357 50.5205 49C50.5205 50.1045 51.416 51 52.5205 51C53.6251 51 54.5205 50.1045 54.5205 49C54.5205 48.6357 54.4232 48.2942 54.253 48H56.0205V46H54.0205V33.5572C54.9172 33.0385 55.5205 32.069 55.5205 30.9585C55.5205 29.3017 54.1774 27.9585 52.5205 27.9585C50.8637 27.9585 49.5205 29.3017 49.5205 30.9585C49.5205 32.069 50.1238 33.0385 51.0205 33.5572V46H49.1443L49.0433 45.5625L46.1202 46.2374L47.2449 51.1093L44.3223 51.784L45.9882 59H39.0749C38.8241 56.4733 36.6923 54.5 34.0996 54.5C31.3382 54.5 29.0996 56.7386 29.0996 59.5C29.0996 62.2614 31.3382 64.5 34.0996 64.5C36.6923 64.5 38.8241 62.5267 39.0749 60H46.2191L47.0217 63.4765L49.9443 62.8017L50.9952 67.3533V75.4577C50.1125 75.9799 49.5205 76.9416 49.5205 78.0415C49.5205 79.6983 50.8637 81.0415 52.5205 81.0415C54.1774 81.0415 55.5205 79.6983 55.5205 78.0415C55.5205 76.9206 54.9058 75.9433 53.9952 75.4283ZM45.5205 78C45.5205 79.8565 46.258 81.637 47.5708 82.9498C48.5178 83.8968 49.7083 84.5445 50.9952 84.8318L50.9951 127L50.9952 130H53.9952H199.995V176H202.995V130V127L199.995 127L53.9952 127V84.843C55.3014 84.5614 56.5108 83.9092 57.4703 82.9498C58.783 81.637 59.5205 79.8565 59.5205 78H57.1924C57.1924 79.2391 56.7002 80.4274 55.824 81.3035C54.9479 82.1796 53.7596 82.6718 52.5205 82.6718C51.2815 82.6718 50.0932 82.1796 49.2171 81.3035C48.3409 80.4274 47.8487 79.2391 47.8487 78H45.5205ZM53.5205 49C53.5205 48.4498 53.0762 48.0034 52.5268 48H52.5143C51.9649 48.0034 51.5205 48.4498 51.5205 49C51.5205 49.5523 51.9683 50 52.5205 50C53.0728 50 53.5205 49.5523 53.5205 49ZM201 297H198V417H201V297ZM38.0996 59.5C38.0996 61.7091 36.3087 63.5 34.0996 63.5C31.8905 63.5 30.0996 61.7091 30.0996 59.5C30.0996 57.2909 31.8905 55.5 34.0996 55.5C36.3087 55.5 38.0996 57.2909 38.0996 59.5Z" fill="#7ABD84" />
                <path d="M37.4004 58.4473C37.4004 59.0645 37.2168 59.5859 36.8496 60.0117C36.4863 60.4336 36.0371 60.6445 35.502 60.6445C35.2207 60.6445 34.9551 60.5938 34.7051 60.4922C34.4551 60.3867 34.1641 60.1895 33.832 59.9004C33.5039 59.6113 33.2676 59.4316 33.123 59.3613C32.9785 59.291 32.8242 59.2559 32.6602 59.2559C32.3555 59.2559 32.1211 59.3613 31.957 59.5723C31.793 59.7793 31.7109 60.0664 31.7109 60.4336L30.7676 60.4453C30.7676 59.8203 30.9473 59.3066 31.3066 58.9043C31.666 58.502 32.1172 58.3008 32.6602 58.3008C32.957 58.3008 33.2422 58.3633 33.5156 58.4883C33.7891 58.6133 34.0977 58.834 34.4414 59.1504C34.7852 59.4629 35.082 59.6387 35.332 59.6777L35.502 59.6895C35.7988 59.6895 36.0391 59.5762 36.2227 59.3496C36.4102 59.123 36.5039 58.8242 36.5039 58.4531L37.4004 58.4473Z" fill="black" />
            </svg>