<svg width="100%" viewBox="0 0 400 497" fill="none" xmlns="http://www.w3.org/2000/svg">
                <rect x="16.5" y="16.5" width="367" height="130" fill="#E0DBDB" stroke="black" />
                <rect width="3" height="10" transform="matrix(1 0 0 -1 51 77)" fill="#858384" />
                <path fill-rule="evenodd" clip-rule="evenodd" d="M54.0004 67.0419L51.4023 68.5419L48.9024 64.2118L46.3047 65.7116L40.3047 55.3193L42.9024 53.8195L40.4023 49.4894L43.0004 47.9894L54.0004 67.0419Z" fill="#858384" />
                <path d="M55.5254 78.0415C55.5254 79.6983 54.1822 81.0415 52.5254 81.0415C50.8685 81.0415 49.5254 79.6983 49.5254 78.0415C49.5254 76.3846 50.8685 75.0415 52.5254 75.0415C54.1822 75.0415 55.5254 76.3846 55.5254 78.0415Z" fill="#858384" />
                <path d="M45.5254 78C45.5254 79.8565 46.2629 81.637 47.5756 82.9497C48.8884 84.2625 50.6689 85 52.5254 85C54.3819 85 56.1624 84.2625 57.4751 82.9497C58.7879 81.637 59.5254 79.8565 59.5254 78L57.1972 78C57.1972 79.239 56.705 80.4273 55.8289 81.3035C54.9527 82.1796 53.7644 82.6718 52.5254 82.6718C51.2863 82.6718 50.098 82.1796 49.2219 81.3035C48.3458 80.4273 47.8536 79.239 47.8536 78L45.5254 78Z" fill="#858384" />
                <rect width="3" height="8" transform="matrix(1 0 0 -1 51.0254 25)" fill="#858384" />
                <rect width="3" height="14" transform="matrix(1 0 0 -1 51.0254 47)" fill="#858384" />
                <path d="M55.5254 30.9585C55.5254 32.6154 54.1822 33.9585 52.5254 33.9585C50.8685 33.9585 49.5254 32.6154 49.5254 30.9585C49.5254 29.3017 50.8685 27.9585 52.5254 27.9585C54.1822 27.9585 55.5254 29.3017 55.5254 30.9585Z" fill="#858384" />
                <path d="M59.5254 31C59.5254 29.1435 58.7879 27.363 57.4751 26.0503C56.1624 24.7375 54.3819 24 52.5254 24C50.6689 24 48.8884 24.7375 47.5756 26.0503C46.2629 27.363 45.5254 29.1435 45.5254 31L47.8536 31C47.8536 29.761 48.3458 28.5727 49.2219 27.6965C50.098 26.8204 51.2863 26.3282 52.5254 26.3282C53.7644 26.3282 54.9527 26.8204 55.8289 27.6965C56.705 28.5727 57.1972 29.761 57.1972 31H59.5254Z" fill="#858384" />
                <rect x="49.0254" y="46" width="7" height="2" fill="#858384" />
                <path d="M54.0254 49C54.0254 49.8284 53.3538 50.5 52.5254 50.5C51.697 50.5 51.0254 49.8284 51.0254 49C51.0254 48.1716 51.697 47.5 52.5254 47.5C53.3538 47.5 54.0254 48.1716 54.0254 49Z" stroke="#858384" />
                <rect x="38" y="60" width="6" height="1" fill="#858384" />
                <path d="M38.5 60.5C38.5 62.9853 36.4853 65 34 65C31.5147 65 29.5 62.9853 29.5 60.5C29.5 58.0147 31.5147 56 34 56C36.4853 56 38.5 58.0147 38.5 60.5Z" fill="#C4C4C4" stroke="#858384" />
                <path d="M37.4258 59.4473C37.4258 60.0645 37.2422 60.5859 36.875 61.0117C36.5117 61.4336 36.0625 61.6445 35.5273 61.6445C35.2461 61.6445 34.9805 61.5938 34.7305 61.4922C34.4805 61.3867 34.1895 61.1895 33.8574 60.9004C33.5293 60.6113 33.293 60.4316 33.1484 60.3613C33.0039 60.291 32.8496 60.2559 32.6855 60.2559C32.3809 60.2559 32.1465 60.3613 31.9824 60.5723C31.8184 60.7793 31.7363 61.0664 31.7363 61.4336L30.793 61.4453C30.793 60.8203 30.9727 60.3066 31.332 59.9043C31.6914 59.502 32.1426 59.3008 32.6855 59.3008C32.9824 59.3008 33.2676 59.3633 33.541 59.4883C33.8145 59.6133 34.123 59.834 34.4668 60.1504C34.8105 60.4629 35.1074 60.6387 35.3574 60.6777L35.5273 60.6895C35.8242 60.6895 36.0645 60.5762 36.248 60.3496C36.4355 60.123 36.5293 59.8242 36.5293 59.4531L37.4258 59.4473Z" fill="black" />
                <line x1="52.5" y1="84" x2="52.5" y2="130" stroke="#858384" stroke-width="3" stroke-dasharray="9 9" />
                <line x1="349" y1="128.5" x2="51" y2="128.5" stroke="#858384" stroke-width="3" stroke-dasharray="6 6" />
                <rect width="3" height="10" transform="matrix(1 0 0 -1 346.025 77)" fill="#858384" />
                <path fill-rule="evenodd" clip-rule="evenodd" d="M349.026 67.0526L346.428 68.5526L343.928 64.2225L341.33 65.7222L335.33 55.3299L337.928 53.8302L335.428 49.5L338.026 48L349.026 67.0526Z" fill="#858384" />
                <path d="M350.525 78.0415C350.525 79.6983 349.182 81.0415 347.525 81.0415C345.869 81.0415 344.525 79.6983 344.525 78.0415C344.525 76.3846 345.869 75.0415 347.525 75.0415C349.182 75.0415 350.525 76.3846 350.525 78.0415Z" fill="#858384" />
                <path d="M340.525 78C340.525 79.8565 341.263 81.637 342.576 82.9497C343.888 84.2625 345.669 85 347.525 85C349.382 85 351.162 84.2625 352.475 82.9497C353.788 81.637 354.525 79.8565 354.525 78L352.197 78C352.197 79.239 351.705 80.4273 350.829 81.3035C349.953 82.1796 348.764 82.6718 347.525 82.6718C346.286 82.6718 345.098 82.1796 344.222 81.3035C343.346 80.4273 342.854 79.239 342.854 78L340.525 78Z" fill="#858384" />
                <rect width="3" height="8" transform="matrix(1 0 0 -1 346.025 25)" fill="#858384" />
                <rect width="3" height="14" transform="matrix(1 0 0 -1 346.025 47)" fill="#858384" />
                <path d="M350.525 30.9585C350.525 32.6154 349.182 33.9585 347.525 33.9585C345.869 33.9585 344.525 32.6154 344.525 30.9585C344.525 29.3017 345.869 27.9585 347.525 27.9585C349.182 27.9585 350.525 29.3017 350.525 30.9585Z" fill="#858384" />
                <path d="M354.525 31C354.525 29.1435 353.788 27.363 352.475 26.0503C351.162 24.7375 349.382 24 347.525 24C345.669 24 343.888 24.7375 342.576 26.0503C341.263 27.363 340.525 29.1435 340.525 31L342.854 31C342.854 29.761 343.346 28.5727 344.222 27.6965C345.098 26.8204 346.286 26.3282 347.525 26.3282C348.764 26.3282 349.953 26.8204 350.829 27.6965C351.705 28.5727 352.197 29.761 352.197 31H354.525Z" fill="#858384" />
                <rect x="344.025" y="46" width="7" height="2" fill="#858384" />
                <path d="M349.025 49C349.025 49.8284 348.354 50.5 347.525 50.5C346.697 50.5 346.025 49.8284 346.025 49C346.025 48.1716 346.697 47.5 347.525 47.5C348.354 47.5 349.025 48.1716 349.025 49Z" stroke="#858384" />
                <rect x="334" y="58" width="5" height="1" fill="#858384" />
                <path d="M333.6 58.5C333.6 60.9853 331.585 63 329.1 63C326.614 63 324.6 60.9853 324.6 58.5C324.6 56.0147 326.614 54 329.1 54C331.585 54 333.6 56.0147 333.6 58.5Z" fill="#C4C4C4" stroke="#858384" />
                <path d="M332.4 57.4473C332.4 58.0645 332.217 58.5859 331.85 59.0117C331.486 59.4336 331.037 59.6445 330.502 59.6445C330.221 59.6445 329.955 59.5938 329.705 59.4922C329.455 59.3867 329.164 59.1895 328.832 58.9004C328.504 58.6113 328.268 58.4316 328.123 58.3613C327.979 58.291 327.824 58.2559 327.66 58.2559C327.355 58.2559 327.121 58.3613 326.957 58.5723C326.793 58.7793 326.711 59.0664 326.711 59.4336L325.768 59.4453C325.768 58.8203 325.947 58.3066 326.307 57.9043C326.666 57.502 327.117 57.3008 327.66 57.3008C327.957 57.3008 328.242 57.3633 328.516 57.4883C328.789 57.6133 329.098 57.834 329.441 58.1504C329.785 58.4629 330.082 58.6387 330.332 58.6777L330.502 58.6895C330.799 58.6895 331.039 58.5762 331.223 58.3496C331.41 58.123 331.504 57.8242 331.504 57.4531L332.4 57.4473Z" fill="black" />
                <line x1="347.5" y1="84" x2="347.5" y2="130" stroke="#858384" stroke-width="3" stroke-dasharray="9 9" />
                <line x1="52.5" y1="-6.55672e-08" x2="52.5" y2="16" stroke="#858384" stroke-width="3" stroke-dasharray="9 9" />
                <line x1="347.5" y1="-6.55671e-08" x2="347.5" y2="10" stroke="#858384" stroke-width="3" stroke-dasharray="9 9" />
                <path d="M52.4961 418.5H350.496V463.785L201.496 495.466L52.4961 463.785V418.5Z" fill="#E0DBDB" stroke="black" stroke-width="3" />
                <rect x="0.5" y="0.5" width="399" height="399" stroke="black" stroke-dasharray="7 7" />
                <path fill-rule="evenodd" clip-rule="evenodd" d="M57.4722 26.0499C56.519 25.0966 55.3191 24.4467 54.0225 24.1622V-0.00012207H51.0225V24.1622C49.7259 24.4467 48.526 25.0966 47.5728 26.0499C46.26 27.3626 45.5225 29.1431 45.5225 30.9996H47.8507C47.8507 29.7606 48.3429 28.5723 49.219 27.6961C50.0952 26.82 51.2835 26.3278 52.5225 26.3278C53.7615 26.3278 54.9498 26.82 55.826 27.6961C56.7021 28.5723 57.1943 29.7606 57.1943 30.9996H59.5225C59.5225 29.1431 58.785 27.3626 57.4722 26.0499ZM53.9971 75.4279V66.9996H53.9885L53.9941 66.9983L49.608 47.9996H50.7901C50.6199 48.2938 50.5225 48.6353 50.5225 48.9996C50.5225 50.1042 51.4179 50.9996 52.5225 50.9996C53.6271 50.9996 54.5225 50.1042 54.5225 48.9996C54.5225 48.6353 54.4251 48.2938 54.2549 47.9996H56.0225V45.9996H54.0225V33.5568C54.9192 33.0381 55.5225 32.0686 55.5225 30.9582C55.5225 29.3013 54.1794 27.9582 52.5225 27.9582C50.8656 27.9582 49.5225 29.3013 49.5225 30.9582C49.5225 32.0686 50.1258 33.0381 51.0225 33.5568V45.9996H49.1462L49.0452 45.5622L46.1221 46.237L47.2469 51.1089L44.3242 51.7837L46.2211 60H38.9753C38.7245 57.4733 36.5927 55.5 34 55.5C31.2386 55.5 29 57.7386 29 60.5C29 63.2614 31.2386 65.5 34 65.5C36.5927 65.5 38.7245 63.5267 38.9753 61H46.452L47.0236 63.4761L49.9463 62.8014L50.9971 67.3529V75.4573C50.1144 75.9795 49.5225 76.9412 49.5225 78.0411C49.5225 79.698 50.8656 81.0411 52.5225 81.0411C54.1794 81.0411 55.5225 79.698 55.5225 78.0411C55.5225 76.9202 54.9078 75.9429 53.9971 75.4279ZM45.5225 77.9996C45.5225 79.8561 46.26 81.6366 47.5727 82.9494C48.5198 83.8964 49.7103 84.5441 50.9971 84.8314L50.9971 127L50.9971 130H53.9971H199.997L199.997 417H202.997L202.997 130V127L53.9971 127V84.8426C55.3034 84.561 56.5128 83.9089 57.4722 82.9494C58.785 81.6366 59.5225 79.8561 59.5225 77.9996H57.1943C57.1943 79.2387 56.7021 80.427 55.826 81.3031C54.9498 82.1792 53.7615 82.6714 52.5225 82.6714C51.2834 82.6714 50.0951 82.1792 49.219 81.3031C48.3429 80.427 47.8507 79.2387 47.8507 77.9996H45.5225ZM53.5225 48.9996C53.5225 48.4494 53.0782 48.003 52.5287 47.9996H52.5163C51.9668 48.003 51.5225 48.4494 51.5225 48.9996C51.5225 49.5519 51.9702 49.9996 52.5225 49.9996C53.0748 49.9996 53.5225 49.5519 53.5225 48.9996ZM34 64.5C36.2091 64.5 38 62.7091 38 60.5C38 58.2909 36.2091 56.5 34 56.5C31.7909 56.5 30 58.2909 30 60.5C30 62.7091 31.7909 64.5 34 64.5Z" fill="#76BB81" />
                <path id="" fill-rule="evenodd" clip-rule="evenodd" d="M352.473 26.0503C351.519 25.0969 350.319 24.447 349.022 24.1626V0H346.022V24.1626C344.726 24.447 343.526 25.0969 342.572 26.0503C341.26 27.363 340.522 29.1434 340.522 31H342.851C342.851 30.2699 343.021 29.5575 343.342 28.9161C343.564 28.469 343.859 28.0564 344.219 27.6965C345.095 26.8204 346.283 26.3281 347.522 26.3281C348.762 26.3281 349.95 26.8204 350.826 27.6965C351.702 28.5726 352.194 29.761 352.194 31H354.522C354.522 29.1434 353.785 27.363 352.473 26.0503ZM346.022 75.4429C345.126 75.9615 344.522 76.931 344.522 78.0415C344.522 79.6984 345.865 81.0415 347.522 81.0415C349.18 81.0415 350.522 79.6984 350.522 78.0415C350.522 76.931 349.919 75.9615 349.022 75.4429V67.0273L349.033 67.0248L344.641 48H345.79C345.706 48.1448 345.641 48.301 345.595 48.4657C345.548 48.6357 345.522 48.8149 345.522 49C345.522 50.1045 346.418 51 347.522 51C348.627 51 349.522 50.1045 349.522 49C349.522 48.6357 349.425 48.2942 349.255 48H351.022V46H349.022V33.5573C349.919 33.0385 350.522 32.069 350.522 30.9585C350.522 29.3016 349.18 27.9585 347.522 27.9585C345.865 27.9585 344.522 29.3016 344.522 30.9585C344.522 32.069 345.126 33.0385 346.022 33.5573V46H344.18L344.084 45.5886L341.161 46.2635L342.286 51.1354L339.363 51.8102L340.792 58H334.074C333.823 55.4738 331.691 53.5009 329.099 53.5009C326.337 53.5009 324.099 55.7394 324.099 58.5009C324.099 61.2623 326.337 63.5009 329.099 63.5009C331.691 63.5009 333.824 61.5271 334.074 59H341.023L342.062 63.5026L344.985 62.8279L346.022 67.3202V75.4429ZM340.522 78C340.522 79.8566 341.26 81.637 342.572 82.9497C343.52 83.8969 344.71 84.5444 345.997 84.8318V127H202.997H199.997V130V417H202.997V130H345.997H348.997V127V84.843C350.304 84.5614 351.513 83.9093 352.473 82.9497C353.785 81.637 354.522 79.8566 354.522 78H352.194C352.194 79.239 351.702 80.4274 350.826 81.3035C349.95 82.1797 348.762 82.6719 347.522 82.6719C346.283 82.6719 345.095 82.1797 344.219 81.3035C343.343 80.4274 342.851 79.239 342.851 78H340.522ZM348.522 49C348.522 48.4498 348.078 48.0034 347.528 48H347.517C346.967 48.0034 346.522 48.4498 346.522 49C346.522 49.5522 346.97 50 347.522 50C348.075 50 348.522 49.5522 348.522 49ZM329.099 62.5009C331.308 62.5009 333.099 60.71 333.099 58.5009C333.099 56.2917 331.308 54.5009 329.099 54.5009C326.89 54.5009 325.099 56.2917 325.099 58.5009C325.099 60.71 326.89 62.5009 329.099 62.5009Z" fill="#352295" />
            </svg>