<svg width="1878" height="208" viewBox="0 0 1878 208" fill="none" xmlns="http://www.w3.org/2000/svg">
<path d="M1250 115L1250 116C1250.27 116 1250.53 115.892 1250.71 115.701C1250.9 115.509 1251 115.25 1251 114.982L1250 115ZM1242.5 116C1243.05 116 1243.5 115.552 1243.5 115C1243.5 114.448 1243.05 114 1242.5 114L1242.5 116ZM1247.5 114C1246.95 114 1246.5 114.448 1246.5 115C1246.5 115.552 1246.95 116 1247.5 116L1247.5 114ZM1250.87 107.857C1250.86 107.304 1250.4 106.865 1249.85 106.875C1249.3 106.885 1248.86 107.341 1248.87 107.893L1250.87 107.857ZM1248.61 93.6435C1248.62 94.1957 1249.07 94.635 1249.62 94.6248C1250.18 94.6146 1250.62 94.1587 1250.61 93.6065L1248.61 93.6435ZM1250.34 79.3565C1250.33 78.8043 1249.88 78.365 1249.32 78.3752C1248.77 78.3854 1248.33 78.8413 1248.34 79.3935L1250.34 79.3565ZM1248.08 65.1435C1248.09 65.6957 1248.55 66.135 1249.1 66.1248C1249.65 66.1146 1250.09 65.6587 1250.08 65.1065L1248.08 65.1435ZM1249.82 50.8565C1249.81 50.3043 1249.35 49.865 1248.8 49.8752C1248.25 49.8854 1247.81 50.3413 1247.82 50.8935L1249.82 50.8565ZM1247.55 36.6435C1247.56 37.1957 1248.02 37.635 1248.57 37.6248C1249.12 37.6146 1249.56 37.1587 1249.55 36.6065L1247.55 36.6435ZM1249.29 22.3565C1249.28 21.8043 1248.82 21.365 1248.27 21.3752C1247.72 21.3854 1247.28 21.8413 1247.29 22.3935L1249.29 22.3565ZM1247.03 8.14347C1247.04 8.69566 1247.49 9.13503 1248.04 9.12484C1248.6 9.11464 1249.04 8.65873 1249.03 8.10654L1247.03 8.14347ZM1240 116L1242.5 116L1242.5 114L1240 114L1240 116ZM1247.5 116L1250 116L1250 114L1247.5 114L1247.5 116ZM1251 114.982L1250.87 107.857L1248.87 107.893L1249 115.018L1251 114.982ZM1250.61 93.6065L1250.34 79.3565L1248.34 79.3935L1248.61 93.6435L1250.61 93.6065ZM1250.08 65.1065L1249.82 50.8565L1247.82 50.8935L1248.08 65.1435L1250.08 65.1065ZM1249.55 36.6065L1249.29 22.3565L1247.29 22.3935L1247.55 36.6435L1249.55 36.6065ZM1249.03 8.10654L1248.89 0.981536L1246.89 1.01846L1247.03 8.14347L1249.03 8.10654ZM1250 115L1250 117C1250.54 117 1251.05 116.784 1251.43 116.401C1251.8 116.018 1252.01 115.5 1252 114.963L1250 115ZM1242.5 117C1243.6 117 1244.5 116.105 1244.5 115C1244.5 113.895 1243.6 113 1242.5 113L1242.5 117ZM1247.5 113C1246.4 113 1245.5 113.895 1245.5 115C1245.5 116.105 1246.4 117 1247.5 117L1247.5 113ZM1251.87 107.838C1251.85 106.734 1250.94 105.855 1249.83 105.875C1248.73 105.896 1247.85 106.808 1247.87 107.912L1251.87 107.838ZM1247.61 93.6619C1247.63 94.7663 1248.54 95.6451 1249.64 95.6247C1250.75 95.6043 1251.63 94.6925 1251.6 93.5881L1247.61 93.6619ZM1251.34 79.3381C1251.32 78.2337 1250.41 77.3549 1249.31 77.3753C1248.2 77.3957 1247.32 78.3075 1247.34 79.4119L1251.34 79.3381ZM1247.08 65.1619C1247.1 66.2663 1248.01 67.1451 1249.12 67.1247C1250.22 67.1043 1251.1 66.1925 1251.08 65.0881L1247.08 65.1619ZM1250.82 50.8381C1250.8 49.7337 1249.88 48.8549 1248.78 48.8753C1247.67 48.8957 1246.8 49.8075 1246.82 50.9119L1250.82 50.8381ZM1246.55 36.6619C1246.57 37.7663 1247.49 38.6451 1248.59 38.6247C1249.69 38.6043 1250.57 37.6925 1250.55 36.5881L1246.55 36.6619ZM1250.29 22.3381C1250.27 21.2337 1249.36 20.3549 1248.25 20.3753C1247.15 20.3957 1246.27 21.3075 1246.29 22.4119L1250.29 22.3381ZM1246.03 8.16193C1246.05 9.26632 1246.96 10.1451 1248.06 10.1247C1249.17 10.1043 1250.05 9.19246 1250.03 8.08808L1246.03 8.16193ZM1240 117L1242.5 117L1242.5 113L1240 113L1240 117ZM1247.5 117L1250 117L1250 113L1247.5 113L1247.5 117ZM1252 114.963L1251.87 107.838L1247.87 107.912L1248 115.037L1252 114.963ZM1251.6 93.5881L1251.34 79.3381L1247.34 79.4119L1247.61 93.6619L1251.6 93.5881ZM1251.08 65.0881L1250.82 50.8381L1246.82 50.9119L1247.08 65.1619L1251.08 65.0881ZM1250.55 36.5881L1250.29 22.3381L1246.29 22.4119L1246.55 36.6619L1250.55 36.5881ZM1250.03 8.08808L1249.89 0.963072L1245.9 1.03693L1246.03 8.16193L1250.03 8.08808Z" fill="#3C458F"/>
<path d="M1877 88.0833C1877 87.531 1876.55 87.0833 1876 87.0833C1875.45 87.0833 1875 87.531 1875 88.0833L1877 88.0833ZM1875 72.25C1875 72.8023 1875.45 73.25 1876 73.25C1876.55 73.25 1877 72.8023 1877 72.25L1875 72.25ZM1877 56.4167C1877 55.8644 1876.55 55.4167 1876 55.4167C1875.45 55.4167 1875 55.8644 1875 56.4167L1877 56.4167ZM1875 40.5833C1875 41.1356 1875.45 41.5833 1876 41.5833C1876.55 41.5833 1877 41.1356 1877 40.5833L1875 40.5833ZM1877 24.75C1877 24.1977 1876.55 23.75 1876 23.75C1875.45 23.75 1875 24.1977 1875 24.75L1877 24.75ZM1875 8.91666C1875 9.46895 1875.45 9.91666 1876 9.91666C1876.55 9.91666 1877 9.46895 1877 8.91666L1875 8.91666ZM1877 96L1877 88.0833L1875 88.0833L1875 96L1877 96ZM1877 72.25L1877 56.4167L1875 56.4167L1875 72.25L1877 72.25ZM1877 40.5833L1877 24.75L1875 24.75L1875 40.5833L1877 40.5833ZM1877 8.91666L1877 1L1875 1L1875 8.91666L1877 8.91666ZM1878 88.0833C1878 86.9788 1877.1 86.0833 1876 86.0833C1874.9 86.0833 1874 86.9788 1874 88.0833L1878 88.0833ZM1874 72.25C1874 73.3546 1874.9 74.25 1876 74.25C1877.1 74.25 1878 73.3546 1878 72.25L1874 72.25ZM1878 56.4167C1878 55.3121 1877.1 54.4167 1876 54.4167C1874.9 54.4167 1874 55.3121 1874 56.4167L1878 56.4167ZM1874 40.5833C1874 41.6879 1874.9 42.5833 1876 42.5833C1877.1 42.5833 1878 41.6879 1878 40.5833L1874 40.5833ZM1878 24.75C1878 23.6454 1877.1 22.75 1876 22.75C1874.9 22.75 1874 23.6454 1874 24.75L1878 24.75ZM1874 8.91666C1874 10.0212 1874.9 10.9167 1876 10.9167C1877.1 10.9167 1878 10.0212 1878 8.91666L1874 8.91666ZM1878 96L1878 88.0833L1874 88.0833L1874 96L1878 96ZM1878 72.25L1878 56.4167L1874 56.4167L1874 72.25L1878 72.25ZM1878 40.5833L1878 24.75L1874 24.75L1874 40.5833L1878 40.5833ZM1878 8.91666L1878 1L1874 1L1874 8.91666L1878 8.91666Z" fill="#3C458F"/>
<path d="M1247 115H1248C1248 114.448 1247.55 114 1247 114V115ZM1248 200.25C1248 199.698 1247.55 199.25 1247 199.25C1246.45 199.25 1246 199.698 1246 200.25H1248ZM1246 184.75C1246 185.302 1246.45 185.75 1247 185.75C1247.55 185.75 1248 185.302 1248 184.75H1246ZM1248 169.25C1248 168.698 1247.55 168.25 1247 168.25C1246.45 168.25 1246 168.698 1246 169.25H1248ZM1246 153.75C1246 154.302 1246.45 154.75 1247 154.75C1247.55 154.75 1248 154.302 1248 153.75H1246ZM1248 138.25C1248 137.698 1247.55 137.25 1247 137.25C1246.45 137.25 1246 137.698 1246 138.25H1248ZM1246 122.75C1246 123.302 1246.45 123.75 1247 123.75C1247.55 123.75 1248 123.302 1248 122.75H1246ZM1238.86 114C1238.31 114 1237.86 114.448 1237.86 115C1237.86 115.552 1238.31 116 1238.86 116V114ZM1222.58 116C1223.13 116 1223.58 115.552 1223.58 115C1223.58 114.448 1223.13 114 1222.58 114V116ZM1206.29 114C1205.74 114 1205.29 114.448 1205.29 115C1205.29 115.552 1205.74 116 1206.29 116V114ZM1190.01 116C1190.56 116 1191.01 115.552 1191.01 115C1191.01 114.448 1190.56 114 1190.01 114V116ZM1173.73 114C1173.18 114 1172.73 114.448 1172.73 115C1172.73 115.552 1173.18 116 1173.73 116V114ZM1157.45 116C1158 116 1158.45 115.552 1158.45 115C1158.45 114.448 1158 114 1157.45 114V116ZM1141.16 114C1140.61 114 1140.16 114.448 1140.16 115C1140.16 115.552 1140.61 116 1141.16 116V114ZM1124.88 116C1125.43 116 1125.88 115.552 1125.88 115C1125.88 114.448 1125.43 114 1124.88 114V116ZM1108.6 114C1108.05 114 1107.6 114.448 1107.6 115C1107.6 115.552 1108.05 116 1108.6 116V114ZM1092.32 116C1092.87 116 1093.32 115.552 1093.32 115C1093.32 114.448 1092.87 114 1092.32 114V116ZM1076.03 114C1075.48 114 1075.03 114.448 1075.03 115C1075.03 115.552 1075.48 116 1076.03 116V114ZM1059.75 116C1060.3 116 1060.75 115.552 1060.75 115C1060.75 114.448 1060.3 114 1059.75 114V116ZM1043.47 114C1042.92 114 1042.47 114.448 1042.47 115C1042.47 115.552 1042.92 116 1043.47 116V114ZM1027.18 116C1027.74 116 1028.18 115.552 1028.18 115C1028.18 114.448 1027.74 114 1027.18 114V116ZM1010.9 114C1010.35 114 1009.9 114.448 1009.9 115C1009.9 115.552 1010.35 116 1010.9 116V114ZM994.62 116C995.172 116 995.62 115.552 995.62 115C995.62 114.448 995.172 114 994.62 114V116ZM978.337 114C977.785 114 977.337 114.448 977.337 115C977.337 115.552 977.785 116 978.337 116V114ZM962.054 116C962.607 116 963.054 115.552 963.054 115C963.054 114.448 962.607 114 962.054 114V116ZM945.772 114C945.22 114 944.772 114.448 944.772 115C944.772 115.552 945.22 116 945.772 116V114ZM929.489 116C930.041 116 930.489 115.552 930.489 115C930.489 114.448 930.041 114 929.489 114V116ZM913.207 114C912.654 114 912.207 114.448 912.207 115C912.207 115.552 912.654 116 913.207 116V114ZM896.924 116C897.476 116 897.924 115.552 897.924 115C897.924 114.448 897.476 114 896.924 114V116ZM880.641 114C880.089 114 879.641 114.448 879.641 115C879.641 115.552 880.089 116 880.641 116V114ZM864.359 116C864.911 116 865.359 115.552 865.359 115C865.359 114.448 864.911 114 864.359 114V116ZM848.076 114C847.524 114 847.076 114.448 847.076 115C847.076 115.552 847.524 116 848.076 116V114ZM831.794 116C832.346 116 832.794 115.552 832.794 115C832.794 114.448 832.346 114 831.794 114V116ZM815.511 114C814.959 114 814.511 114.448 814.511 115C814.511 115.552 814.959 116 815.511 116V114ZM799.228 116C799.781 116 800.228 115.552 800.228 115C800.228 114.448 799.781 114 799.228 114V116ZM782.946 114C782.394 114 781.946 114.448 781.946 115C781.946 115.552 782.394 116 782.946 116V114ZM766.663 116C767.216 116 767.663 115.552 767.663 115C767.663 114.448 767.216 114 766.663 114V116ZM750.381 114C749.828 114 749.381 114.448 749.381 115C749.381 115.552 749.828 116 750.381 116V114ZM734.098 116C734.65 116 735.098 115.552 735.098 115C735.098 114.448 734.65 114 734.098 114V116ZM717.815 114C717.263 114 716.815 114.448 716.815 115C716.815 115.552 717.263 116 717.815 116V114ZM701.533 116C702.085 116 702.533 115.552 702.533 115C702.533 114.448 702.085 114 701.533 114V116ZM685.25 114C684.698 114 684.25 114.448 684.25 115C684.25 115.552 684.698 116 685.25 116V114ZM668.968 116C669.52 116 669.968 115.552 669.968 115C669.968 114.448 669.52 114 668.968 114V116ZM652.685 114C652.133 114 651.685 114.448 651.685 115C651.685 115.552 652.133 116 652.685 116V114ZM636.403 116C636.955 116 637.403 115.552 637.403 115C637.403 114.448 636.955 114 636.403 114V116ZM620.12 114C619.568 114 619.12 114.448 619.12 115C619.12 115.552 619.568 116 620.12 116V114ZM603.837 116C604.39 116 604.837 115.552 604.837 115C604.837 114.448 604.39 114 603.837 114V116ZM587.555 114C587.002 114 586.555 114.448 586.555 115C586.555 115.552 587.002 116 587.555 116V114ZM571.272 116C571.824 116 572.272 115.552 572.272 115C572.272 114.448 571.824 114 571.272 114V116ZM554.99 114C554.437 114 553.99 114.448 553.99 115C553.99 115.552 554.437 116 554.99 116V114ZM538.707 116C539.259 116 539.707 115.552 539.707 115C539.707 114.448 539.259 114 538.707 114V116ZM522.424 114C521.872 114 521.424 114.448 521.424 115C521.424 115.552 521.872 116 522.424 116V114ZM506.142 116C506.694 116 507.142 115.552 507.142 115C507.142 114.448 506.694 114 506.142 114V116ZM1248 208V200.25H1246V208H1248ZM1248 184.75V169.25H1246V184.75H1248ZM1248 153.75V138.25H1246V153.75H1248ZM1248 122.75V115H1246V122.75H1248ZM1247 114H1238.86V116H1247V114ZM1222.58 114H1206.29V116H1222.58V114ZM1190.01 114H1173.73V116H1190.01V114ZM1157.45 114H1141.16V116H1157.45V114ZM1124.88 114H1108.6V116H1124.88V114ZM1092.32 114H1076.03V116H1092.32V114ZM1059.75 114H1043.47V116H1059.75V114ZM1027.18 114L1010.9 114V116L1027.18 116V114ZM994.62 114H978.337V116H994.62V114ZM962.054 114H945.772V116H962.054V114ZM929.489 114H913.207V116H929.489V114ZM896.924 114H880.641V116H896.924V114ZM864.359 114H848.076V116H864.359V114ZM831.794 114H815.511V116H831.794V114ZM799.228 114H782.946V116H799.228V114ZM766.663 114H750.381V116H766.663V114ZM734.098 114H717.815V116H734.098V114ZM701.533 114H685.25V116H701.533V114ZM668.968 114H652.685V116H668.968V114ZM636.403 114H620.12V116H636.403V114ZM603.837 114H587.555V116H603.837V114ZM571.272 114L554.99 114V116L571.272 116V114ZM538.707 114H522.424V116H538.707V114ZM506.142 114H498V116H506.142V114ZM1247 115H1249C1249 113.895 1248.1 113 1247 113V115ZM1249 200.25C1249 199.145 1248.1 198.25 1247 198.25C1245.9 198.25 1245 199.145 1245 200.25H1249ZM1245 184.75C1245 185.855 1245.9 186.75 1247 186.75C1248.1 186.75 1249 185.855 1249 184.75H1245ZM1249 169.25C1249 168.145 1248.1 167.25 1247 167.25C1245.9 167.25 1245 168.145 1245 169.25H1249ZM1245 153.75C1245 154.855 1245.9 155.75 1247 155.75C1248.1 155.75 1249 154.855 1249 153.75H1245ZM1249 138.25C1249 137.145 1248.1 136.25 1247 136.25C1245.9 136.25 1245 137.145 1245 138.25H1249ZM1245 122.75C1245 123.855 1245.9 124.75 1247 124.75C1248.1 124.75 1249 123.855 1249 122.75H1245ZM1238.86 113C1237.75 113 1236.86 113.895 1236.86 115C1236.86 116.105 1237.75 117 1238.86 117V113ZM1222.58 117C1223.68 117 1224.58 116.105 1224.58 115C1224.58 113.895 1223.68 113 1222.58 113V117ZM1206.29 113C1205.19 113 1204.29 113.895 1204.29 115C1204.29 116.105 1205.19 117 1206.29 117V113ZM1190.01 117C1191.12 117 1192.01 116.105 1192.01 115C1192.01 113.895 1191.12 113 1190.01 113V117ZM1173.73 113C1172.62 113 1171.73 113.895 1171.73 115C1171.73 116.105 1172.62 117 1173.73 117V113ZM1157.45 117C1158.55 117 1159.45 116.105 1159.45 115C1159.45 113.895 1158.55 113 1157.45 113V117ZM1141.16 113C1140.06 113 1139.16 113.895 1139.16 115C1139.16 116.105 1140.06 117 1141.16 117V113ZM1124.88 117C1125.99 117 1126.88 116.105 1126.88 115C1126.88 113.895 1125.99 113 1124.88 113V117ZM1108.6 113C1107.49 113 1106.6 113.895 1106.6 115C1106.6 116.105 1107.49 117 1108.6 117V113ZM1092.32 117C1093.42 117 1094.32 116.105 1094.32 115C1094.32 113.895 1093.42 113 1092.32 113V117ZM1076.03 113C1074.93 113 1074.03 113.895 1074.03 115C1074.03 116.105 1074.93 117 1076.03 117V113ZM1059.75 117C1060.85 117 1061.75 116.105 1061.75 115C1061.75 113.895 1060.85 113 1059.75 113V117ZM1043.47 113C1042.36 113 1041.47 113.895 1041.47 115C1041.47 116.105 1042.36 117 1043.47 117V113ZM1027.18 117C1028.29 117 1029.18 116.105 1029.18 115C1029.18 113.895 1028.29 113 1027.18 113V117ZM1010.9 113C1009.8 113 1008.9 113.895 1008.9 115C1008.9 116.105 1009.8 117 1010.9 117V113ZM994.62 117C995.724 117 996.62 116.105 996.62 115C996.62 113.895 995.724 113 994.62 113V117ZM978.337 113C977.232 113 976.337 113.895 976.337 115C976.337 116.105 977.232 117 978.337 117V113ZM962.054 117C963.159 117 964.054 116.105 964.054 115C964.054 113.895 963.159 113 962.054 113V117ZM945.772 113C944.667 113 943.772 113.895 943.772 115C943.772 116.105 944.667 117 945.772 117V113ZM929.489 117C930.594 117 931.489 116.105 931.489 115C931.489 113.895 930.594 113 929.489 113V117ZM913.207 113C912.102 113 911.207 113.895 911.207 115C911.207 116.105 912.102 117 913.207 117V113ZM896.924 117C898.029 117 898.924 116.105 898.924 115C898.924 113.895 898.029 113 896.924 113V117ZM880.641 113C879.537 113 878.641 113.895 878.641 115C878.641 116.105 879.537 117 880.641 117V113ZM864.359 117C865.463 117 866.359 116.105 866.359 115C866.359 113.895 865.463 113 864.359 113V117ZM848.076 113C846.972 113 846.076 113.895 846.076 115C846.076 116.105 846.972 117 848.076 117V113ZM831.794 117C832.898 117 833.794 116.105 833.794 115C833.794 113.895 832.898 113 831.794 113V117ZM815.511 113C814.406 113 813.511 113.895 813.511 115C813.511 116.105 814.406 117 815.511 117V113ZM799.228 117C800.333 117 801.228 116.105 801.228 115C801.228 113.895 800.333 113 799.228 113V117ZM782.946 113C781.841 113 780.946 113.895 780.946 115C780.946 116.105 781.841 117 782.946 117V113ZM766.663 117C767.768 117 768.663 116.105 768.663 115C768.663 113.895 767.768 113 766.663 113V117ZM750.381 113C749.276 113 748.381 113.895 748.381 115C748.381 116.105 749.276 117 750.381 117V113ZM734.098 117C735.203 117 736.098 116.105 736.098 115C736.098 113.895 735.203 113 734.098 113V117ZM717.815 113C716.711 113 715.815 113.895 715.815 115C715.815 116.105 716.711 117 717.815 117V113ZM701.533 117C702.638 117 703.533 116.105 703.533 115C703.533 113.895 702.638 113 701.533 113V117ZM685.25 113C684.146 113 683.25 113.895 683.25 115C683.25 116.105 684.146 117 685.25 117V113ZM668.968 117C670.072 117 670.968 116.105 670.968 115C670.968 113.895 670.072 113 668.968 113V117ZM652.685 113C651.581 113 650.685 113.895 650.685 115C650.685 116.105 651.581 117 652.685 117V113ZM636.403 117C637.507 117 638.403 116.105 638.403 115C638.403 113.895 637.507 113 636.403 113V117ZM620.12 113C619.015 113 618.12 113.895 618.12 115C618.12 116.105 619.015 117 620.12 117V113ZM603.837 117C604.942 117 605.837 116.105 605.837 115C605.837 113.895 604.942 113 603.837 113V117ZM587.555 113C586.45 113 585.555 113.895 585.555 115C585.555 116.105 586.45 117 587.555 117V113ZM571.272 117C572.377 117 573.272 116.105 573.272 115C573.272 113.895 572.377 113 571.272 113V117ZM554.99 113C553.885 113 552.99 113.895 552.99 115C552.99 116.105 553.885 117 554.99 117V113ZM538.707 117C539.812 117 540.707 116.105 540.707 115C540.707 113.895 539.812 113 538.707 113V117ZM522.424 113C521.32 113 520.424 113.895 520.424 115C520.424 116.105 521.32 117 522.424 117V113ZM506.142 117C507.246 117 508.142 116.105 508.142 115C508.142 113.895 507.246 113 506.142 113V117ZM1249 208V200.25H1245V208H1249ZM1249 184.75V169.25H1245V184.75H1249ZM1249 153.75V138.25H1245V153.75H1249ZM1249 122.75V115H1245V122.75H1249ZM1247 113H1238.86V117H1247V113ZM1222.58 113H1206.29V117H1222.58V113ZM1190.01 113H1173.73V117H1190.01V113ZM1157.45 113H1141.16V117H1157.45V113ZM1124.88 113H1108.6V117H1124.88V113ZM1092.32 113H1076.03V117H1092.32V113ZM1059.75 113H1043.47V117H1059.75V113ZM1027.18 113L1010.9 113V117L1027.18 117V113ZM994.62 113H978.337V117H994.62V113ZM962.054 113H945.772V117H962.054V113ZM929.489 113H913.207V117H929.489V113ZM896.924 113H880.641V117H896.924V113ZM864.359 113H848.076V117H864.359V113ZM831.794 113H815.511V117H831.794V113ZM799.228 113H782.946V117H799.228V113ZM766.663 113H750.381V117H766.663V113ZM734.098 113H717.815V117H734.098V113ZM701.533 113H685.25V117H701.533V113ZM668.968 113H652.685V117H668.968V113ZM636.403 113H620.12V117H636.403V113ZM603.837 113H587.555V117H603.837V113ZM571.272 113L554.99 113V117L571.272 117V113ZM538.707 113H522.424V117H538.707V113ZM506.142 113H498V117H506.142V113Z" fill="#3C458F"/>
<path d="M1869 96H1870C1870 95.4477 1869.55 95 1869 95V96ZM1870 201C1870 200.448 1869.55 200 1869 200C1868.45 200 1868 200.448 1868 201H1870ZM1868 187C1868 187.552 1868.45 188 1869 188C1869.55 188 1870 187.552 1870 187H1868ZM1870 173C1870 172.448 1869.55 172 1869 172C1868.45 172 1868 172.448 1868 173H1870ZM1868 159C1868 159.552 1868.45 160 1869 160C1869.55 160 1870 159.552 1870 159H1868ZM1870 145C1870 144.448 1869.55 144 1869 144C1868.45 144 1868 144.448 1868 145H1870ZM1868 131C1868 131.552 1868.45 132 1869 132C1869.55 132 1870 131.552 1870 131H1868ZM1870 117C1870 116.448 1869.55 116 1869 116C1868.45 116 1868 116.448 1868 117H1870ZM1868 103C1868 103.552 1868.45 104 1869 104C1869.55 104 1870 103.552 1870 103H1868ZM1860.85 95C1860.3 95 1859.85 95.4477 1859.85 96C1859.85 96.5523 1860.3 97 1860.85 97V95ZM1844.55 97C1845.1 97 1845.55 96.5523 1845.55 96C1845.55 95.4477 1845.1 95 1844.55 95V97ZM1828.25 95C1827.7 95 1827.25 95.4477 1827.25 96C1827.25 96.5523 1827.7 97 1828.25 97V95ZM1811.95 97C1812.5 97 1812.95 96.5523 1812.95 96C1812.95 95.4477 1812.5 95 1811.95 95V97ZM1795.65 95C1795.1 95 1794.65 95.4477 1794.65 96C1794.65 96.5523 1795.1 97 1795.65 97V95ZM1779.35 97C1779.9 97 1780.35 96.5523 1780.35 96C1780.35 95.4477 1779.9 95 1779.35 95V97ZM1763.05 95C1762.5 95 1762.05 95.4477 1762.05 96C1762.05 96.5523 1762.5 97 1763.05 97V95ZM1746.75 97C1747.3 97 1747.75 96.5523 1747.75 96C1747.75 95.4477 1747.3 95 1746.75 95V97ZM1730.45 95C1729.9 95 1729.45 95.4477 1729.45 96C1729.45 96.5523 1729.9 97 1730.45 97V95ZM1714.15 97C1714.7 97 1715.15 96.5523 1715.15 96C1715.15 95.4477 1714.7 95 1714.15 95V97ZM1697.85 95C1697.3 95 1696.85 95.4477 1696.85 96C1696.85 96.5523 1697.3 97 1697.85 97V95ZM1681.55 97C1682.1 97 1682.55 96.5523 1682.55 96C1682.55 95.4477 1682.1 95 1681.55 95V97ZM1665.25 95C1664.7 95 1664.25 95.4477 1664.25 96C1664.25 96.5523 1664.7 97 1665.25 97V95ZM1648.95 97C1649.5 97 1649.95 96.5523 1649.95 96C1649.95 95.4477 1649.5 95 1648.95 95V97ZM1632.65 95C1632.1 95 1631.65 95.4477 1631.65 96C1631.65 96.5523 1632.1 97 1632.65 97V95ZM1616.35 97C1616.9 97 1617.35 96.5523 1617.35 96C1617.35 95.4477 1616.9 95 1616.35 95V97ZM1600.05 95C1599.5 95 1599.05 95.4477 1599.05 96C1599.05 96.5523 1599.5 97 1600.05 97V95ZM1583.75 97C1584.3 97 1584.75 96.5523 1584.75 96C1584.75 95.4477 1584.3 95 1583.75 95V97ZM1567.45 95C1566.9 95 1566.45 95.4477 1566.45 96C1566.45 96.5523 1566.9 97 1567.45 97V95ZM1551.15 97C1551.7 97 1552.15 96.5523 1552.15 96C1552.15 95.4477 1551.7 95 1551.15 95V97ZM1534.85 95C1534.3 95 1533.85 95.4477 1533.85 96C1533.85 96.5523 1534.3 97 1534.85 97V95ZM1518.55 97C1519.1 97 1519.55 96.5523 1519.55 96C1519.55 95.4477 1519.1 95 1518.55 95V97ZM1502.25 95C1501.7 95 1501.25 95.4477 1501.25 96C1501.25 96.5523 1501.7 97 1502.25 97V95ZM1485.95 97C1486.5 97 1486.95 96.5523 1486.95 96C1486.95 95.4477 1486.5 95 1485.95 95V97ZM1469.65 95C1469.1 95 1468.65 95.4477 1468.65 96C1468.65 96.5523 1469.1 97 1469.65 97V95ZM1453.35 97C1453.9 97 1454.35 96.5523 1454.35 96C1454.35 95.4477 1453.9 95 1453.35 95V97ZM1437.05 95C1436.5 95 1436.05 95.4477 1436.05 96C1436.05 96.5523 1436.5 97 1437.05 97V95ZM1420.75 97C1421.3 97 1421.75 96.5523 1421.75 96C1421.75 95.4477 1421.3 95 1420.75 95V97ZM1404.45 95C1403.9 95 1403.45 95.4477 1403.45 96C1403.45 96.5523 1403.9 97 1404.45 97V95ZM1388.15 97C1388.7 97 1389.15 96.5523 1389.15 96C1389.15 95.4477 1388.7 95 1388.15 95V97ZM1371.85 95C1371.3 95 1370.85 95.4477 1370.85 96C1370.85 96.5523 1371.3 97 1371.85 97V95ZM1355.55 97C1356.1 97 1356.55 96.5523 1356.55 96C1356.55 95.4477 1356.1 95 1355.55 95V97ZM1339.25 95C1338.7 95 1338.25 95.4477 1338.25 96C1338.25 96.5523 1338.7 97 1339.25 97V95ZM1322.95 97C1323.5 97 1323.95 96.5523 1323.95 96C1323.95 95.4477 1323.5 95 1322.95 95V97ZM1306.65 95C1306.1 95 1305.65 95.4477 1305.65 96C1305.65 96.5523 1306.1 97 1306.65 97V95ZM1290.35 97C1290.9 97 1291.35 96.5523 1291.35 96C1291.35 95.4477 1290.9 95 1290.35 95V97ZM1274.05 95C1273.5 95 1273.05 95.4477 1273.05 96C1273.05 96.5523 1273.5 97 1274.05 97V95ZM1257.75 97C1258.3 97 1258.75 96.5523 1258.75 96C1258.75 95.4477 1258.3 95 1257.75 95V97ZM1241.45 95C1240.9 95 1240.45 95.4477 1240.45 96C1240.45 96.5523 1240.9 97 1241.45 97V95ZM1225.15 97C1225.7 97 1226.15 96.5523 1226.15 96C1226.15 95.4477 1225.7 95 1225.15 95V97ZM1870 208V201H1868V208H1870ZM1870 187V173H1868V187H1870ZM1870 159V145H1868V159H1870ZM1870 131V117H1868V131H1870ZM1870 103V96H1868V103H1870ZM1869 95H1860.85V97H1869V95ZM1844.55 95H1828.25V97H1844.55V95ZM1811.95 95H1795.65V97H1811.95V95ZM1779.35 95H1763.05V97H1779.35V95ZM1746.75 95H1730.45V97H1746.75V95ZM1714.15 95H1697.85V97H1714.15V95ZM1681.55 95H1665.25V97H1681.55V95ZM1648.95 95L1632.65 95V97L1648.95 97V95ZM1616.35 95H1600.05V97H1616.35V95ZM1583.75 95H1567.45V97H1583.75V95ZM1551.15 95H1534.85V97H1551.15V95ZM1518.55 95H1502.25V97H1518.55V95ZM1485.95 95H1469.65V97H1485.95V95ZM1453.35 95H1437.05V97H1453.35V95ZM1420.75 95H1404.45V97H1420.75V95ZM1388.15 95H1371.85V97H1388.15V95ZM1355.55 95H1339.25V97H1355.55V95ZM1322.95 95H1306.65V97H1322.95V95ZM1290.35 95H1274.05V97H1290.35V95ZM1257.75 95H1241.45V97H1257.75V95ZM1225.15 95H1217V97H1225.15V95ZM1869 96H1871C1871 94.8954 1870.1 94 1869 94V96ZM1871 201C1871 199.895 1870.1 199 1869 199C1867.9 199 1867 199.895 1867 201H1871ZM1867 187C1867 188.105 1867.9 189 1869 189C1870.1 189 1871 188.105 1871 187H1867ZM1871 173C1871 171.895 1870.1 171 1869 171C1867.9 171 1867 171.895 1867 173H1871ZM1867 159C1867 160.105 1867.9 161 1869 161C1870.1 161 1871 160.105 1871 159H1867ZM1871 145C1871 143.895 1870.1 143 1869 143C1867.9 143 1867 143.895 1867 145H1871ZM1867 131C1867 132.105 1867.9 133 1869 133C1870.1 133 1871 132.105 1871 131H1867ZM1871 117C1871 115.895 1870.1 115 1869 115C1867.9 115 1867 115.895 1867 117H1871ZM1867 103C1867 104.105 1867.9 105 1869 105C1870.1 105 1871 104.105 1871 103H1867ZM1860.85 94C1859.75 94 1858.85 94.8954 1858.85 96C1858.85 97.1046 1859.75 98 1860.85 98V94ZM1844.55 98C1845.65 98 1846.55 97.1046 1846.55 96C1846.55 94.8954 1845.65 94 1844.55 94V98ZM1828.25 94C1827.15 94 1826.25 94.8954 1826.25 96C1826.25 97.1046 1827.15 98 1828.25 98V94ZM1811.95 98C1813.05 98 1813.95 97.1046 1813.95 96C1813.95 94.8954 1813.05 94 1811.95 94V98ZM1795.65 94C1794.55 94 1793.65 94.8954 1793.65 96C1793.65 97.1046 1794.55 98 1795.65 98V94ZM1779.35 98C1780.45 98 1781.35 97.1046 1781.35 96C1781.35 94.8954 1780.45 94 1779.35 94V98ZM1763.05 94C1761.95 94 1761.05 94.8954 1761.05 96C1761.05 97.1046 1761.95 98 1763.05 98V94ZM1746.75 98C1747.85 98 1748.75 97.1046 1748.75 96C1748.75 94.8954 1747.85 94 1746.75 94V98ZM1730.45 94C1729.35 94 1728.45 94.8954 1728.45 96C1728.45 97.1046 1729.35 98 1730.45 98V94ZM1714.15 98C1715.25 98 1716.15 97.1046 1716.15 96C1716.15 94.8954 1715.25 94 1714.15 94V98ZM1697.85 94C1696.75 94 1695.85 94.8954 1695.85 96C1695.85 97.1046 1696.75 98 1697.85 98V94ZM1681.55 98C1682.65 98 1683.55 97.1046 1683.55 96C1683.55 94.8954 1682.65 94 1681.55 94V98ZM1665.25 94C1664.15 94 1663.25 94.8954 1663.25 96C1663.25 97.1046 1664.15 98 1665.25 98V94ZM1648.95 98C1650.05 98 1650.95 97.1046 1650.95 96C1650.95 94.8954 1650.05 94 1648.95 94V98ZM1632.65 94C1631.55 94 1630.65 94.8954 1630.65 96C1630.65 97.1046 1631.55 98 1632.65 98V94ZM1616.35 98C1617.45 98 1618.35 97.1046 1618.35 96C1618.35 94.8954 1617.45 94 1616.35 94V98ZM1600.05 94C1598.95 94 1598.05 94.8954 1598.05 96C1598.05 97.1046 1598.95 98 1600.05 98V94ZM1583.75 98C1584.85 98 1585.75 97.1046 1585.75 96C1585.75 94.8954 1584.85 94 1583.75 94V98ZM1567.45 94C1566.35 94 1565.45 94.8954 1565.45 96C1565.45 97.1046 1566.35 98 1567.45 98V94ZM1551.15 98C1552.25 98 1553.15 97.1046 1553.15 96C1553.15 94.8954 1552.25 94 1551.15 94V98ZM1534.85 94C1533.75 94 1532.85 94.8954 1532.85 96C1532.85 97.1046 1533.75 98 1534.85 98V94ZM1518.55 98C1519.65 98 1520.55 97.1046 1520.55 96C1520.55 94.8954 1519.65 94 1518.55 94V98ZM1502.25 94C1501.15 94 1500.25 94.8954 1500.25 96C1500.25 97.1046 1501.15 98 1502.25 98V94ZM1485.95 98C1487.05 98 1487.95 97.1046 1487.95 96C1487.95 94.8954 1487.05 94 1485.95 94V98ZM1469.65 94C1468.55 94 1467.65 94.8954 1467.65 96C1467.65 97.1046 1468.55 98 1469.65 98V94ZM1453.35 98C1454.45 98 1455.35 97.1046 1455.35 96C1455.35 94.8954 1454.45 94 1453.35 94V98ZM1437.05 94C1435.95 94 1435.05 94.8954 1435.05 96C1435.05 97.1046 1435.95 98 1437.05 98V94ZM1420.75 98C1421.85 98 1422.75 97.1046 1422.75 96C1422.75 94.8954 1421.85 94 1420.75 94V98ZM1404.45 94C1403.35 94 1402.45 94.8954 1402.45 96C1402.45 97.1046 1403.35 98 1404.45 98V94ZM1388.15 98C1389.25 98 1390.15 97.1046 1390.15 96C1390.15 94.8954 1389.25 94 1388.15 94V98ZM1371.85 94C1370.75 94 1369.85 94.8954 1369.85 96C1369.85 97.1046 1370.75 98 1371.85 98V94ZM1355.55 98C1356.65 98 1357.55 97.1046 1357.55 96C1357.55 94.8954 1356.65 94 1355.55 94V98ZM1339.25 94C1338.15 94 1337.25 94.8954 1337.25 96C1337.25 97.1046 1338.15 98 1339.25 98V94ZM1322.95 98C1324.05 98 1324.95 97.1046 1324.95 96C1324.95 94.8954 1324.05 94 1322.95 94V98ZM1306.65 94C1305.55 94 1304.65 94.8954 1304.65 96C1304.65 97.1046 1305.55 98 1306.65 98V94ZM1290.35 98C1291.45 98 1292.35 97.1046 1292.35 96C1292.35 94.8954 1291.45 94 1290.35 94V98ZM1274.05 94C1272.95 94 1272.05 94.8954 1272.05 96C1272.05 97.1046 1272.95 98 1274.05 98V94ZM1257.75 98C1258.85 98 1259.75 97.1046 1259.75 96C1259.75 94.8954 1258.85 94 1257.75 94V98ZM1241.45 94C1240.35 94 1239.45 94.8954 1239.45 96C1239.45 97.1046 1240.35 98 1241.45 98V94ZM1225.15 98C1226.25 98 1227.15 97.1046 1227.15 96C1227.15 94.8954 1226.25 94 1225.15 94V98ZM1871 208V201H1867V208H1871ZM1871 187V173H1867V187H1871ZM1871 159V145H1867V159H1871ZM1871 131V117H1867V131H1871ZM1871 103V96H1867V103H1871ZM1869 94H1860.85V98H1869V94ZM1844.55 94H1828.25V98H1844.55V94ZM1811.95 94H1795.65V98H1811.95V94ZM1779.35 94H1763.05V98H1779.35V94ZM1746.75 94H1730.45V98H1746.75V94ZM1714.15 94H1697.85V98H1714.15V94ZM1681.55 94H1665.25V98H1681.55V94ZM1648.95 94L1632.65 94V98L1648.95 98V94ZM1616.35 94H1600.05V98H1616.35V94ZM1583.75 94H1567.45V98H1583.75V94ZM1551.15 94H1534.85V98H1551.15V94ZM1518.55 94H1502.25V98H1518.55V94ZM1485.95 94H1469.65V98H1485.95V94ZM1453.35 94H1437.05V98H1453.35V94ZM1420.75 94H1404.45V98H1420.75V94ZM1388.15 94H1371.85V98H1388.15V94ZM1355.55 94H1339.25V98H1355.55V94ZM1322.95 94H1306.65V98H1322.95V94ZM1290.35 94H1274.05V98H1290.35V94ZM1257.75 94H1241.45V98H1257.75V94ZM1225.15 94H1217V98H1225.15V94Z" fill="#3C458F"/>
<path d="M626 96H625C625 95.4477 625.448 95 626 95V96ZM625 201C625 200.448 625.448 200 626 200C626.552 200 627 200.448 627 201H625ZM627 187C627 187.552 626.552 188 626 188C625.448 188 625 187.552 625 187H627ZM625 173C625 172.448 625.448 172 626 172C626.552 172 627 172.448 627 173H625ZM627 159C627 159.552 626.552 160 626 160C625.448 160 625 159.552 625 159H627ZM625 145C625 144.448 625.448 144 626 144C626.552 144 627 144.448 627 145H625ZM627 131C627 131.552 626.552 132 626 132C625.448 132 625 131.552 625 131H627ZM625 117C625 116.448 625.448 116 626 116C626.552 116 627 116.448 627 117H625ZM627 103C627 103.552 626.552 104 626 104C625.448 104 625 103.552 625 103H627ZM633.861 95C634.413 95 634.861 95.4477 634.861 96C634.861 96.5523 634.413 97 633.861 97V95ZM649.583 97C649.031 97 648.583 96.5523 648.583 96C648.583 95.4477 649.031 95 649.583 95V97ZM665.306 95C665.858 95 666.306 95.4477 666.306 96C666.306 96.5523 665.858 97 665.306 97V95ZM681.028 97C680.475 97 680.028 96.5523 680.028 96C680.028 95.4477 680.475 95 681.028 95V97ZM696.75 95C697.302 95 697.75 95.4477 697.75 96C697.75 96.5523 697.302 97 696.75 97V95ZM712.472 97C711.92 97 711.472 96.5523 711.472 96C711.472 95.4477 711.92 95 712.472 95V97ZM728.194 95C728.747 95 729.194 95.4477 729.194 96C729.194 96.5523 728.747 97 728.194 97V95ZM743.917 97C743.364 97 742.917 96.5523 742.917 96C742.917 95.4477 743.364 95 743.917 95V97ZM759.639 95C760.191 95 760.639 95.4477 760.639 96C760.639 96.5523 760.191 97 759.639 97V95ZM775.361 97C774.809 97 774.361 96.5523 774.361 96C774.361 95.4477 774.809 95 775.361 95V97ZM791.083 95C791.636 95 792.083 95.4477 792.083 96C792.083 96.5523 791.636 97 791.083 97V95ZM806.806 97C806.253 97 805.806 96.5523 805.806 96C805.806 95.4477 806.253 95 806.806 95V97ZM822.528 95C823.08 95 823.528 95.4477 823.528 96C823.528 96.5523 823.08 97 822.528 97V95ZM838.25 97C837.698 97 837.25 96.5523 837.25 96C837.25 95.4477 837.698 95 838.25 95V97ZM853.972 95C854.525 95 854.972 95.4477 854.972 96C854.972 96.5523 854.525 97 853.972 97V95ZM869.694 97C869.142 97 868.694 96.5523 868.694 96C868.694 95.4477 869.142 95 869.694 95V97ZM885.417 95C885.969 95 886.417 95.4477 886.417 96C886.417 96.5523 885.969 97 885.417 97V95ZM901.139 97C900.587 97 900.139 96.5523 900.139 96C900.139 95.4477 900.587 95 901.139 95V97ZM916.861 95C917.413 95 917.861 95.4477 917.861 96C917.861 96.5523 917.413 97 916.861 97V95ZM932.583 97C932.031 97 931.583 96.5523 931.583 96C931.583 95.4477 932.031 95 932.583 95V97ZM948.306 95C948.858 95 949.306 95.4477 949.306 96C949.306 96.5523 948.858 97 948.306 97V95ZM964.028 97C963.476 97 963.028 96.5523 963.028 96C963.028 95.4477 963.476 95 964.028 95V97ZM979.75 95C980.302 95 980.75 95.4477 980.75 96C980.75 96.5523 980.302 97 979.75 97V95ZM995.472 97C994.92 97 994.472 96.5523 994.472 96C994.472 95.4477 994.92 95 995.472 95V97ZM1011.19 95C1011.75 95 1012.19 95.4477 1012.19 96C1012.19 96.5523 1011.75 97 1011.19 97V95ZM1026.92 97C1026.36 97 1025.92 96.5523 1025.92 96C1025.92 95.4477 1026.36 95 1026.92 95V97ZM1042.64 95C1043.19 95 1043.64 95.4477 1043.64 96C1043.64 96.5523 1043.19 97 1042.64 97V95ZM1058.36 97C1057.81 97 1057.36 96.5523 1057.36 96C1057.36 95.4477 1057.81 95 1058.36 95V97ZM1074.08 95C1074.64 95 1075.08 95.4477 1075.08 96C1075.08 96.5523 1074.64 97 1074.08 97V95ZM1089.81 97C1089.25 97 1088.81 96.5523 1088.81 96C1088.81 95.4477 1089.25 95 1089.81 95V97ZM1105.53 95C1106.08 95 1106.53 95.4477 1106.53 96C1106.53 96.5523 1106.08 97 1105.53 97V95ZM1121.25 97C1120.7 97 1120.25 96.5523 1120.25 96C1120.25 95.4477 1120.7 95 1121.25 95V97ZM1136.97 95C1137.52 95 1137.97 95.4477 1137.97 96C1137.97 96.5523 1137.52 97 1136.97 97V95ZM1152.69 97C1152.14 97 1151.69 96.5523 1151.69 96C1151.69 95.4477 1152.14 95 1152.69 95V97ZM1168.42 95C1168.97 95 1169.42 95.4477 1169.42 96C1169.42 96.5523 1168.97 97 1168.42 97V95ZM1184.14 97C1183.59 97 1183.14 96.5523 1183.14 96C1183.14 95.4477 1183.59 95 1184.14 95V97ZM625 208V201H627V208H625ZM625 187V173H627V187H625ZM625 159V145H627V159H625ZM625 131V117H627V131H625ZM625 103V96H627V103H625ZM626 95H633.861V97H626V95ZM649.583 95H665.306V97H649.583V95ZM681.028 95H696.75V97H681.028V95ZM712.472 95H728.194V97H712.472V95ZM743.917 95H759.639V97H743.917V95ZM775.361 95H791.083V97H775.361V95ZM806.806 95H822.528V97H806.806V95ZM838.25 95H853.972V97H838.25V95ZM869.694 95H885.417V97H869.694V95ZM901.139 95H916.861V97H901.139V95ZM932.583 95H948.306V97H932.583V95ZM964.028 95H979.75V97H964.028V95ZM995.472 95L1011.19 95V97L995.472 97V95ZM1026.92 95H1042.64V97H1026.92V95ZM1058.36 95H1074.08V97H1058.36V95ZM1089.81 95H1105.53V97H1089.81V95ZM1121.25 95H1136.97V97H1121.25V95ZM1152.69 95L1168.42 95V97L1152.69 97V95ZM1184.14 95H1192V97H1184.14V95ZM626 96H624C624 94.8954 624.895 94 626 94V96ZM624 201C624 199.895 624.895 199 626 199C627.105 199 628 199.895 628 201H624ZM628 187C628 188.105 627.105 189 626 189C624.895 189 624 188.105 624 187H628ZM624 173C624 171.895 624.895 171 626 171C627.105 171 628 171.895 628 173H624ZM628 159C628 160.105 627.105 161 626 161C624.895 161 624 160.105 624 159H628ZM624 145C624 143.895 624.895 143 626 143C627.105 143 628 143.895 628 145H624ZM628 131C628 132.105 627.105 133 626 133C624.895 133 624 132.105 624 131H628ZM624 117C624 115.895 624.895 115 626 115C627.105 115 628 115.895 628 117H624ZM628 103C628 104.105 627.105 105 626 105C624.895 105 624 104.105 624 103H628ZM633.861 94C634.966 94 635.861 94.8954 635.861 96C635.861 97.1046 634.966 98 633.861 98V94ZM649.583 98C648.479 98 647.583 97.1046 647.583 96C647.583 94.8954 648.479 94 649.583 94V98ZM665.306 94C666.41 94 667.306 94.8954 667.306 96C667.306 97.1046 666.41 98 665.306 98V94ZM681.028 98C679.923 98 679.028 97.1046 679.028 96C679.028 94.8954 679.923 94 681.028 94V98ZM696.75 94C697.855 94 698.75 94.8954 698.75 96C698.75 97.1046 697.855 98 696.75 98V94ZM712.472 98C711.368 98 710.472 97.1046 710.472 96C710.472 94.8954 711.368 94 712.472 94V98ZM728.194 94C729.299 94 730.194 94.8954 730.194 96C730.194 97.1046 729.299 98 728.194 98V94ZM743.917 98C742.812 98 741.917 97.1046 741.917 96C741.917 94.8954 742.812 94 743.917 94V98ZM759.639 94C760.743 94 761.639 94.8954 761.639 96C761.639 97.1046 760.743 98 759.639 98V94ZM775.361 98C774.257 98 773.361 97.1046 773.361 96C773.361 94.8954 774.257 94 775.361 94V98ZM791.083 94C792.188 94 793.083 94.8954 793.083 96C793.083 97.1046 792.188 98 791.083 98V94ZM806.806 98C805.701 98 804.806 97.1046 804.806 96C804.806 94.8954 805.701 94 806.806 94V98ZM822.528 94C823.632 94 824.528 94.8954 824.528 96C824.528 97.1046 823.632 98 822.528 98V94ZM838.25 98C837.145 98 836.25 97.1046 836.25 96C836.25 94.8954 837.145 94 838.25 94V98ZM853.972 94C855.077 94 855.972 94.8954 855.972 96C855.972 97.1046 855.077 98 853.972 98V94ZM869.694 98C868.59 98 867.694 97.1046 867.694 96C867.694 94.8954 868.59 94 869.694 94V98ZM885.417 94C886.521 94 887.417 94.8954 887.417 96C887.417 97.1046 886.521 98 885.417 98V94ZM901.139 98C900.034 98 899.139 97.1046 899.139 96C899.139 94.8954 900.034 94 901.139 94V98ZM916.861 94C917.966 94 918.861 94.8954 918.861 96C918.861 97.1046 917.966 98 916.861 98V94ZM932.583 98C931.479 98 930.583 97.1046 930.583 96C930.583 94.8954 931.479 94 932.583 94V98ZM948.306 94C949.41 94 950.306 94.8954 950.306 96C950.306 97.1046 949.41 98 948.306 98V94ZM964.028 98C962.923 98 962.028 97.1046 962.028 96C962.028 94.8954 962.923 94 964.028 94V98ZM979.75 94C980.855 94 981.75 94.8954 981.75 96C981.75 97.1046 980.855 98 979.75 98V94ZM995.472 98C994.368 98 993.472 97.1046 993.472 96C993.472 94.8954 994.368 94 995.472 94V98ZM1011.19 94C1012.3 94 1013.19 94.8954 1013.19 96C1013.19 97.1046 1012.3 98 1011.19 98V94ZM1026.92 98C1025.81 98 1024.92 97.1046 1024.92 96C1024.92 94.8954 1025.81 94 1026.92 94V98ZM1042.64 94C1043.74 94 1044.64 94.8954 1044.64 96C1044.64 97.1046 1043.74 98 1042.64 98V94ZM1058.36 98C1057.26 98 1056.36 97.1046 1056.36 96C1056.36 94.8954 1057.26 94 1058.36 94V98ZM1074.08 94C1075.19 94 1076.08 94.8954 1076.08 96C1076.08 97.1046 1075.19 98 1074.08 98V94ZM1089.81 98C1088.7 98 1087.81 97.1046 1087.81 96C1087.81 94.8954 1088.7 94 1089.81 94V98ZM1105.53 94C1106.63 94 1107.53 94.8954 1107.53 96C1107.53 97.1046 1106.63 98 1105.53 98V94ZM1121.25 98C1120.15 98 1119.25 97.1046 1119.25 96C1119.25 94.8954 1120.15 94 1121.25 94V98ZM1136.97 94C1138.08 94 1138.97 94.8954 1138.97 96C1138.97 97.1046 1138.08 98 1136.97 98V94ZM1152.69 98C1151.59 98 1150.69 97.1046 1150.69 96C1150.69 94.8954 1151.59 94 1152.69 94V98ZM1168.42 94C1169.52 94 1170.42 94.8954 1170.42 96C1170.42 97.1046 1169.52 98 1168.42 98V94ZM1184.14 98C1183.03 98 1182.14 97.1046 1182.14 96C1182.14 94.8954 1183.03 94 1184.14 94V98ZM624 208V201H628V208H624ZM624 187V173H628V187H624ZM624 159V145H628V159H624ZM624 131V117H628V131H624ZM624 103V96H628V103H624ZM626 94H633.861V98H626V94ZM649.583 94H665.306V98H649.583V94ZM681.028 94H696.75V98H681.028V94ZM712.472 94H728.194V98H712.472V94ZM743.917 94H759.639V98H743.917V94ZM775.361 94H791.083V98H775.361V94ZM806.806 94H822.528V98H806.806V94ZM838.25 94H853.972V98H838.25V94ZM869.694 94H885.417V98H869.694V94ZM901.139 94H916.861V98H901.139V94ZM932.583 94H948.306V98H932.583V94ZM964.028 94H979.75V98H964.028V94ZM995.472 94L1011.19 94V98L995.472 98V94ZM1026.92 94H1042.64V98H1026.92V94ZM1058.36 94H1074.08V98H1058.36V94ZM1089.81 94H1105.53V98H1089.81V94ZM1121.25 94H1136.97V98H1121.25V94ZM1152.69 94L1168.42 94V98L1152.69 98V94ZM1184.14 94H1192V98H1184.14V94Z" fill="#3C458F"/>
<path d="M2 115V114C1.44772 114 1 114.448 1 115H2ZM490.25 114C489.698 114 489.25 114.448 489.25 115C489.25 115.552 489.698 116 490.25 116V114ZM474.75 116C475.302 116 475.75 115.552 475.75 115C475.75 114.448 475.302 114 474.75 114V116ZM459.25 114C458.698 114 458.25 114.448 458.25 115C458.25 115.552 458.698 116 459.25 116V114ZM443.75 116C444.302 116 444.75 115.552 444.75 115C444.75 114.448 444.302 114 443.75 114V116ZM428.25 114C427.698 114 427.25 114.448 427.25 115C427.25 115.552 427.698 116 428.25 116V114ZM412.75 116C413.302 116 413.75 115.552 413.75 115C413.75 114.448 413.302 114 412.75 114V116ZM397.25 114C396.698 114 396.25 114.448 396.25 115C396.25 115.552 396.698 116 397.25 116V114ZM381.75 116C382.302 116 382.75 115.552 382.75 115C382.75 114.448 382.302 114 381.75 114V116ZM366.25 114C365.698 114 365.25 114.448 365.25 115C365.25 115.552 365.698 116 366.25 116V114ZM350.75 116C351.302 116 351.75 115.552 351.75 115C351.75 114.448 351.302 114 350.75 114V116ZM335.25 114C334.698 114 334.25 114.448 334.25 115C334.25 115.552 334.698 116 335.25 116V114ZM319.75 116C320.302 116 320.75 115.552 320.75 115C320.75 114.448 320.302 114 319.75 114V116ZM304.25 114C303.698 114 303.25 114.448 303.25 115C303.25 115.552 303.698 116 304.25 116V114ZM288.75 116C289.302 116 289.75 115.552 289.75 115C289.75 114.448 289.302 114 288.75 114V116ZM273.25 114C272.698 114 272.25 114.448 272.25 115C272.25 115.552 272.698 116 273.25 116V114ZM257.75 116C258.302 116 258.75 115.552 258.75 115C258.75 114.448 258.302 114 257.75 114V116ZM242.25 114C241.698 114 241.25 114.448 241.25 115C241.25 115.552 241.698 116 242.25 116V114ZM226.75 116C227.302 116 227.75 115.552 227.75 115C227.75 114.448 227.302 114 226.75 114V116ZM211.25 114C210.698 114 210.25 114.448 210.25 115C210.25 115.552 210.698 116 211.25 116V114ZM195.75 116C196.302 116 196.75 115.552 196.75 115C196.75 114.448 196.302 114 195.75 114V116ZM180.25 114C179.698 114 179.25 114.448 179.25 115C179.25 115.552 179.698 116 180.25 116V114ZM164.75 116C165.302 116 165.75 115.552 165.75 115C165.75 114.448 165.302 114 164.75 114V116ZM149.25 114C148.698 114 148.25 114.448 148.25 115C148.25 115.552 148.698 116 149.25 116V114ZM133.75 116C134.302 116 134.75 115.552 134.75 115C134.75 114.448 134.302 114 133.75 114V116ZM118.25 114C117.698 114 117.25 114.448 117.25 115C117.25 115.552 117.698 116 118.25 116V114ZM102.75 116C103.302 116 103.75 115.552 103.75 115C103.75 114.448 103.302 114 102.75 114V116ZM87.25 114C86.6977 114 86.25 114.448 86.25 115C86.25 115.552 86.6977 116 87.25 116V114ZM71.75 116C72.3023 116 72.75 115.552 72.75 115C72.75 114.448 72.3023 114 71.75 114V116ZM56.25 114C55.6977 114 55.25 114.448 55.25 115C55.25 115.552 55.6977 116 56.25 116V114ZM40.75 116C41.3023 116 41.75 115.552 41.75 115C41.75 114.448 41.3023 114 40.75 114V116ZM25.25 114C24.6977 114 24.25 114.448 24.25 115C24.25 115.552 24.6977 116 25.25 116V114ZM9.75 116C10.3023 116 10.75 115.552 10.75 115C10.75 114.448 10.3023 114 9.75 114V116ZM1 122.75C1 123.302 1.44772 123.75 2 123.75C2.55228 123.75 3 123.302 3 122.75H1ZM3 138.25C3 137.698 2.55228 137.25 2 137.25C1.44772 137.25 1 137.698 1 138.25H3ZM1 153.75C1 154.302 1.44772 154.75 2 154.75C2.55228 154.75 3 154.302 3 153.75H1ZM3 169.25C3 168.698 2.55228 168.25 2 168.25C1.44772 168.25 1 168.698 1 169.25H3ZM1 184.75C1 185.302 1.44772 185.75 2 185.75C2.55228 185.75 3 185.302 3 184.75H1ZM3 200.25C3 199.698 2.55228 199.25 2 199.25C1.44772 199.25 1 199.698 1 200.25H3ZM498 114H490.25V116H498V114ZM474.75 114H459.25V116H474.75V114ZM443.75 114H428.25V116H443.75V114ZM412.75 114H397.25V116H412.75V114ZM381.75 114H366.25V116H381.75V114ZM350.75 114H335.25V116H350.75V114ZM319.75 114H304.25V116H319.75V114ZM288.75 114H273.25V116H288.75V114ZM257.75 114H242.25V116H257.75V114ZM226.75 114H211.25V116H226.75V114ZM195.75 114H180.25V116H195.75V114ZM164.75 114H149.25V116H164.75V114ZM133.75 114H118.25V116H133.75V114ZM102.75 114H87.25V116H102.75V114ZM71.75 114H56.25V116H71.75V114ZM40.75 114H25.25V116H40.75V114ZM9.75 114H2V116H9.75V114ZM1 115V122.75H3V115H1ZM1 138.25V153.75H3V138.25H1ZM1 169.25V184.75H3V169.25H1ZM1 200.25V208H3V200.25H1ZM2 115V113C0.895431 113 0 113.895 0 115H2ZM490.25 113C489.145 113 488.25 113.895 488.25 115C488.25 116.105 489.145 117 490.25 117V113ZM474.75 117C475.855 117 476.75 116.105 476.75 115C476.75 113.895 475.855 113 474.75 113V117ZM459.25 113C458.145 113 457.25 113.895 457.25 115C457.25 116.105 458.145 117 459.25 117V113ZM443.75 117C444.855 117 445.75 116.105 445.75 115C445.75 113.895 444.855 113 443.75 113V117ZM428.25 113C427.145 113 426.25 113.895 426.25 115C426.25 116.105 427.145 117 428.25 117V113ZM412.75 117C413.855 117 414.75 116.105 414.75 115C414.75 113.895 413.855 113 412.75 113V117ZM397.25 113C396.145 113 395.25 113.895 395.25 115C395.25 116.105 396.145 117 397.25 117V113ZM381.75 117C382.855 117 383.75 116.105 383.75 115C383.75 113.895 382.855 113 381.75 113V117ZM366.25 113C365.145 113 364.25 113.895 364.25 115C364.25 116.105 365.145 117 366.25 117V113ZM350.75 117C351.855 117 352.75 116.105 352.75 115C352.75 113.895 351.855 113 350.75 113V117ZM335.25 113C334.145 113 333.25 113.895 333.25 115C333.25 116.105 334.145 117 335.25 117V113ZM319.75 117C320.855 117 321.75 116.105 321.75 115C321.75 113.895 320.855 113 319.75 113V117ZM304.25 113C303.145 113 302.25 113.895 302.25 115C302.25 116.105 303.145 117 304.25 117V113ZM288.75 117C289.855 117 290.75 116.105 290.75 115C290.75 113.895 289.855 113 288.75 113V117ZM273.25 113C272.145 113 271.25 113.895 271.25 115C271.25 116.105 272.145 117 273.25 117V113ZM257.75 117C258.855 117 259.75 116.105 259.75 115C259.75 113.895 258.855 113 257.75 113V117ZM242.25 113C241.145 113 240.25 113.895 240.25 115C240.25 116.105 241.145 117 242.25 117V113ZM226.75 117C227.855 117 228.75 116.105 228.75 115C228.75 113.895 227.855 113 226.75 113V117ZM211.25 113C210.145 113 209.25 113.895 209.25 115C209.25 116.105 210.145 117 211.25 117V113ZM195.75 117C196.855 117 197.75 116.105 197.75 115C197.75 113.895 196.855 113 195.75 113V117ZM180.25 113C179.145 113 178.25 113.895 178.25 115C178.25 116.105 179.145 117 180.25 117V113ZM164.75 117C165.855 117 166.75 116.105 166.75 115C166.75 113.895 165.855 113 164.75 113V117ZM149.25 113C148.145 113 147.25 113.895 147.25 115C147.25 116.105 148.145 117 149.25 117V113ZM133.75 117C134.855 117 135.75 116.105 135.75 115C135.75 113.895 134.855 113 133.75 113V117ZM118.25 113C117.145 113 116.25 113.895 116.25 115C116.25 116.105 117.145 117 118.25 117V113ZM102.75 117C103.855 117 104.75 116.105 104.75 115C104.75 113.895 103.855 113 102.75 113V117ZM87.25 113C86.1454 113 85.25 113.895 85.25 115C85.25 116.105 86.1454 117 87.25 117V113ZM71.75 117C72.8546 117 73.75 116.105 73.75 115C73.75 113.895 72.8546 113 71.75 113V117ZM56.25 113C55.1454 113 54.25 113.895 54.25 115C54.25 116.105 55.1454 117 56.25 117V113ZM40.75 117C41.8546 117 42.75 116.105 42.75 115C42.75 113.895 41.8546 113 40.75 113V117ZM25.25 113C24.1454 113 23.25 113.895 23.25 115C23.25 116.105 24.1454 117 25.25 117V113ZM9.75 117C10.8546 117 11.75 116.105 11.75 115C11.75 113.895 10.8546 113 9.75 113V117ZM0 122.75C0 123.855 0.895431 124.75 2 124.75C3.10457 124.75 4 123.855 4 122.75H0ZM4 138.25C4 137.145 3.10457 136.25 2 136.25C0.895431 136.25 0 137.145 0 138.25H4ZM0 153.75C0 154.855 0.895431 155.75 2 155.75C3.10457 155.75 4 154.855 4 153.75H0ZM4 169.25C4 168.145 3.10457 167.25 2 167.25C0.895431 167.25 0 168.145 0 169.25H4ZM0 184.75C0 185.855 0.895431 186.75 2 186.75C3.10457 186.75 4 185.855 4 184.75H0ZM4 200.25C4 199.145 3.10457 198.25 2 198.25C0.895431 198.25 0 199.145 0 200.25H4ZM498 113H490.25V117H498V113ZM474.75 113H459.25V117H474.75V113ZM443.75 113H428.25V117H443.75V113ZM412.75 113H397.25V117H412.75V113ZM381.75 113H366.25V117H381.75V113ZM350.75 113H335.25V117H350.75V113ZM319.75 113H304.25V117H319.75V113ZM288.75 113H273.25V117H288.75V113ZM257.75 113H242.25V117H257.75V113ZM226.75 113H211.25V117H226.75V113ZM195.75 113H180.25V117H195.75V113ZM164.75 113H149.25V117H164.75V113ZM133.75 113H118.25V117H133.75V113ZM102.75 113H87.25V117H102.75V113ZM71.75 113H56.25V117H71.75V113ZM40.75 113H25.25V117H40.75V113ZM9.75 113H2V117H9.75V113ZM0 115V122.75H4V115H0ZM0 138.25V153.75H4V138.25H0ZM0 169.25V184.75H4V169.25H0ZM0 200.25V208H4V200.25H0Z" fill="#3C458F"/>
</svg>
