<svg width="100%" viewBox="0 0 571 431" fill="none" xmlns="http://www.w3.org/2000/svg">
            <rect x="348.5" y="69.5" width="159" height="99" fill="#C4C4C4" stroke="black" />
            <rect x="63.5" y="69.5" width="159" height="99" fill="#C4C4C4" stroke="black" />
            <rect x="15.5" y="213.5" width="540" height="202" fill="#E0DBDB" stroke="black" />
            <rect width="3" height="9" transform="matrix(1 0 0 -1 176 313)" fill="#858384" />
            <rect x="0.5" y="198.5" width="570" height="231" stroke="black" stroke-dasharray="10 10" />
            <path fill-rule="evenodd" clip-rule="evenodd" d="M145 268.053L142.402 269.553L139.902 265.222L137.305 266.722L131.305 256.33L133.902 254.83L131.402 250.5L134 249L145 268.053Z" fill="#858384" />
            <rect width="3" height="10" transform="matrix(1 0 0 -1 142 278)" fill="#858384" />
            <path d="M146.5 279.041C146.5 280.698 145.157 282.041 143.5 282.041C141.843 282.041 140.5 280.698 140.5 279.041C140.5 277.385 141.843 276.041 143.5 276.041C145.157 276.041 146.5 277.385 146.5 279.041Z" fill="#858384" />
            <path d="M136.5 279C136.5 280.857 137.237 282.637 138.55 283.95C139.863 285.263 141.643 286 143.5 286C145.357 286 147.137 285.263 148.45 283.95C149.763 282.637 150.5 280.857 150.5 279L148.172 279C148.172 280.239 147.68 281.427 146.803 282.303C145.927 283.18 144.739 283.672 143.5 283.672C142.261 283.672 141.073 283.18 140.197 282.303C139.32 281.427 138.828 280.239 138.828 279L136.5 279Z" fill="#858384" />
            <rect width="3" height="8" transform="matrix(1 0 0 -1 142 226)" fill="#858384" />
            <rect width="3" height="14" transform="matrix(1 0 0 -1 142 248)" fill="#858384" />
            <path d="M146.5 231.959C146.5 233.615 145.157 234.959 143.5 234.959C141.843 234.959 140.5 233.615 140.5 231.959C140.5 230.302 141.843 228.959 143.5 228.959C145.157 228.959 146.5 230.302 146.5 231.959Z" fill="#858384" />
            <path d="M150.5 232C150.5 230.143 149.763 228.363 148.45 227.05C147.137 225.737 145.357 225 143.5 225C141.643 225 139.863 225.737 138.55 227.05C137.237 228.363 136.5 230.143 136.5 232L138.828 232C138.828 230.761 139.32 229.573 140.197 228.697C141.073 227.82 142.261 227.328 143.5 227.328C144.739 227.328 145.927 227.82 146.803 228.697C147.68 229.573 148.172 230.761 148.172 232H150.5Z" fill="#858384" />
            <rect x="140" y="247" width="7" height="2" fill="#858384" />
            <path d="M145 250C145 250.828 144.328 251.5 143.5 251.5C142.672 251.5 142 250.828 142 250C142 249.172 142.672 248.5 143.5 248.5C144.328 248.5 145 249.172 145 250Z" stroke="#858384" />
            <rect width="3" height="8" transform="matrix(1 0 0 -1 426.5 226)" fill="#858384" />
            <rect width="3" height="14" transform="matrix(1 0 0 -1 426.5 248)" fill="#858384" />
            <path d="M431 231.959C431 233.615 429.657 234.959 428 234.959C426.343 234.959 425 233.615 425 231.959C425 230.302 426.343 228.959 428 228.959C429.657 228.959 431 230.302 431 231.959Z" fill="#858384" />
            <path d="M435 232C435 230.143 434.263 228.363 432.95 227.05C431.637 225.737 429.857 225 428 225C426.143 225 424.363 225.737 423.05 227.05C421.737 228.363 421 230.143 421 232L423.328 232C423.328 230.761 423.82 229.573 424.697 228.697C425.573 227.82 426.761 227.328 428 227.328C429.239 227.328 430.427 227.82 431.303 228.697C432.18 229.573 432.672 230.761 432.672 232H435Z" fill="#858384" />
            <rect x="424.5" y="247" width="7" height="2" fill="#858384" />
            <path d="M429.5 250C429.5 250.828 428.828 251.5 428 251.5C427.172 251.5 426.5 250.828 426.5 250C426.5 249.172 427.172 248.5 428 248.5C428.828 248.5 429.5 249.172 429.5 250Z" stroke="#858384" />
            <rect width="3" height="8" transform="matrix(1 0 0 -1 156.5 318)" fill="#858384" />
            <rect width="3" height="14" transform="matrix(1 0 0 -1 156.5 340)" fill="#858384" />
            <path d="M161 323.959C161 325.615 159.657 326.959 158 326.959C156.343 326.959 155 325.615 155 323.959C155 322.302 156.343 320.959 158 320.959C159.657 320.959 161 322.302 161 323.959Z" fill="#858384" />
            <path d="M165 324C165 322.143 164.263 320.363 162.95 319.05C161.637 317.737 159.857 317 158 317C156.143 317 154.363 317.737 153.05 319.05C151.737 320.363 151 322.143 151 324L153.328 324C153.328 322.761 153.82 321.573 154.697 320.697C155.573 319.82 156.761 319.328 158 319.328C159.239 319.328 160.427 319.82 161.303 320.697C162.18 321.573 162.672 322.761 162.672 324H165Z" fill="#858384" />
            <rect x="154.5" y="339" width="7" height="2" fill="#858384" />
            <path d="M159.5 342C159.5 342.828 158.828 343.5 158 343.5C157.172 343.5 156.5 342.828 156.5 342C156.5 341.172 157.172 340.5 158 340.5C158.828 340.5 159.5 341.172 159.5 342Z" stroke="#858384" />
            <rect x="130" y="260" width="5" height="1" fill="#858384" />
            <path d="M129.525 260.5C129.525 262.985 127.511 265 125.025 265C122.54 265 120.525 262.985 120.525 260.5C120.525 258.015 122.54 256 125.025 256C127.511 256 129.525 258.015 129.525 260.5Z" fill="#C4C4C4" stroke="#858384" />
            <path d="M128.4 259.447C128.4 260.064 128.217 260.586 127.85 261.012C127.486 261.434 127.037 261.645 126.502 261.645C126.221 261.645 125.955 261.594 125.705 261.492C125.455 261.387 125.164 261.189 124.832 260.9C124.504 260.611 124.268 260.432 124.123 260.361C123.979 260.291 123.824 260.256 123.66 260.256C123.355 260.256 123.121 260.361 122.957 260.572C122.793 260.779 122.711 261.066 122.711 261.434L121.768 261.445C121.768 260.82 121.947 260.307 122.307 259.904C122.666 259.502 123.117 259.301 123.66 259.301C123.957 259.301 124.242 259.363 124.516 259.488C124.789 259.613 125.098 259.834 125.441 260.15C125.785 260.463 126.082 260.639 126.332 260.678L126.502 260.689C126.799 260.689 127.039 260.576 127.223 260.35C127.41 260.123 127.504 259.824 127.504 259.453L128.4 259.447Z" fill="black" />
            <path fill-rule="evenodd" clip-rule="evenodd" d="M160.026 360.053L157.428 361.553L154.928 357.222L152.33 358.722L146.33 348.33L148.928 346.83L146.428 342.5L149.026 341L160.026 360.053Z" fill="#858384" />
            <rect width="3" height="10" transform="matrix(1 0 0 -1 157.025 370)" fill="#858384" />
            <path d="M161.525 371.041C161.525 372.698 160.182 374.041 158.525 374.041C156.869 374.041 155.525 372.698 155.525 371.041C155.525 369.385 156.869 368.041 158.525 368.041C160.182 368.041 161.525 369.385 161.525 371.041Z" fill="#858384" />
            <path d="M151.525 371C151.525 372.857 152.263 374.637 153.576 375.95C154.888 377.263 156.669 378 158.525 378C160.382 378 162.162 377.263 163.475 375.95C164.788 374.637 165.525 372.857 165.525 371L163.197 371C163.197 372.239 162.705 373.427 161.829 374.303C160.953 375.18 159.764 375.672 158.525 375.672C157.286 375.672 156.098 375.18 155.222 374.303C154.346 373.427 153.854 372.239 153.854 371L151.525 371Z" fill="#858384" />
            <path d="M143.4 351.447C143.4 352.064 143.217 352.586 142.85 353.012C142.486 353.434 142.037 353.645 141.502 353.645C141.221 353.645 140.955 353.594 140.705 353.492C140.455 353.387 140.164 353.189 139.832 352.9C139.504 352.611 139.268 352.432 139.123 352.361C138.979 352.291 138.824 352.256 138.66 352.256C138.355 352.256 138.121 352.361 137.957 352.572C137.793 352.779 137.711 353.066 137.711 353.434L136.768 353.445C136.768 352.82 136.947 352.307 137.307 351.904C137.666 351.502 138.117 351.301 138.66 351.301C138.957 351.301 139.242 351.363 139.516 351.488C139.789 351.613 140.098 351.834 140.441 352.15C140.785 352.463 141.082 352.639 141.332 352.678L141.502 352.689C141.799 352.689 142.039 352.576 142.223 352.35C142.41 352.123 142.504 351.824 142.504 351.453L143.4 351.447Z" fill="black" />
            <rect x="51" y="355" width="10" height="1" fill="#858384" />
            <path d="M51.5 355.5C51.5 357.985 49.4853 360 47 360C44.5147 360 42.5 357.985 42.5 355.5C42.5 353.015 44.5147 351 47 351C49.4853 351 51.5 353.015 51.5 355.5Z" fill="#C4C4C4" stroke="#858384" />
            <path d="M50.3887 354.447C50.3887 355.064 50.2051 355.586 49.8379 356.012C49.4746 356.434 49.0254 356.645 48.4902 356.645C48.209 356.645 47.9434 356.594 47.6934 356.492C47.4434 356.387 47.1523 356.189 46.8203 355.9C46.4922 355.611 46.2559 355.432 46.1113 355.361C45.9668 355.291 45.8125 355.256 45.6484 355.256C45.3438 355.256 45.1094 355.361 44.9453 355.572C44.7812 355.779 44.6992 356.066 44.6992 356.434L43.7559 356.445C43.7559 355.82 43.9355 355.307 44.2949 354.904C44.6543 354.502 45.1055 354.301 45.6484 354.301C45.9453 354.301 46.2305 354.363 46.5039 354.488C46.7773 354.613 47.0859 354.834 47.4297 355.15C47.7734 355.463 48.0703 355.639 48.3203 355.678L48.4902 355.689C48.7871 355.689 49.0273 355.576 49.2109 355.35C49.3984 355.123 49.4922 354.824 49.4922 354.453L50.3887 354.447Z" fill="black" />
            <line x1="143.5" y1="285" x2="143.5" y2="310" stroke="#858384" stroke-width="3" stroke-dasharray="9 9" />
            <line x1="143.5" y1="285" x2="143.5" y2="310" stroke="#858384" stroke-width="3" stroke-dasharray="9 9" />
            <path fill-rule="evenodd" clip-rule="evenodd" d="M430 268.069L427.402 269.569L424.902 265.239L422.305 266.739L416.305 256.346L418.902 254.847L416.402 250.516L419 249.016L430 268.069Z" fill="#858384" />
            <rect width="3" height="10" transform="matrix(1 0 0 -1 427 278)" fill="#858384" />
            <path d="M431.525 279.041C431.525 280.698 430.182 282.041 428.525 282.041C426.869 282.041 425.525 280.698 425.525 279.041C425.525 277.385 426.869 276.041 428.525 276.041C430.182 276.041 431.525 277.385 431.525 279.041Z" fill="#858384" />
            <path d="M421.525 279C421.525 280.857 422.263 282.637 423.576 283.95C424.888 285.263 426.669 286 428.525 286C430.382 286 432.162 285.263 433.475 283.95C434.788 282.637 435.525 280.857 435.525 279L433.197 279C433.197 280.239 432.705 281.427 431.829 282.303C430.953 283.18 429.764 283.672 428.525 283.672C427.286 283.672 426.098 283.18 425.222 282.303C424.346 281.427 423.854 280.239 423.854 279L421.525 279Z" fill="#858384" />
            <rect x="414" y="260" width="6" height="1" fill="#858384" />
            <path d="M414.5 260.5C414.5 262.985 412.485 265 410 265C407.515 265 405.5 262.985 405.5 260.5C405.5 258.015 407.515 256 410 256C412.485 256 414.5 258.015 414.5 260.5Z" fill="#C4C4C4" stroke="#858384" />
            <path d="M413.426 259.447C413.426 260.064 413.242 260.586 412.875 261.012C412.512 261.434 412.062 261.645 411.527 261.645C411.246 261.645 410.98 261.594 410.73 261.492C410.48 261.387 410.189 261.189 409.857 260.9C409.529 260.611 409.293 260.432 409.148 260.361C409.004 260.291 408.85 260.256 408.686 260.256C408.381 260.256 408.146 260.361 407.982 260.572C407.818 260.779 407.736 261.066 407.736 261.434L406.793 261.445C406.793 260.82 406.973 260.307 407.332 259.904C407.691 259.502 408.143 259.301 408.686 259.301C408.982 259.301 409.268 259.363 409.541 259.488C409.814 259.613 410.123 259.834 410.467 260.15C410.811 260.463 411.107 260.639 411.357 260.678L411.527 260.689C411.824 260.689 412.064 260.576 412.248 260.35C412.436 260.123 412.529 259.824 412.529 259.453L413.426 259.447Z" fill="black" />
            <path d="M413.426 259.447C413.426 260.064 413.242 260.586 412.875 261.012C412.512 261.434 412.062 261.645 411.527 261.645C411.246 261.645 410.98 261.594 410.73 261.492C410.48 261.387 410.189 261.189 409.857 260.9C409.529 260.611 409.293 260.432 409.148 260.361C409.004 260.291 408.85 260.256 408.686 260.256C408.381 260.256 408.146 260.361 407.982 260.572C407.818 260.779 407.736 261.066 407.736 261.434L406.793 261.445C406.793 260.82 406.973 260.307 407.332 259.904C407.691 259.502 408.143 259.301 408.686 259.301C408.982 259.301 409.268 259.363 409.541 259.488C409.814 259.613 410.123 259.834 410.467 260.15C410.811 260.463 411.107 260.639 411.357 260.678L411.527 260.689C411.824 260.689 412.064 260.576 412.248 260.35C412.436 260.123 412.529 259.824 412.529 259.453L413.426 259.447Z" fill="black" />
            <path d="M499.4 353.447C499.4 354.064 499.217 354.586 498.85 355.012C498.486 355.434 498.037 355.645 497.502 355.645C497.221 355.645 496.955 355.594 496.705 355.492C496.455 355.387 496.164 355.189 495.832 354.9C495.504 354.611 495.268 354.432 495.123 354.361C494.979 354.291 494.824 354.256 494.66 354.256C494.355 354.256 494.121 354.361 493.957 354.572C493.793 354.779 493.711 355.066 493.711 355.434L492.768 355.445C492.768 354.82 492.947 354.307 493.307 353.904C493.666 353.502 494.117 353.301 494.66 353.301C494.957 353.301 495.242 353.363 495.516 353.488C495.789 353.613 496.098 353.834 496.441 354.15C496.785 354.463 497.082 354.639 497.332 354.678L497.502 354.689C497.799 354.689 498.039 354.576 498.223 354.35C498.41 354.123 498.504 353.824 498.504 353.453L499.4 353.447Z" fill="black" />
            <line x1="428.5" y1="285" x2="428.5" y2="309" stroke="#858384" stroke-width="3" stroke-dasharray="9 9" />
            <line x1="158.5" y1="377" x2="158.5" y2="393" stroke="#858384" stroke-width="3" stroke-dasharray="6 6" />
            <line x1="66.5" y1="381" x2="66.5" y2="430" stroke="#858384" stroke-width="3" stroke-dasharray="6 6" />
            <path d="M143.5 169L143.5 218" stroke="#858384" stroke-width="3" stroke-dasharray="6 6" />
            <line x1="66.5" y1="307" x2="66.5" y2="320" stroke="#858384" stroke-width="3" stroke-dasharray="6 6" />
            <line x1="176" y1="308.5" x2="65" y2="308.5" stroke="#858384" stroke-width="3" stroke-dasharray="6 6" />
            <line x1="423" y1="391.5" x2="157" y2="391.5" stroke="#858384" stroke-width="3" stroke-dasharray="6 6" />
            <rect width="3" height="15" transform="matrix(1 0 0 -1 65 343)" fill="#858384" />
            <path d="M63 343H70V345H63V343Z" fill="#858384" />
            <path d="M67.7988 346.01C67.7988 346.838 67.1273 347.51 66.2988 347.51C65.4704 347.51 64.7988 346.838 64.7988 346.01C64.7988 345.182 65.4704 344.51 66.2988 344.51C67.1273 344.51 67.7988 345.182 67.7988 346.01Z" stroke="#858384" />
            <path fill-rule="evenodd" clip-rule="evenodd" d="M66.4987 325.721L60.1348 332.084L61.549 333.499L66.4991 328.549L71.4492 333.499L72.8634 332.085L66.4995 325.721L66.4991 325.721L66.4987 325.721Z" fill="#858384" />
            <path fill-rule="evenodd" clip-rule="evenodd" d="M66.4987 318.632L60.1348 324.996L61.549 326.41L66.4991 321.46L71.4492 326.41L72.8634 324.996L66.4995 318.632L66.4991 318.632L66.4987 318.632Z" fill="#858384" />
            <rect width="3" height="9" transform="matrix(1 0 0 -1 65 373)" fill="#858384" />
            <path fill-rule="evenodd" clip-rule="evenodd" d="M66.3646 375.728L72.7285 369.365L71.3143 367.95L66.3642 372.9L61.4141 367.95L59.9998 369.364L66.3638 375.728L66.3641 375.728L66.3646 375.728Z" fill="#858384" />
            <path fill-rule="evenodd" clip-rule="evenodd" d="M66.3646 382.817L72.7285 376.453L71.3143 375.039L66.3642 379.989L61.4141 375.039L59.9998 376.453L66.3638 382.817L66.3641 382.817L66.3646 382.817Z" fill="#858384" />
            <path fill-rule="evenodd" clip-rule="evenodd" d="M68.0004 364.042L65.4023 365.542L62.9024 361.212L60.3047 362.711L54.3047 352.319L56.9024 350.819L54.4023 346.489L57.0004 344.989L68.0004 364.042Z" fill="#858384" />
            <path d="M514.5 381.02L514.5 430.02" stroke="#858384" stroke-width="3" stroke-dasharray="6 6" />
            <path d="M513 373.02H516V363.02H513V373.02Z" fill="#858384" />
            <path fill-rule="evenodd" clip-rule="evenodd" d="M514.365 375.728L520.729 369.365L519.314 367.95L514.364 372.9L509.414 367.95L508 369.364L514.364 375.728L514.364 375.728L514.365 375.728Z" fill="#858384" />
            <path fill-rule="evenodd" clip-rule="evenodd" d="M514.365 382.728L520.729 376.364L519.314 374.95L514.364 379.9L509.414 374.95L508 376.364L514.364 382.728L514.364 382.728L514.365 382.728Z" fill="#858384" />
            <path fill-rule="evenodd" clip-rule="evenodd" d="M515.999 363.053L513.344 364.553L510.788 360.222L508.133 361.722L502 351.33L504.655 349.83L502.1 345.5L504.756 344L515.999 363.053Z" fill="#858384" />
            <rect x="405" y="312" width="3" height="9" transform="rotate(180 405 312)" fill="#858384" />
            <line y1="-1.5" x2="13" y2="-1.5" transform="matrix(0 1 1 0 516 306)" stroke="#858384" stroke-width="3" stroke-dasharray="6 6" />
            <line x1="423.5" y1="309" x2="423.5" y2="393" stroke="#858384" stroke-width="3" stroke-dasharray="6 6" />
            <path d="M428 170L428 213" stroke="#858384" stroke-width="3" stroke-dasharray="6 6" />
            <line y1="-1.5" x2="111" y2="-1.5" transform="matrix(1 8.74228e-08 8.74228e-08 -1 405 306)" stroke="#858384" stroke-width="3" stroke-dasharray="6 6" />
            <rect width="3" height="15" transform="matrix(1 0 0 -1 513 342)" fill="#858384" />
            <path d="M510.99 341.691H517.99V343.691H510.99V341.691Z" fill="#858384" />
            <path d="M515.789 344.701C515.789 345.53 515.117 346.201 514.289 346.201C513.461 346.201 512.789 345.53 512.789 344.701C512.789 343.873 513.461 343.201 514.289 343.201C515.117 343.201 515.789 343.873 515.789 344.701Z" stroke="#858384" />
            <path fill-rule="evenodd" clip-rule="evenodd" d="M514.489 324.412L508.125 330.776L509.539 332.19L514.489 327.24L519.439 332.19L520.854 330.776L514.49 324.412L514.489 324.412L514.489 324.412Z" fill="#858384" />
            <path fill-rule="evenodd" clip-rule="evenodd" d="M514.489 317.323L508.125 323.687L509.539 325.101L514.489 320.151L519.439 325.101L520.854 323.687L514.49 317.323L514.489 317.323L514.489 317.323Z" fill="#858384" />
            <path fill-rule="evenodd" clip-rule="evenodd" d="M86.1201 149.277C85.892 146.774 86.049 102.611 86.1034 87.2885C86.1135 84.4604 86.1201 82.6148 86.1201 82.195C86.1201 79.5004 88.2932 78.2126 90.7123 78.0192C93.3731 77.8066 95.8865 79.3669 96.115 82.195C96.1741 82.9254 96.2026 87.5466 96.2125 94H104V89.4213C104 88.0841 105.086 87 106.425 87H184.575C185.914 87 187 88.0841 187 89.4213V94H195.176C195.17 87.8505 195.153 83.3325 195.119 82.195C194.984 77.6145 199.306 78.0192 199.306 78.0192C199.306 78.0192 203.764 77.6145 203.899 82.195C204.034 86.7755 204.034 146.986 203.899 149.277C203.764 151.567 201.738 156.819 195.119 156.82C193.889 156.82 189.724 156.834 183.736 156.854L183.711 156.854H183.709C157.462 156.943 96.2718 157.149 93.4137 156.82C89.9019 156.415 86.3902 152.241 86.1201 149.277ZM187 133V137.579C187 138.916 185.914 140 184.575 140H106.425C105.086 140 104 138.916 104 137.579V133H96.1579C96.145 137.45 96.1327 141.147 96.1246 143.481C96.1195 144.972 97.3306 146.179 98.8265 146.179H192.424C193.914 146.179 195.122 144.987 195.125 143.502C195.13 141.169 195.137 137.464 195.145 133H187Z" fill="#C4C4C4" />
            <path d="M185 95H193V134H185V95Z" stroke="#2A292E" stroke-width="2" />
            <path d="M94.2754 95H101.999V134H94.2754V95Z" stroke="#2A292E" stroke-width="2" />
            <path d="M84.1201 150.277C83.8499 147.312 84.12 85.8896 84.1201 83.195C84.1201 80.5004 86.2932 79.2126 88.7123 79.0192C91.3731 78.8066 93.8865 80.3669 94.115 83.195C94.3147 85.6651 94.1656 132.63 94.1246 144.481C94.1195 145.972 95.3306 147.179 96.8265 147.179H190.424C191.914 147.179 193.122 145.987 193.125 144.502C193.15 132.878 193.237 87.1896 193.119 83.195C192.984 78.6145 197.306 79.0192 197.306 79.0192C197.306 79.0192 201.764 78.6145 201.899 83.195C202.034 87.7755 202.034 147.986 201.899 150.277C201.764 152.567 199.738 157.819 193.119 157.82C186.501 157.821 94.9254 158.225 91.4137 157.82C87.9019 157.415 84.3902 153.241 84.1201 150.277Z" stroke="#2A292E" stroke-width="2" />
            <path d="M182.575 88H104.425C103.086 88 102 89.0841 102 90.4213V138.579C102 139.916 103.086 141 104.425 141H182.575C183.914 141 185 139.916 185 138.579V90.4213C185 89.0841 183.914 88 182.575 88Z" stroke="#2A292E" stroke-width="2" />
            <rect x="113.5" y="101.5" width="28" height="28" fill="#2B2B2B" stroke="#2A292E" />
            <mask id="path-87-inside-1" fill="white">
                <path fill-rule="evenodd" clip-rule="evenodd" d="M133.998 103.813L127.5 103.814L120 116.804H126.304L121 125.991L135.999 113.186L128.827 112.769L133.998 103.813Z" />
            </mask>
            <path fill-rule="evenodd" clip-rule="evenodd" d="M133.998 103.813L127.5 103.814L120 116.804H126.304L121 125.991L135.999 113.186L128.827 112.769L133.998 103.813Z" fill="white" />
            <path d="M127.5 103.814L127.5 102.814L126.923 102.814L126.634 103.314L127.5 103.814ZM133.998 103.813L134.864 104.313L135.73 102.813L133.998 102.813L133.998 103.813ZM120 116.804L119.134 116.304L118.268 117.804H120V116.804ZM126.304 116.804L127.17 117.304L128.036 115.804H126.304V116.804ZM121 125.991L120.134 125.491L121.649 126.751L121 125.991ZM135.999 113.186L136.649 113.947L138.54 112.332L136.058 112.188L135.999 113.186ZM128.827 112.769L127.961 112.269L127.15 113.674L128.769 113.768L128.827 112.769ZM127.5 104.814L133.998 104.813L133.998 102.813L127.5 102.814L127.5 104.814ZM120.866 117.304L128.366 104.314L126.634 103.314L119.134 116.304L120.866 117.304ZM126.304 115.804H120V117.804H126.304V115.804ZM121.866 126.491L127.17 117.304L125.438 116.304L120.134 125.491L121.866 126.491ZM135.35 112.426L120.351 125.23L121.649 126.751L136.649 113.947L135.35 112.426ZM128.769 113.768L135.941 114.185L136.058 112.188L128.885 111.771L128.769 113.768ZM133.132 103.313L127.961 112.269L129.693 113.269L134.864 104.313L133.132 103.313Z" fill="white" mask="url(#path-87-inside-1)" />
            <circle cx="164" cy="120" r="8" fill="#C4C4C4" stroke="#2B2B2B" stroke-width="2" />
            <circle cx="152" cy="105" r="4" fill="#2B2B2B" />
            <circle cx="176" cy="105" r="4" fill="#2B2B2B" />
            <circle cx="164" cy="105" r="4" fill="#2B2B2B" />
            <rect x="167.683" y="113.683" width="1" height="6" transform="rotate(30 167.683 113.683)" fill="#C4C4C4" stroke="#2B2B2B" />
            <path d="M470 94H478V133H470V94Z" stroke="#2A292E" stroke-width="2" />
            <path d="M379.276 94H387V133H379.276V94Z" stroke="#2A292E" stroke-width="2" />
            <path d="M369.12 149.277C368.85 146.312 369.12 84.8896 369.12 82.195C369.12 79.5004 371.293 78.2126 373.712 78.0192C376.373 77.8066 378.886 79.3669 379.115 82.195C379.315 84.6651 379.166 131.63 379.125 143.481C379.119 144.972 380.331 146.179 381.826 146.179H475.424C476.914 146.179 478.122 144.987 478.125 143.502C478.15 131.878 478.237 86.1896 478.119 82.195C477.984 77.6145 482.306 78.0192 482.306 78.0192C482.306 78.0192 486.764 77.6145 486.899 82.195C487.034 86.7755 487.034 146.986 486.899 149.277C486.764 151.567 484.738 156.819 478.119 156.82C471.501 156.821 379.925 157.225 376.414 156.82C372.902 156.415 369.39 152.241 369.12 149.277Z" stroke="#2A292E" stroke-width="2" />
            <path d="M467.575 87H389.425C388.086 87 387 88.0841 387 89.4213V137.579C387 138.916 388.086 140 389.425 140H467.575C468.914 140 470 138.916 470 137.579V89.4213C470 88.0841 468.914 87 467.575 87Z" stroke="#2A292E" stroke-width="2" />
            <rect x="398.5" y="100.5" width="28" height="28" fill="#2B2B2B" stroke="#2A292E" />
            <mask id="path-99-inside-2" fill="white">
                <path fill-rule="evenodd" clip-rule="evenodd" d="M418.998 102.813L412.5 102.814L405 115.804H411.304L406 124.991L420.999 112.186L413.827 111.769L418.998 102.813Z" />
            </mask>
            <path fill-rule="evenodd" clip-rule="evenodd" d="M418.998 102.813L412.5 102.814L405 115.804H411.304L406 124.991L420.999 112.186L413.827 111.769L418.998 102.813Z" fill="white" />
            <path d="M412.5 102.814L412.5 101.814L411.923 101.814L411.634 102.314L412.5 102.814ZM418.998 102.813L419.864 103.313L420.73 101.813L418.998 101.813L418.998 102.813ZM405 115.804L404.134 115.304L403.268 116.804H405V115.804ZM411.304 115.804L412.17 116.304L413.036 114.804H411.304V115.804ZM406 124.991L405.134 124.491L406.649 125.751L406 124.991ZM420.999 112.186L421.649 112.947L423.54 111.332L421.058 111.188L420.999 112.186ZM413.827 111.769L412.961 111.269L412.15 112.674L413.769 112.768L413.827 111.769ZM412.5 103.814L418.998 103.813L418.998 101.813L412.5 101.814L412.5 103.814ZM405.866 116.304L413.366 103.314L411.634 102.314L404.134 115.304L405.866 116.304ZM411.304 114.804H405V116.804H411.304V114.804ZM406.866 125.491L412.17 116.304L410.438 115.304L405.134 124.491L406.866 125.491ZM420.35 111.426L405.351 124.23L406.649 125.751L421.649 112.947L420.35 111.426ZM413.769 112.768L420.941 113.185L421.058 111.188L413.885 110.771L413.769 112.768ZM418.132 102.313L412.961 111.269L414.693 112.269L419.864 103.313L418.132 102.313Z" fill="white" mask="url(#path-99-inside-2)" />
            <circle cx="449" cy="119" r="8" fill="#C4C4C4" stroke="#2B2B2B" stroke-width="2" />
            <circle cx="437" cy="104" r="4" fill="#2B2B2B" />
            <circle cx="461" cy="104" r="4" fill="#2B2B2B" />
            <circle cx="449" cy="104" r="4" fill="#2B2B2B" />
            <rect x="452.683" y="112.683" width="1" height="6" transform="rotate(30 452.683 112.683)" fill="#C4C4C4" stroke="#2B2B2B" />
            <rect id="DGU1_Output_on" x="142" y="168" width="3" height="45" fill="#352295" />
            <path id="DGU2_Output_on" d="M426.5 169H429.5V213H426.5V169Z" fill="#352295" />
            <path id="AVR_DGU_input2_on" fill-rule="evenodd" clip-rule="evenodd" d="M424.388 226.004C423.905 226.295 423.455 226.645 423.05 227.05C421.737 228.363 421 230.144 421 232H423.328C423.328 230.761 423.82 229.573 424.696 228.697C425.572 227.82 426.761 227.328 428 227.328C429.239 227.328 430.428 227.82 431.304 228.697C432.18 229.573 432.672 230.761 432.672 232H435C435 230.144 434.263 228.363 432.95 227.05C431.996 226.097 430.797 225.447 429.5 225.163V214H426.5V225.163C425.754 225.326 425.041 225.611 424.388 226.004ZM431.5 247H429.5V234.557C430.396 234.039 431 233.069 431 231.958C431 230.302 429.657 228.958 428 228.958C426.343 228.958 425 230.302 425 231.958C425 233.069 425.604 234.039 426.5 234.557V247H425.15L425.055 246.587L422.132 247.262L423.257 252.134L420.334 252.808L422 260H414.976C414.725 257.473 412.593 255.5 410 255.5C407.238 255.5 405 257.739 405 260.5C405 263.261 407.238 265.5 410 265.5C412.593 265.5 414.725 263.527 414.976 261H422H422.225L423.033 264.501L425.956 263.826L427 268.347V276.458C426.117 276.98 425.525 277.941 425.525 279.042C425.525 280.698 426.868 282.042 428.525 282.042C430.183 282.042 431.525 280.698 431.525 279.042C431.525 277.92 430.911 276.943 430 276.428L430.004 268.023L430 268L425.612 249H426.268C426.098 249.294 426 249.636 426 250C426 251.104 426.896 252 428 252C429.104 252 430 251.104 430 250C430 249.636 429.902 249.294 429.732 249H431.5V247ZM428 249C427.447 249 427 249.448 427 250C427 250.267 427.104 250.51 427.275 250.69C427.338 250.755 427.409 250.812 427.487 250.859C427.574 250.911 427.671 250.951 427.773 250.974C427.846 250.991 427.922 251 428 251C428.553 251 429 250.552 429 250C429 249.448 428.553 249 428 249ZM421.525 279C421.525 280.856 422.263 282.637 423.575 283.95C424.522 284.897 425.713 285.544 427 285.832V309H430V285.843C431.307 285.562 432.516 284.909 433.476 283.95C434.788 282.637 435.525 280.856 435.525 279H433.197C433.197 280.239 432.705 281.427 431.829 282.303C430.953 283.18 429.765 283.672 428.525 283.672C427.286 283.672 426.098 283.18 425.222 282.303C424.346 281.427 423.854 280.239 423.854 279H421.525ZM414.021 260.5L413.98 260.901C413.779 262.921 412.073 264.5 410 264.5C407.791 264.5 406 262.709 406 260.5C406 258.291 407.791 256.5 410 256.5C412.073 256.5 413.779 258.079 413.98 260.099L414.021 260.5Z" fill="#352295" />
            <mask id="path-109-inside-3" fill="white">
                <path fill-rule="evenodd" clip-rule="evenodd" d="M500.951 355C500.7 357.527 498.568 359.5 495.976 359.5C493.214 359.5 490.976 357.261 490.976 354.5C490.976 351.739 493.214 349.5 495.976 349.5C498.568 349.5 500.7 351.473 500.951 354H508.998V355H500.951Z" />
            </mask>
            <path d="M500.951 355V354H500.045L499.956 354.901L500.951 355ZM500.951 354L499.956 354.099L500.045 355H500.951V354ZM508.998 354H509.998V353H508.998V354ZM508.998 355V356H509.998V355H508.998ZM499.956 354.901C499.755 356.922 498.049 358.5 495.976 358.5V360.5C499.087 360.5 501.645 358.132 501.946 355.099L499.956 354.901ZM495.976 358.5C493.766 358.5 491.976 356.709 491.976 354.5H489.976C489.976 357.814 492.662 360.5 495.976 360.5V358.5ZM491.976 354.5C491.976 352.291 493.766 350.5 495.976 350.5V348.5C492.662 348.5 489.976 351.186 489.976 354.5H491.976ZM495.976 350.5C498.049 350.5 499.755 352.079 499.956 354.099L501.946 353.901C501.645 350.868 499.087 348.5 495.976 348.5V350.5ZM500.951 355H508.998V353H500.951V355ZM507.998 354V355H509.998V354H507.998ZM508.998 354H500.951V356H508.998V354Z" fill="#858384" mask="url(#path-109-inside-3)" />
            <path id="AVR_DGU_input1_on" fill-rule="evenodd" clip-rule="evenodd" d="M138.551 227.05C139.504 226.097 140.705 225.447 142 225.163V214H145V225.163C146.297 225.447 147.498 226.097 148.451 227.05C149.764 228.363 150.5 230.144 150.5 232H148.172C148.172 230.761 147.68 229.573 146.805 228.697C145.928 227.82 144.74 227.328 143.5 227.328C142.262 227.328 141.074 227.82 140.197 228.697C139.32 229.573 138.828 230.761 138.828 232H136.5C136.5 230.144 137.238 228.363 138.551 227.05ZM146.5 231.958C146.5 233.069 145.898 234.039 145 234.557V247H147V249H145.232C145.404 249.294 145.5 249.636 145.5 250C145.5 251.104 144.605 252 143.5 252C142.396 252 141.5 251.104 141.5 250C141.5 249.636 141.598 249.294 141.768 249H140.605L145 268V276.443C145.898 276.961 146.5 277.931 146.5 279.042C146.5 280.698 145.158 282.042 143.5 282.042C141.844 282.042 140.5 280.698 140.5 279.042C140.5 277.931 141.104 276.961 142 276.443V268.378L140.953 263.839L138.031 264.514L137.221 261H137H130C129.75 263.527 127.617 265.5 125.025 265.5C122.264 265.5 120.025 263.261 120.025 260.5C120.025 257.739 122.264 255.5 125.025 255.5C127.617 255.5 129.75 257.473 130 260H137L135.332 252.821L138.254 252.147L137.129 247.275L140.053 246.6L140.145 247H142V234.557C141.104 234.039 140.5 233.069 140.5 231.958C140.5 230.302 141.844 228.958 143.5 228.958C145.158 228.958 146.5 230.302 146.5 231.958ZM143.508 249C142.945 249.003 142.5 249.45 142.5 250C142.5 250.552 142.949 251 143.5 251C144.053 251 144.5 250.552 144.5 250C144.5 249.45 144.057 249.003 143.508 249ZM136.5 279C136.5 280.856 137.238 282.637 138.551 283.95C139.504 284.903 140.705 285.553 142 285.837V307H145V285.837C146.297 285.553 147.498 284.903 148.451 283.95C149.764 282.637 150.5 280.856 150.5 279H148.172C148.172 280.239 147.68 281.427 146.805 282.303C145.928 283.18 144.74 283.672 143.5 283.672C142.262 283.672 141.074 283.18 140.197 282.303C139.32 281.427 138.828 280.239 138.828 279H136.5ZM129.045 260.5L129.006 260.901C128.805 262.921 127.1 264.5 125.025 264.5C122.816 264.5 121.025 262.709 121.025 260.5C121.025 258.291 122.816 256.5 125.025 256.5C127.1 256.5 128.805 258.079 129.006 260.099L129.045 260.5Z" fill="#352295" />
            <path fill-rule="evenodd" clip-rule="evenodd" d="M524.884 73.3018V75.0019V88.5998V90.2999V103.903V105.603V119.204V120.904V134.502V136.202V149.805V151.505V165.105V166.805V175V176H523.884H520.497H518.805H505.264H503.572H490.032H488.339H474.799H473.107H459.566H457.873H444.335H442.642H429.1H427.407H413.867H412.174H398.636H396.944H383.4H381.708H368.167H366.475H352.937H351.244H337.702H336.009H332H331V175V170.968V169.268V155.666V153.966V140.368V138.668V125.067V123.367V109.763V108.063V94.4654V92.7653V79.165V77.465V64V63.8624V63.593V63H331.59H331.834H332H345.373H347.065H360.606H362.298H375.839H377.531H391.071H392.764H406.304H407.997H421.538H423.23H436.77H438.463H452.006H453.698H467.236H468.928H482.47H484.162H497.705H499.398H512.935H514.628H523.884H524.884V64V73.3018ZM513.931 64L523.884 73.9974V87.5954L500.393 64H513.931ZM498.701 64L523.884 89.2955V102.898L485.158 64H498.701ZM483.465 64L523.884 104.598V118.2L469.924 64H483.465ZM468.232 64L523.884 119.9V133.498L454.694 64H468.232ZM453.001 64L523.884 135.198V148.8L439.459 64H453.001ZM437.766 64L523.884 150.5V164.101L424.226 64H437.766ZM422.533 64L523.884 165.801V175H519.502L408.992 64H422.533ZM407.3 64L517.809 175H504.269L393.759 64H407.3ZM392.067 64L502.576 175H489.036L378.527 64H392.067ZM376.834 64L487.344 175H473.803L363.294 64H376.834ZM361.601 64L472.111 175H458.57L348.061 64H361.601ZM346.368 64L456.878 175H443.339L332.83 64H346.368ZM332 64.8668L441.647 175H428.104L332 78.4694V64.8668ZM332 80.1695V93.7698L412.871 175H426.411L332 80.1695ZM411.179 175L332 95.4699V109.068L397.641 175H411.179ZM395.948 175L332 110.768V124.372L382.405 175H395.948ZM380.712 175L332 126.072V139.672L367.172 175H380.712ZM365.479 175L332 141.372V154.97L351.941 175H365.479ZM350.249 175L332 156.67V170.273L336.706 175H350.249ZM335.014 175L332 171.973V175H335.014ZM515.624 64H523.884V72.2973L515.624 64Z" fill="black" />
            <path id="AVR_DGU_Line_on" fill-rule="evenodd" clip-rule="evenodd" d="M402.001 303H405.001V306H422.001H425.001H516.001V309V318.833L520.854 323.687L519.44 325.101L514.49 320.151L509.54 325.101L508.126 323.687L513.001 318.812V309H425.001V390V393H422.001H157.002V390V377.832C155.715 377.544 154.523 376.897 153.576 375.95C152.264 374.637 151.527 372.856 151.527 371H153.855C153.855 372.239 154.348 373.427 155.223 374.303C156.1 375.18 157.287 375.672 158.527 375.672C159.766 375.672 160.953 375.18 161.83 374.303C162.705 373.427 163.197 372.239 163.197 371H165.527C165.527 372.856 164.789 374.637 163.477 375.95C162.518 376.909 161.307 377.562 160.002 377.843V390H422.001V309H405.001V312H402.001V309V306V303ZM179 304H176V307H68.002H65.002V310V320H65.1309L60.1367 324.996L61.5508 326.41L66.5 321.46L71.4512 326.41L72.8652 324.996L67.8691 320H68.002V310H156.502V317.163C155.205 317.447 154.004 318.097 153.051 319.05C151.738 320.363 151.002 322.144 151.002 324H153.33C153.33 322.761 153.822 321.573 154.697 320.697C155.574 319.82 156.762 319.328 158.002 319.328C159.24 319.328 160.428 319.82 161.305 320.697C162.18 321.573 162.672 322.761 162.672 324H165.002C165.002 322.144 164.264 320.363 162.951 319.05C161.998 318.097 160.797 317.447 159.502 317.163V310H176V313H179L179.002 310L179 307V304ZM159.502 339H161.502V341H159.734C159.904 341.294 160.002 341.636 160.002 342C160.002 343.104 159.105 344 158.002 344C156.896 344 156.002 343.104 156.002 342C156.002 341.636 156.098 341.294 156.27 341H155.643L160.027 360.02V368.443C160.924 368.961 161.527 369.931 161.527 371.042C161.527 372.698 160.184 374.042 158.527 374.042C156.869 374.042 155.527 372.698 155.527 371.042C155.527 369.931 156.129 368.961 157.027 368.443V360.33L155.986 355.821L153.062 356.496L152.256 353H144.949C144.699 355.527 142.568 357.5 139.975 357.5C137.213 357.5 134.975 355.261 134.975 352.5C134.975 349.739 137.213 347.5 139.975 347.5C142.568 347.5 144.699 349.473 144.949 352H152.025L150.363 344.803L153.285 344.128L152.162 339.257L155.084 338.582L155.182 339H156.502V326.557C156.045 326.293 155.664 325.913 155.4 325.456C155.258 325.208 155.148 324.938 155.082 324.652C155.029 324.43 155.002 324.197 155.002 323.958C155.002 322.302 156.344 320.958 158.002 320.958C159.658 320.958 161.002 322.302 161.002 323.958C161.002 325.069 160.398 326.039 159.502 326.557V339ZM158.652 341.241C158.479 341.092 158.254 341.001 158.008 341C157.555 341.003 157.184 341.289 157.053 341.685C157.02 341.784 157.002 341.89 157.002 342C157.002 342.552 157.449 343 158.002 343C158.553 343 159.002 342.552 159.002 342C159.002 341.812 158.949 341.636 158.859 341.486C158.803 341.393 158.732 341.311 158.652 341.241ZM65.002 330.048V343H63.1602L63.0645 342.588L60.1426 343.263L61.2656 348.135L58.3438 348.809L59.7734 355H51.9746C51.7246 352.473 49.5938 350.5 47 350.5C44.2383 350.5 42 352.739 42 355.5C42 358.261 44.2383 360.5 47 360.5C49.5938 360.5 51.7246 358.527 51.9746 356H60.0039L61.043 360.502L63.9668 359.827L65.002 364.311V371.536L61.416 367.95L60.002 369.364L66.3652 375.728L72.7305 369.364L71.3164 367.95L68.002 371.265L68.0137 364.024L63.6211 345H64.5723C64.4004 345.296 64.3008 345.642 64.3008 346.01C64.3008 347.115 65.1953 348.01 66.3008 348.01C67.0312 348.01 67.6719 347.617 68.0215 347.03C68.1035 346.891 68.1699 346.741 68.2168 346.583C68.2715 346.401 68.3008 346.209 68.3008 346.01C68.3008 345.72 68.2402 345.444 68.1289 345.195C68.0977 345.128 68.0645 345.063 68.0273 345H70.002V343H68.002V330.05L71.4512 333.499L72.8652 332.084L66.5 325.72L60.1367 332.084L61.5508 333.499L65.002 330.048ZM47 351.5C49.209 351.5 51 353.291 51 355.5C51 357.709 49.209 359.5 47 359.5C44.791 359.5 43 357.709 43 355.5C43 353.291 44.791 351.5 47 351.5ZM66.3008 347.01C66.8516 347.01 67.3008 346.562 67.3008 346.01C67.3008 345.91 67.2871 345.814 67.2598 345.723C67.2246 345.606 67.168 345.498 67.0957 345.403C66.9121 345.164 66.623 345.01 66.3008 345.01C65.748 345.01 65.3008 345.458 65.3008 346.01C65.3008 346.562 65.748 347.01 66.3008 347.01ZM68.002 381.182L72.7305 376.453L71.3164 375.039L66.3652 379.989L61.416 375.039L60.002 376.453L65.002 381.453V430H68.002V381.182ZM516.001 328.751L519.44 332.19L520.854 330.776L514.49 324.412L508.126 330.776L509.54 332.19L513.001 328.729V341.691H511.079L511.054 341.581L508.131 342.256L509.256 347.127L506.333 347.802L507.764 354H500.951C500.7 351.473 498.568 349.5 495.976 349.5C493.214 349.5 490.976 351.739 490.976 354.5C490.976 357.261 493.214 359.5 495.976 359.5C498.568 359.5 500.7 357.527 500.951 355H507.998L509.032 359.495L511.955 358.82L513.001 363.351V371.536L509.415 367.95L508.001 369.364L514.365 375.728L520.729 369.364L519.315 367.95L516.001 371.264L516.003 363.017L511.541 343.691H512.563C512.39 343.988 512.29 344.333 512.29 344.701C512.29 345.806 513.186 346.701 514.29 346.701C515.395 346.701 516.29 345.806 516.29 344.701C516.29 344.55 516.273 344.402 516.241 344.259L516.21 344.139C516.192 344.08 516.172 344.021 516.149 343.964L516.11 343.873L516.094 343.837C516.07 343.787 516.044 343.739 516.017 343.691H517.991V341.691H516.001V328.751ZM514.29 345.701C514.843 345.701 515.29 345.254 515.29 344.701C515.29 344.149 514.843 343.701 514.29 343.701C513.738 343.701 513.29 344.149 513.29 344.701C513.29 344.766 513.296 344.83 513.308 344.891C513.324 344.974 513.351 345.052 513.385 345.126C513.444 345.253 513.529 345.365 513.634 345.456C513.724 345.534 513.827 345.596 513.94 345.638C514.049 345.679 514.167 345.701 514.29 345.701ZM520.729 376.364L516.001 381.093V430H513.001V381.364L508.001 376.364L509.415 374.95L514.365 379.9L519.315 374.95L520.729 376.364ZM143.975 352.5C143.975 354.709 142.184 356.5 139.975 356.5C137.766 356.5 135.975 354.709 135.975 352.5C135.975 350.291 137.766 348.5 139.975 348.5C142.184 348.5 143.975 350.291 143.975 352.5ZM499.996 354.5L499.956 354.901C499.755 356.922 498.049 358.5 495.976 358.5C493.767 358.5 491.976 356.709 491.976 354.5C491.976 352.291 493.767 350.5 495.976 350.5C498.049 350.5 499.755 352.079 499.956 354.099L499.996 354.5Z" fill="#352295" />
        </svg>