<svg width="571" height="419" viewBox="0 0 571 419" fill="none" xmlns="http://www.w3.org/2000/svg">
<path d="M545 7H312V153H545V7Z" fill="#C4C4C4" stroke="black"/>
<path d="M249 11H16V156H249V11Z" fill="#C4C4C4" stroke="black"/>
<path d="M555.5 201.5H15.5V403.5H555.5V201.5Z" fill="#E0DBDB" stroke="black"/>
<path d="M179 301H176V292H179V301Z" fill="#858384"/>
<path d="M570.5 186.5H0.5V417.5H570.5V186.5Z" stroke="black" stroke-dasharray="10 10"/>
<path fill-rule="evenodd" clip-rule="evenodd" d="M145 256.053L142.402 257.553L139.902 253.222L137.305 254.722L131.305 244.33L133.902 242.83L131.402 238.5L134 237L145 256.053Z" fill="#858384"/>
<path d="M145 266H142V256H145V266Z" fill="#858384"/>
<path d="M146.5 267.041C146.5 268.698 145.157 270.041 143.5 270.041C141.843 270.041 140.5 268.698 140.5 267.041C140.5 265.385 141.843 264.041 143.5 264.041C145.157 264.041 146.5 265.385 146.5 267.041Z" fill="#858384"/>
<path d="M136.5 267C136.5 268.857 137.237 270.637 138.55 271.95C139.863 273.263 141.643 274 143.5 274C145.357 274 147.137 273.263 148.45 271.95C149.763 270.637 150.5 268.857 150.5 267H148.172C148.172 268.239 147.68 269.427 146.803 270.303C145.927 271.18 144.739 271.672 143.5 271.672C142.261 271.672 141.073 271.18 140.197 270.303C139.32 269.427 138.828 268.239 138.828 267H136.5Z" fill="#858384"/>
<path d="M145 214H142V206H145V214Z" fill="#858384"/>
<path d="M145 236H142V222H145V236Z" fill="#858384"/>
<path d="M146.5 219.959C146.5 221.615 145.157 222.959 143.5 222.959C141.843 222.959 140.5 221.615 140.5 219.959C140.5 218.302 141.843 216.959 143.5 216.959C145.157 216.959 146.5 218.302 146.5 219.959Z" fill="#858384"/>
<path d="M150.5 220C150.5 218.143 149.763 216.363 148.45 215.05C147.137 213.737 145.357 213 143.5 213C141.643 213 139.863 213.737 138.55 215.05C137.237 216.363 136.5 218.143 136.5 220H138.828C138.828 218.761 139.32 217.573 140.197 216.697C141.073 215.82 142.261 215.328 143.5 215.328C144.739 215.328 145.927 215.82 146.803 216.697C147.68 217.573 148.172 218.761 148.172 220H150.5Z" fill="#858384"/>
<path d="M147 235H140V237H147V235Z" fill="#858384"/>
<path d="M145 238C145 238.828 144.328 239.5 143.5 239.5C142.672 239.5 142 238.828 142 238C142 237.172 142.672 236.5 143.5 236.5C144.328 236.5 145 237.172 145 238Z" stroke="#858384"/>
<path d="M429.5 214H426.5V206H429.5V214Z" fill="#858384"/>
<path d="M429.5 236H426.5V222H429.5V236Z" fill="#858384"/>
<path d="M431 219.959C431 221.615 429.657 222.959 428 222.959C426.343 222.959 425 221.615 425 219.959C425 218.302 426.343 216.959 428 216.959C429.657 216.959 431 218.302 431 219.959Z" fill="#858384"/>
<path d="M435 220C435 218.143 434.263 216.363 432.95 215.05C431.637 213.737 429.857 213 428 213C426.143 213 424.363 213.737 423.05 215.05C421.737 216.363 421 218.143 421 220H423.328C423.328 218.761 423.82 217.573 424.697 216.697C425.573 215.82 426.761 215.328 428 215.328C429.239 215.328 430.427 215.82 431.303 216.697C432.18 217.573 432.672 218.761 432.672 220H435Z" fill="#858384"/>
<path d="M431.5 235H424.5V237H431.5V235Z" fill="#858384"/>
<path d="M429.5 238C429.5 238.828 428.828 239.5 428 239.5C427.172 239.5 426.5 238.828 426.5 238C426.5 237.172 427.172 236.5 428 236.5C428.828 236.5 429.5 237.172 429.5 238Z" stroke="#858384"/>
<path d="M159.5 306H156.5V298H159.5V306Z" fill="#858384"/>
<path d="M159.5 328H156.5V314H159.5V328Z" fill="#858384"/>
<path d="M161 311.959C161 313.615 159.657 314.959 158 314.959C156.343 314.959 155 313.615 155 311.959C155 310.302 156.343 308.959 158 308.959C159.657 308.959 161 310.302 161 311.959Z" fill="#858384"/>
<path d="M165 312C165 310.143 164.263 308.363 162.95 307.05C161.637 305.737 159.857 305 158 305C156.143 305 154.363 305.737 153.05 307.05C151.737 308.363 151 310.143 151 312H153.328C153.328 310.761 153.82 309.573 154.697 308.697C155.573 307.82 156.761 307.328 158 307.328C159.239 307.328 160.427 307.82 161.303 308.697C162.18 309.573 162.672 310.761 162.672 312H165Z" fill="#858384"/>
<path d="M161.5 327H154.5V329H161.5V327Z" fill="#858384"/>
<path d="M159.5 330C159.5 330.828 158.828 331.5 158 331.5C157.172 331.5 156.5 330.828 156.5 330C156.5 329.172 157.172 328.5 158 328.5C158.828 328.5 159.5 329.172 159.5 330Z" stroke="#858384"/>
<path d="M135 248H130V249H135V248Z" fill="#858384"/>
<path d="M129.525 248.5C129.525 250.985 127.511 253 125.025 253C122.54 253 120.525 250.985 120.525 248.5C120.525 246.015 122.54 244 125.025 244C127.511 244 129.525 246.015 129.525 248.5Z" fill="#C4C4C4" stroke="#858384"/>
<path d="M128.4 247.447C128.4 248.064 128.217 248.586 127.85 249.012C127.486 249.434 127.037 249.645 126.502 249.645C126.221 249.645 125.955 249.594 125.705 249.492C125.455 249.387 125.164 249.189 124.832 248.9C124.504 248.611 124.268 248.432 124.123 248.361C123.979 248.291 123.824 248.256 123.66 248.256C123.355 248.256 123.121 248.361 122.957 248.572C122.793 248.779 122.711 249.066 122.711 249.434L121.768 249.445C121.768 248.82 121.947 248.307 122.307 247.904C122.666 247.502 123.117 247.301 123.66 247.301C123.957 247.301 124.242 247.363 124.516 247.488C124.789 247.613 125.098 247.834 125.441 248.15C125.785 248.463 126.082 248.639 126.332 248.678L126.502 248.689C126.799 248.689 127.039 248.576 127.223 248.35C127.41 248.123 127.504 247.824 127.504 247.453L128.4 247.447Z" fill="black"/>
<path fill-rule="evenodd" clip-rule="evenodd" d="M160.026 348.053L157.428 349.553L154.928 345.222L152.33 346.722L146.33 336.33L148.928 334.83L146.428 330.5L149.026 329L160.026 348.053Z" fill="#858384"/>
<path d="M160.025 358H157.025V348H160.025V358Z" fill="#858384"/>
<path d="M161.525 359.041C161.525 360.698 160.182 362.041 158.525 362.041C156.869 362.041 155.525 360.698 155.525 359.041C155.525 357.385 156.869 356.041 158.525 356.041C160.182 356.041 161.525 357.385 161.525 359.041Z" fill="#858384"/>
<path d="M151.525 359C151.525 360.857 152.263 362.637 153.576 363.95C154.888 365.263 156.669 366 158.525 366C160.382 366 162.162 365.263 163.475 363.95C164.788 362.637 165.525 360.857 165.525 359H163.197C163.197 360.239 162.705 361.427 161.829 362.303C160.953 363.18 159.764 363.672 158.525 363.672C157.286 363.672 156.098 363.18 155.222 362.303C154.346 361.427 153.854 360.239 153.854 359H151.525Z" fill="#858384"/>
<path d="M143.4 339.447C143.4 340.064 143.217 340.586 142.85 341.012C142.486 341.434 142.037 341.645 141.502 341.645C141.221 341.645 140.955 341.594 140.705 341.492C140.455 341.387 140.164 341.189 139.832 340.9C139.504 340.611 139.268 340.432 139.123 340.361C138.979 340.291 138.824 340.256 138.66 340.256C138.355 340.256 138.121 340.361 137.957 340.572C137.793 340.779 137.711 341.066 137.711 341.434L136.768 341.445C136.768 340.82 136.947 340.307 137.307 339.904C137.666 339.502 138.117 339.301 138.66 339.301C138.957 339.301 139.242 339.363 139.516 339.488C139.789 339.613 140.098 339.834 140.441 340.15C140.785 340.463 141.082 340.639 141.332 340.678L141.502 340.689C141.799 340.689 142.039 340.576 142.223 340.35C142.41 340.123 142.504 339.824 142.504 339.453L143.4 339.447Z" fill="black"/>
<path d="M61 343H51V344H61V343Z" fill="#858384"/>
<path d="M51.5 343.5C51.5 345.985 49.4853 348 47 348C44.5147 348 42.5 345.985 42.5 343.5C42.5 341.015 44.5147 339 47 339C49.4853 339 51.5 341.015 51.5 343.5Z" fill="#C4C4C4" stroke="#858384"/>
<path d="M50.3887 342.447C50.3887 343.064 50.2051 343.586 49.8379 344.012C49.4746 344.434 49.0254 344.645 48.4902 344.645C48.209 344.645 47.9434 344.594 47.6934 344.492C47.4434 344.387 47.1523 344.189 46.8203 343.9C46.4922 343.611 46.2559 343.432 46.1113 343.361C45.9668 343.291 45.8125 343.256 45.6484 343.256C45.3438 343.256 45.1094 343.361 44.9453 343.572C44.7812 343.779 44.6992 344.066 44.6992 344.434L43.7559 344.445C43.7559 343.82 43.9355 343.307 44.2949 342.904C44.6543 342.502 45.1055 342.301 45.6484 342.301C45.9453 342.301 46.2305 342.363 46.5039 342.488C46.7773 342.613 47.0859 342.834 47.4297 343.15C47.7734 343.463 48.0703 343.639 48.3203 343.678L48.4902 343.689C48.7871 343.689 49.0273 343.576 49.2109 343.35C49.3984 343.123 49.4922 342.824 49.4922 342.453L50.3887 342.447Z" fill="black"/>
<path d="M143.5 273V298" stroke="#858384" stroke-width="3" stroke-dasharray="9 9"/>
<path d="M143.5 273V298" stroke="#858384" stroke-width="3" stroke-dasharray="9 9"/>
<path fill-rule="evenodd" clip-rule="evenodd" d="M430 256.069L427.402 257.569L424.902 253.239L422.305 254.739L416.305 244.346L418.902 242.847L416.402 238.516L419 237.016L430 256.069Z" fill="#858384"/>
<path d="M430 266H427V256H430V266Z" fill="#858384"/>
<path d="M431.525 267.041C431.525 268.698 430.182 270.041 428.525 270.041C426.869 270.041 425.525 268.698 425.525 267.041C425.525 265.385 426.869 264.041 428.525 264.041C430.182 264.041 431.525 265.385 431.525 267.041Z" fill="#858384"/>
<path d="M421.525 267C421.525 268.857 422.263 270.637 423.576 271.95C424.888 273.263 426.669 274 428.525 274C430.382 274 432.162 273.263 433.475 271.95C434.788 270.637 435.525 268.857 435.525 267H433.197C433.197 268.239 432.705 269.427 431.829 270.303C430.953 271.18 429.764 271.672 428.525 271.672C427.286 271.672 426.098 271.18 425.222 270.303C424.346 269.427 423.854 268.239 423.854 267H421.525Z" fill="#858384"/>
<path d="M420 248H414V249H420V248Z" fill="#858384"/>
<path d="M414.5 248.5C414.5 250.985 412.485 253 410 253C407.515 253 405.5 250.985 405.5 248.5C405.5 246.015 407.515 244 410 244C412.485 244 414.5 246.015 414.5 248.5Z" fill="#C4C4C4" stroke="#858384"/>
<path d="M413.426 247.447C413.426 248.064 413.242 248.586 412.875 249.012C412.512 249.434 412.062 249.645 411.527 249.645C411.246 249.645 410.98 249.594 410.73 249.492C410.48 249.387 410.189 249.189 409.857 248.9C409.529 248.611 409.293 248.432 409.148 248.361C409.004 248.291 408.85 248.256 408.686 248.256C408.381 248.256 408.146 248.361 407.982 248.572C407.818 248.779 407.736 249.066 407.736 249.434L406.793 249.445C406.793 248.82 406.973 248.307 407.332 247.904C407.691 247.502 408.143 247.301 408.686 247.301C408.982 247.301 409.268 247.363 409.541 247.488C409.814 247.613 410.123 247.834 410.467 248.15C410.811 248.463 411.107 248.639 411.357 248.678L411.527 248.689C411.824 248.689 412.064 248.576 412.248 248.35C412.436 248.123 412.529 247.824 412.529 247.453L413.426 247.447Z" fill="black"/>
<path d="M413.426 247.447C413.426 248.064 413.242 248.586 412.875 249.012C412.512 249.434 412.062 249.645 411.527 249.645C411.246 249.645 410.98 249.594 410.73 249.492C410.48 249.387 410.189 249.189 409.857 248.9C409.529 248.611 409.293 248.432 409.148 248.361C409.004 248.291 408.85 248.256 408.686 248.256C408.381 248.256 408.146 248.361 407.982 248.572C407.818 248.779 407.736 249.066 407.736 249.434L406.793 249.445C406.793 248.82 406.973 248.307 407.332 247.904C407.691 247.502 408.143 247.301 408.686 247.301C408.982 247.301 409.268 247.363 409.541 247.488C409.814 247.613 410.123 247.834 410.467 248.15C410.811 248.463 411.107 248.639 411.357 248.678L411.527 248.689C411.824 248.689 412.064 248.576 412.248 248.35C412.436 248.123 412.529 247.824 412.529 247.453L413.426 247.447Z" fill="black"/>
<path d="M499.4 341.447C499.4 342.064 499.217 342.586 498.85 343.012C498.486 343.434 498.037 343.645 497.502 343.645C497.221 343.645 496.955 343.594 496.705 343.492C496.455 343.387 496.164 343.189 495.832 342.9C495.504 342.611 495.268 342.432 495.123 342.361C494.979 342.291 494.824 342.256 494.66 342.256C494.355 342.256 494.121 342.361 493.957 342.572C493.793 342.779 493.711 343.066 493.711 343.434L492.768 343.445C492.768 342.82 492.947 342.307 493.307 341.904C493.666 341.502 494.117 341.301 494.66 341.301C494.957 341.301 495.242 341.363 495.516 341.488C495.789 341.613 496.098 341.834 496.441 342.15C496.785 342.463 497.082 342.639 497.332 342.678L497.502 342.689C497.799 342.689 498.039 342.576 498.223 342.35C498.41 342.123 498.504 341.824 498.504 341.453L499.4 341.447Z" fill="black"/>
<path d="M428.5 273V297" stroke="#858384" stroke-width="3" stroke-dasharray="9 9"/>
<path d="M158.5 365V381" stroke="#858384" stroke-width="3" stroke-dasharray="6 6"/>
<path d="M66.5 369V418" stroke="#858384" stroke-width="3" stroke-dasharray="6 6"/>
<path d="M143.5 157V206" stroke="#858384" stroke-width="3" stroke-dasharray="6 6"/>
<path d="M66.5 295V308" stroke="#858384" stroke-width="3" stroke-dasharray="6 6"/>
<path d="M176 296.5H65" stroke="#858384" stroke-width="3" stroke-dasharray="6 6"/>
<path d="M423 379.5H157" stroke="#858384" stroke-width="3" stroke-dasharray="6 6"/>
<path d="M68 331H65V316H68V331Z" fill="#858384"/>
<path d="M63 331H70V333H63V331Z" fill="#858384"/>
<path d="M67.7988 334.01C67.7988 334.838 67.1273 335.51 66.2988 335.51C65.4704 335.51 64.7988 334.838 64.7988 334.01C64.7988 333.182 65.4704 332.51 66.2988 332.51C67.1273 332.51 67.7988 333.182 67.7988 334.01Z" stroke="#858384"/>
<path fill-rule="evenodd" clip-rule="evenodd" d="M66.4987 313.721L60.1348 320.084L61.549 321.499L66.4991 316.549L71.4492 321.499L72.8634 320.085L66.4995 313.721H66.4991H66.4987Z" fill="#858384"/>
<path fill-rule="evenodd" clip-rule="evenodd" d="M66.4987 306.632L60.1348 312.996L61.549 314.41L66.4991 309.46L71.4492 314.41L72.8634 312.996L66.4995 306.632H66.4991H66.4987Z" fill="#858384"/>
<path d="M68 361H65V352H68V361Z" fill="#858384"/>
<path fill-rule="evenodd" clip-rule="evenodd" d="M66.3646 363.728L72.7285 357.365L71.3143 355.95L66.3642 360.9L61.4141 355.95L59.9998 357.364L66.3638 363.728H66.3641H66.3646Z" fill="#858384"/>
<path fill-rule="evenodd" clip-rule="evenodd" d="M66.3646 370.817L72.7285 364.453L71.3143 363.039L66.3642 367.989L61.4141 363.039L59.9998 364.453L66.3638 370.817H66.3641H66.3646Z" fill="#858384"/>
<path fill-rule="evenodd" clip-rule="evenodd" d="M68.0004 352.042L65.4023 353.542L62.9024 349.212L60.3047 350.711L54.3047 340.319L56.9024 338.819L54.4023 334.489L57.0004 332.989L68.0004 352.042Z" fill="#858384"/>
<path d="M514.5 369.02V418.02" stroke="#858384" stroke-width="3" stroke-dasharray="6 6"/>
<path d="M513 361.02H516V351.02H513V361.02Z" fill="#858384"/>
<path fill-rule="evenodd" clip-rule="evenodd" d="M514.365 363.728L520.729 357.365L519.314 355.95L514.364 360.9L509.414 355.95L508 357.364L514.364 363.728H514.365Z" fill="#858384"/>
<path fill-rule="evenodd" clip-rule="evenodd" d="M514.365 370.728L520.729 364.364L519.314 362.95L514.364 367.9L509.414 362.95L508 364.364L514.364 370.728H514.365Z" fill="#858384"/>
<path fill-rule="evenodd" clip-rule="evenodd" d="M515.999 351.053L513.344 352.553L510.788 348.222L508.133 349.722L502 339.33L504.655 337.83L502.1 333.5L504.756 332L515.999 351.053Z" fill="#858384"/>
<path d="M402 300H405V291H402V300Z" fill="#858384"/>
<path d="M514.5 294V307" stroke="#858384" stroke-width="3" stroke-dasharray="6 6"/>
<path d="M423.5 297V381" stroke="#858384" stroke-width="3" stroke-dasharray="6 6"/>
<path d="M428 158V201" stroke="#858384" stroke-width="3" stroke-dasharray="6 6"/>
<path d="M405 295.5L516 295.5" stroke="#858384" stroke-width="3" stroke-dasharray="6 6"/>
<path d="M516 330H513V315H516V330Z" fill="#858384"/>
<path d="M510.99 329.691H517.99V331.691H510.99V329.691Z" fill="#858384"/>
<path d="M515.789 332.701C515.789 333.53 515.117 334.201 514.289 334.201C513.461 334.201 512.789 333.53 512.789 332.701C512.789 331.873 513.461 331.201 514.289 331.201C515.117 331.201 515.789 331.873 515.789 332.701Z" stroke="#858384"/>
<path fill-rule="evenodd" clip-rule="evenodd" d="M514.489 312.412L508.125 318.776L509.539 320.19L514.489 315.24L519.439 320.19L520.854 318.776L514.49 312.412H514.489Z" fill="#858384"/>
<path fill-rule="evenodd" clip-rule="evenodd" d="M514.489 305.323L508.125 311.687L509.539 313.101L514.489 308.151L519.439 313.101L520.854 311.687L514.49 305.323H514.489Z" fill="#858384"/>
<path fill-rule="evenodd" clip-rule="evenodd" d="M49.1761 128.66C48.8417 124.985 49.0718 60.1378 49.1516 37.6389C49.1664 33.4862 49.1761 30.7762 49.1761 30.1598C49.1761 26.2032 52.3621 24.3122 55.9087 24.0282C59.8097 23.7161 63.4946 26.0071 63.8296 30.1598C63.9162 31.2323 63.958 38.0179 63.9725 47.4938H75.3898V40.7706C75.3898 38.8071 76.982 37.2153 78.9451 37.2153H193.521C195.484 37.2153 197.076 38.8071 197.076 40.7706V47.4938H209.063C209.054 38.4641 209.029 31.8301 208.979 30.1598C208.781 23.434 215.118 24.0282 215.118 24.0282C215.118 24.0282 221.654 23.434 221.852 30.1598C222.049 36.8856 222.049 125.296 221.852 128.66C221.654 132.023 218.683 139.735 208.979 139.736C207.176 139.736 201.07 139.757 192.291 139.786H192.254H192.251C153.77 139.917 64.0595 140.219 59.8692 139.736C54.7206 139.141 49.5721 133.012 49.1761 128.66ZM197.076 104.76V111.483C197.076 113.446 195.484 115.038 193.521 115.038H78.9451C76.982 115.038 75.3898 113.446 75.3898 111.483V104.76H63.8925C63.8736 111.294 63.8555 116.722 63.8437 120.15C63.8362 122.339 65.6118 124.111 67.8049 124.111H205.028C207.213 124.111 208.984 122.361 208.988 120.18C208.995 116.755 209.006 111.314 209.017 104.76H197.076Z" fill="#C4C4C4"/>
<path d="M195 48H206V106H195V48Z" stroke="#2A292E" stroke-width="2"/>
<path d="M61 48H72V106H61V48Z" stroke="#2A292E" stroke-width="2"/>
<path d="M46.1761 129.66C45.78 125.306 46.1759 35.1164 46.1761 31.1598C46.1761 27.2032 49.3621 25.3122 52.9087 25.0282C56.8097 24.7161 60.4946 27.0071 60.8296 31.1598C61.1224 34.7867 60.9038 103.748 60.8437 121.149C60.8362 123.338 62.6118 125.111 64.8049 125.111H202.028C204.213 125.111 205.984 123.36 205.988 121.18C206.025 104.112 206.152 37.0252 205.979 31.1598C205.781 24.434 212.118 25.0282 212.118 25.0282C212.118 25.0282 218.654 24.434 218.852 31.1598C219.049 37.8855 219.049 126.296 218.852 129.66C218.654 133.022 215.683 140.734 205.979 140.735C196.277 140.737 62.0177 141.33 56.8692 140.735C51.7206 140.141 46.5721 134.012 46.1761 129.66Z" stroke="#2A292E" stroke-width="2"/>
<path d="M191.406 39H75.5937C73.6094 39 72 40.5955 72 42.5634V113.437C72 115.405 73.6094 117 75.5937 117H191.406C193.391 117 195 115.405 195 113.437V42.5634C195 40.5955 193.391 39 191.406 39Z" stroke="#2A292E" stroke-width="2"/>
<path d="M131 58H89V99H131V58Z" fill="#2B2B2B" stroke="#2A292E"/>
<path fill-rule="evenodd" clip-rule="evenodd" d="M119.123 61L109.782 61.0015L99 80.3301H108.063L100.438 94L122 74.9467L111.69 74.3262L119.123 61Z" fill="white"/>
<path fill-rule="evenodd" clip-rule="evenodd" d="M119.123 61L109.782 61.0015L99 80.3301H108.063L100.438 94L122 74.9467L111.69 74.3262L119.123 61Z" fill="white"/>
<path d="M110.207 61.4636V60.0015H109.381L108.968 60.7325L110.207 61.4636ZM119.502 61.4621L120.741 62.1932L121.98 60H119.502V61.4621ZM99.4777 80.4564L98.2389 79.7253L97 81.9185H99.4777V80.4564ZM108.496 80.4564L109.735 81.1874L110.974 78.9943H108.496V80.4564ZM100.908 93.8888L99.6694 93.1577L101.837 95L100.908 93.8888ZM122.365 75.1665L123.295 76.2791L126 73.9178L122.449 73.7073L122.365 75.1665ZM112.105 74.5568L110.866 73.8257L109.706 75.88L112.022 76.0174L112.105 74.5568ZM110.207 62.9257L119.502 62.9242V60L110.207 60.0015V62.9257ZM100.717 81.1874L111.446 62.1946L108.968 60.7325L98.2389 79.7253L100.717 81.1874ZM108.496 78.9943H99.4777V81.9185H108.496V78.9943ZM102.147 94.6198L109.735 81.1874L107.257 79.7253L99.6694 93.1577L102.147 94.6198ZM121.437 74.0553L99.9798 92.7761L101.837 95L123.295 76.2791L121.437 74.0553ZM112.022 76.0174L122.282 76.6271L122.449 73.7073L112.188 73.0976L112.022 76.0174ZM118.264 60.7311L110.866 73.8257L113.344 75.2878L120.741 62.1932L118.264 60.7311Z" fill="white"/>
<path d="M163.5 97C169.851 97 175 91.8513 175 85.5C175 79.1487 169.851 74 163.5 74C157.149 74 152 79.1487 152 85.5C152 91.8513 157.149 97 163.5 97Z" fill="#C4C4C4" stroke="#2B2B2B" stroke-width="2"/>
<path d="M146 69C149.314 69 152 66.3137 152 63C152 59.6863 149.314 57 146 57C142.686 57 140 59.6863 140 63C140 66.3137 142.686 69 146 69Z" fill="#2B2B2B"/>
<path d="M181 69C184.314 69 187 66.3137 187 63C187 59.6863 184.314 57 181 57C177.686 57 175 59.6863 175 63C175 66.3137 177.686 69 181 69Z" fill="#2B2B2B"/>
<path d="M163 69C166.314 69 169 66.3137 169 63C169 59.6863 166.314 57 163 57C159.686 57 157 59.6863 157 63C157 66.3137 159.686 69 163 69Z" fill="#2B2B2B"/>
<path d="M170.224 76.6854L168.951 75.9504L164.541 83.5889L165.814 84.3239L170.224 76.6854Z" fill="#C4C4C4" stroke="#2B2B2B"/>
<path d="M489 44H501V101H489V44Z" stroke="#2A292E" stroke-width="2"/>
<path d="M357 44H368V101H357V44Z" stroke="#2A292E" stroke-width="2"/>
<path d="M341.177 124.66C340.779 120.306 341.177 30.1164 341.177 26.1598C341.177 22.2032 344.381 20.3122 347.948 20.0282C351.872 19.7161 355.578 22.0071 355.915 26.1598C356.21 29.7867 355.991 98.7476 355.93 116.149C355.921 118.338 357.708 120.111 359.913 120.111H497.93C500.127 120.111 501.908 118.36 501.913 116.18C501.95 99.1118 502.078 32.0252 501.904 26.1598C501.705 19.434 508.078 20.0282 508.078 20.0282C508.078 20.0282 514.652 19.434 514.851 26.1598C515.05 32.8855 515.05 121.296 514.851 124.66C514.652 128.022 511.664 135.734 501.904 135.735C492.145 135.737 357.11 136.33 351.932 135.735C346.754 135.141 341.575 129.012 341.177 124.66Z" stroke="#2A292E" stroke-width="2"/>
<path d="M485.465 33H371.535C369.583 33 368 34.575 368 36.5177V106.483C368 108.425 369.583 110 371.535 110H485.465C487.417 110 489 108.425 489 106.483V36.5177C489 34.575 487.417 33 485.465 33Z" stroke="#2A292E" stroke-width="2"/>
<path d="M425 53H385V94H425V53Z" fill="#2B2B2B" stroke="#2A292E"/>
<path fill-rule="evenodd" clip-rule="evenodd" d="M415.123 56L405.782 56.0015L395 75.3301H404.063L396.438 89L418 69.9467L407.69 69.3262L415.123 56Z" fill="white"/>
<path fill-rule="evenodd" clip-rule="evenodd" d="M415.123 56L405.782 56.0015L395 75.3301H404.063L396.438 89L418 69.9467L407.69 69.3262L415.123 56Z" fill="white"/>
<path d="M405.662 56.4636V55.0015H404.808L404.381 55.7325L405.662 56.4636ZM415.278 56.4621L416.56 57.1932L417.842 55H415.278V56.4621ZM394.563 75.4564L393.282 74.7253L392 76.9185H394.563V75.4564ZM403.892 75.4564L405.174 76.1874L406.455 73.9943H403.892V75.4564ZM396.043 88.8888L394.761 88.1577L397.003 90L396.043 88.8888ZM418.24 70.1665L419.202 71.2791L422 68.9178L418.327 68.7073L418.24 70.1665ZM407.626 69.5568L406.344 68.8257L405.144 70.88L407.54 71.0174L407.626 69.5568ZM405.662 57.9257L415.278 57.9242V55L405.662 55.0015V57.9257ZM395.845 76.1874L406.944 57.1946L404.381 55.7325L393.282 74.7253L395.845 76.1874ZM403.892 73.9943H394.563V76.9185H403.892V73.9943ZM397.325 89.6198L405.174 76.1874L402.611 74.7253L394.761 88.1577L397.325 89.6198ZM417.279 69.0553L395.083 87.7761L397.003 90L419.202 71.2791L417.279 69.0553ZM407.54 71.0174L418.154 71.6271L418.327 68.7073L407.712 68.0976L407.54 71.0174ZM413.997 55.7311L406.344 68.8257L408.908 70.2878L416.56 57.1932L413.997 55.7311Z" fill="white"/>
<path d="M459 92C465.627 92 471 86.6274 471 80C471 73.3726 465.627 68 459 68C452.373 68 447 73.3726 447 80C447 86.6274 452.373 92 459 92Z" fill="#C4C4C4" stroke="#2B2B2B" stroke-width="2"/>
<path d="M441.5 65C444.538 65 447 62.3137 447 59C447 55.6863 444.538 53 441.5 53C438.462 53 436 55.6863 436 59C436 62.3137 438.462 65 441.5 65Z" fill="#2B2B2B"/>
<path d="M476.5 65C479.538 65 482 62.3137 482 59C482 55.6863 479.538 53 476.5 53C473.462 53 471 55.6863 471 59C471 62.3137 473.462 65 476.5 65Z" fill="#2B2B2B"/>
<path d="M459 65C462.314 65 465 62.3137 465 59C465 55.6863 462.314 53 459 53C455.686 53 453 55.6863 453 59C453 62.3137 455.686 65 459 65Z" fill="#2B2B2B"/>
<path d="M465.748 71.8332L464.475 71.0985L460.067 78.7343L461.339 79.469L465.748 71.8332Z" fill="#C4C4C4" stroke="#2B2B2B"/>
<path d="M145 156H142V201H145V156Z" fill="#352295"/>
<path d="M426.5 157H429.5V201H426.5V157Z" fill="#352295"/>
<path fill-rule="evenodd" clip-rule="evenodd" d="M424.388 214.004C423.905 214.295 423.455 214.645 423.05 215.05C421.737 216.363 421 218.144 421 220H423.328C423.328 218.761 423.82 217.573 424.696 216.697C425.572 215.82 426.761 215.328 428 215.328C429.239 215.328 430.428 215.82 431.304 216.697C432.18 217.573 432.672 218.761 432.672 220H435C435 218.144 434.263 216.363 432.95 215.05C431.996 214.097 430.797 213.447 429.5 213.163V202H426.5V213.163C425.754 213.326 425.041 213.611 424.388 214.004ZM431.5 235H429.5V222.557C430.396 222.039 431 221.069 431 219.958C431 218.302 429.657 216.958 428 216.958C426.343 216.958 425 218.302 425 219.958C425 221.069 425.604 222.039 426.5 222.557V235H425.15L425.055 234.587L422.132 235.262L423.257 240.134L420.334 240.808L422 248H414.976C414.725 245.473 412.593 243.5 410 243.5C407.238 243.5 405 245.739 405 248.5C405 251.261 407.238 253.5 410 253.5C412.593 253.5 414.725 251.527 414.976 249H422H422.225L423.033 252.501L425.956 251.826L427 256.347V264.458C426.117 264.98 425.525 265.941 425.525 267.042C425.525 268.698 426.868 270.042 428.525 270.042C430.183 270.042 431.525 268.698 431.525 267.042C431.525 265.92 430.911 264.943 430 264.428L430.004 256.023L430 256L425.612 237H426.268C426.098 237.294 426 237.636 426 238C426 239.104 426.896 240 428 240C429.104 240 430 239.104 430 238C430 237.636 429.902 237.294 429.732 237H431.5V235ZM428 237C427.447 237 427 237.448 427 238C427 238.267 427.104 238.51 427.275 238.69C427.338 238.755 427.409 238.812 427.487 238.859C427.574 238.911 427.671 238.951 427.773 238.974C427.846 238.991 427.922 239 428 239C428.553 239 429 238.552 429 238C429 237.448 428.553 237 428 237ZM421.525 267C421.525 268.856 422.263 270.637 423.575 271.95C424.522 272.897 425.713 273.544 427 273.832V297H430V273.843C431.307 273.562 432.516 272.909 433.476 271.95C434.788 270.637 435.525 268.856 435.525 267H433.197C433.197 268.239 432.705 269.427 431.829 270.303C430.953 271.18 429.765 271.672 428.525 271.672C427.286 271.672 426.098 271.18 425.222 270.303C424.346 269.427 423.854 268.239 423.854 267H421.525ZM414.021 248.5L413.98 248.901C413.779 250.921 412.073 252.5 410 252.5C407.791 252.5 406 250.709 406 248.5C406 246.291 407.791 244.5 410 244.5C412.073 244.5 413.779 246.079 413.98 248.099L414.021 248.5Z" fill="#352295"/>
<path fill-rule="evenodd" clip-rule="evenodd" d="M500.951 343C500.7 345.527 498.568 347.5 495.976 347.5C493.214 347.5 490.976 345.261 490.976 342.5C490.976 339.739 493.214 337.5 495.976 337.5C498.568 337.5 500.7 339.473 500.951 342H508.998V343H500.951Z" fill="white"/>
<path d="M500.951 343V342H500.045L499.956 342.901L500.951 343ZM500.951 342L499.956 342.099L500.045 343H500.951V342ZM508.998 342H509.998V341H508.998V342ZM508.998 343V344H509.998V343H508.998ZM499.956 342.901C499.755 344.922 498.049 346.5 495.976 346.5V348.5C499.087 348.5 501.645 346.132 501.946 343.099L499.956 342.901ZM495.976 346.5C493.766 346.5 491.976 344.709 491.976 342.5H489.976C489.976 345.814 492.662 348.5 495.976 348.5V346.5ZM491.976 342.5C491.976 340.291 493.766 338.5 495.976 338.5V336.5C492.662 336.5 489.976 339.186 489.976 342.5H491.976ZM495.976 338.5C498.049 338.5 499.755 340.079 499.956 342.099L501.946 341.901C501.645 338.868 499.087 336.5 495.976 336.5V338.5ZM500.951 343H508.998V341H500.951V343ZM507.998 342V343H509.998V342H507.998ZM508.998 342H500.951V344H508.998V342Z" fill="#858384"/>
<path fill-rule="evenodd" clip-rule="evenodd" d="M138.551 215.05C139.504 214.097 140.705 213.447 142 213.163V202H145V213.163C146.297 213.447 147.498 214.097 148.451 215.05C149.764 216.363 150.5 218.144 150.5 220H148.172C148.172 218.761 147.68 217.573 146.805 216.697C145.928 215.82 144.74 215.328 143.5 215.328C142.262 215.328 141.074 215.82 140.197 216.697C139.32 217.573 138.828 218.761 138.828 220H136.5C136.5 218.144 137.238 216.363 138.551 215.05ZM146.5 219.958C146.5 221.069 145.898 222.039 145 222.557V235H147V237H145.232C145.404 237.294 145.5 237.636 145.5 238C145.5 239.104 144.605 240 143.5 240C142.396 240 141.5 239.104 141.5 238C141.5 237.636 141.598 237.294 141.768 237H140.605L145 256V264.443C145.898 264.961 146.5 265.931 146.5 267.042C146.5 268.698 145.158 270.042 143.5 270.042C141.844 270.042 140.5 268.698 140.5 267.042C140.5 265.931 141.104 264.961 142 264.443V256.378L140.953 251.839L138.031 252.514L137.221 249H137H130C129.75 251.527 127.617 253.5 125.025 253.5C122.264 253.5 120.025 251.261 120.025 248.5C120.025 245.739 122.264 243.5 125.025 243.5C127.617 243.5 129.75 245.473 130 248H137L135.332 240.821L138.254 240.147L137.129 235.275L140.053 234.6L140.145 235H142V222.557C141.104 222.039 140.5 221.069 140.5 219.958C140.5 218.302 141.844 216.958 143.5 216.958C145.158 216.958 146.5 218.302 146.5 219.958ZM143.508 237C142.945 237.003 142.5 237.45 142.5 238C142.5 238.552 142.949 239 143.5 239C144.053 239 144.5 238.552 144.5 238C144.5 237.45 144.057 237.003 143.508 237ZM136.5 267C136.5 268.856 137.238 270.637 138.551 271.95C139.504 272.903 140.705 273.553 142 273.837V295H145V273.837C146.297 273.553 147.498 272.903 148.451 271.95C149.764 270.637 150.5 268.856 150.5 267H148.172C148.172 268.239 147.68 269.427 146.805 270.303C145.928 271.18 144.74 271.672 143.5 271.672C142.262 271.672 141.074 271.18 140.197 270.303C139.32 269.427 138.828 268.239 138.828 267H136.5ZM129.045 248.5L129.006 248.901C128.805 250.921 127.1 252.5 125.025 252.5C122.816 252.5 121.025 250.709 121.025 248.5C121.025 246.291 122.816 244.5 125.025 244.5C127.1 244.5 128.805 246.079 129.006 248.099L129.045 248.5Z" fill="#352295"/>
<path fill-rule="evenodd" clip-rule="evenodd" d="M570 14.9513V17.4187V37.1537V39.6211V59.3636V61.8309V81.5704V84.0377V103.773V106.24V125.982V128.45V148.188V150.655V162.549V164H568.551H563.642H561.19H541.564H539.112H519.488H517.035H497.411H494.959H475.333H472.88H453.259H450.805H431.178H428.725H409.101H406.647H387.026H384.574H364.944H362.492H342.867H340.415H320.794H318.34H298.713H296.26H290.449H289V162.549V156.697V154.23V134.489V132.021V112.286V109.819V90.0795V87.6123V67.8684V65.4012V45.6666V43.1992V23.4607V20.9934V1.45133V1.25162V0.860635V0H289.855H290.209H290.449H309.831H312.283H331.909H334.361H353.986H356.438H376.062H378.516H398.14H400.593H420.219H422.671H442.295H444.748H464.376H466.829H486.45H488.902H508.529H510.981H530.609H533.063H552.682H555.136H568.551H570V1.45133V14.9513ZM554.126 1.45133L568.551 15.9608V35.696L534.505 1.45133H554.126ZM532.052 1.45133L568.551 38.1634V57.9051L512.424 1.45133H532.052ZM509.971 1.45133L568.551 60.3723V80.1133L490.345 1.45133H509.971ZM487.893 1.45133L568.551 82.5805V102.316L468.272 1.45133H487.893ZM465.819 1.45133L568.551 104.783V124.524L446.192 1.45133H465.819ZM443.738 1.45133L568.551 126.991V146.731L424.114 1.45133H443.738ZM421.661 1.45133L568.551 149.198V162.549H562.2L402.035 1.45133H421.661ZM399.583 1.45133L559.746 162.549H540.122L379.958 1.45133H399.583ZM377.506 1.45133L537.669 162.549H518.045L357.882 1.45133H377.506ZM355.428 1.45133L515.593 162.549H495.967L335.804 1.45133H355.428ZM333.351 1.45133L493.515 162.549H473.89L313.727 1.45133H333.351ZM311.273 1.45133L471.438 162.549H451.815L291.652 1.45133H311.273ZM290.449 2.70934L449.363 162.549H429.735L290.449 22.4512V2.70934ZM290.449 24.9186V44.6571L407.657 162.549H427.281L290.449 24.9186ZM405.205 162.549L290.449 47.1245V66.8598L385.584 162.549H405.205ZM383.13 162.549L290.449 69.327V89.0709L363.502 162.549H383.13ZM361.049 162.549L290.449 91.5381V111.276L341.425 162.549H361.049ZM338.971 162.549L290.449 113.743V133.479L319.35 162.549H338.971ZM316.898 162.549L290.449 135.946V155.688L297.27 162.549H316.898ZM294.818 162.549L290.449 158.156V162.549H294.818ZM556.579 1.45133H568.551V13.4934L556.579 1.45133Z" fill="black"/>
<path fill-rule="evenodd" clip-rule="evenodd" d="M402.001 291H405.001V294H422.001H425.001H516.001V297V306.833L520.854 311.687L519.44 313.101L514.49 308.151L509.54 313.101L508.126 311.687L513.001 306.812V297H425.001V378V381H422.001H157.002V378V365.832C155.715 365.544 154.523 364.897 153.576 363.95C152.264 362.637 151.527 360.856 151.527 359H153.855C153.855 360.239 154.348 361.427 155.223 362.303C156.1 363.18 157.287 363.672 158.527 363.672C159.766 363.672 160.953 363.18 161.83 362.303C162.705 361.427 163.197 360.239 163.197 359H165.527C165.527 360.856 164.789 362.637 163.477 363.95C162.518 364.909 161.307 365.562 160.002 365.843V378H422.001V297H405.001V300H402.001V297V294V291ZM179 292H176V295H68.002H65.002V298V308H65.1309L60.1367 312.996L61.5508 314.41L66.5 309.46L71.4512 314.41L72.8652 312.996L67.8691 308H68.002V298H156.502V305.163C155.205 305.447 154.004 306.097 153.051 307.05C151.738 308.363 151.002 310.144 151.002 312H153.33C153.33 310.761 153.822 309.573 154.697 308.697C155.574 307.82 156.762 307.328 158.002 307.328C159.24 307.328 160.428 307.82 161.305 308.697C162.18 309.573 162.672 310.761 162.672 312H165.002C165.002 310.144 164.264 308.363 162.951 307.05C161.998 306.097 160.797 305.447 159.502 305.163V298H176V301H179L179.002 298L179 295V292ZM159.502 327H161.502V329H159.734C159.904 329.294 160.002 329.636 160.002 330C160.002 331.104 159.105 332 158.002 332C156.896 332 156.002 331.104 156.002 330C156.002 329.636 156.098 329.294 156.27 329H155.643L160.027 348.02V356.443C160.924 356.961 161.527 357.931 161.527 359.042C161.527 360.698 160.184 362.042 158.527 362.042C156.869 362.042 155.527 360.698 155.527 359.042C155.527 357.931 156.129 356.961 157.027 356.443V348.33L155.986 343.821L153.062 344.496L152.256 341H144.949C144.699 343.527 142.568 345.5 139.975 345.5C137.213 345.5 134.975 343.261 134.975 340.5C134.975 337.739 137.213 335.5 139.975 335.5C142.568 335.5 144.699 337.473 144.949 340H152.025L150.363 332.803L153.285 332.128L152.162 327.257L155.084 326.582L155.182 327H156.502V314.557C156.045 314.293 155.664 313.913 155.4 313.456C155.258 313.208 155.148 312.938 155.082 312.652C155.029 312.43 155.002 312.197 155.002 311.958C155.002 310.302 156.344 308.958 158.002 308.958C159.658 308.958 161.002 310.302 161.002 311.958C161.002 313.069 160.398 314.039 159.502 314.557V327ZM158.652 329.241C158.479 329.092 158.254 329.001 158.008 329C157.555 329.003 157.184 329.289 157.053 329.685C157.02 329.784 157.002 329.89 157.002 330C157.002 330.552 157.449 331 158.002 331C158.553 331 159.002 330.552 159.002 330C159.002 329.812 158.949 329.636 158.859 329.486C158.803 329.393 158.732 329.311 158.652 329.241ZM65.002 318.048V331H63.1602L63.0645 330.588L60.1426 331.263L61.2656 336.135L58.3438 336.809L59.7734 343H51.9746C51.7246 340.473 49.5938 338.5 47 338.5C44.2383 338.5 42 340.739 42 343.5C42 346.261 44.2383 348.5 47 348.5C49.5938 348.5 51.7246 346.527 51.9746 344H60.0039L61.043 348.502L63.9668 347.827L65.002 352.311V359.536L61.416 355.95L60.002 357.364L66.3652 363.728L72.7305 357.364L71.3164 355.95L68.002 359.265L68.0137 352.024L63.6211 333H64.5723C64.4004 333.296 64.3008 333.642 64.3008 334.01C64.3008 335.115 65.1953 336.01 66.3008 336.01C67.0312 336.01 67.6719 335.617 68.0215 335.03C68.1035 334.891 68.1699 334.741 68.2168 334.583C68.2715 334.401 68.3008 334.209 68.3008 334.01C68.3008 333.72 68.2402 333.444 68.1289 333.195C68.0977 333.128 68.0645 333.063 68.0273 333H70.002V331H68.002V318.05L71.4512 321.499L72.8652 320.084L66.5 313.72L60.1367 320.084L61.5508 321.499L65.002 318.048ZM47 339.5C49.209 339.5 51 341.291 51 343.5C51 345.709 49.209 347.5 47 347.5C44.791 347.5 43 345.709 43 343.5C43 341.291 44.791 339.5 47 339.5ZM66.3008 335.01C66.8516 335.01 67.3008 334.562 67.3008 334.01C67.3008 333.91 67.2871 333.814 67.2598 333.723C67.2246 333.606 67.168 333.498 67.0957 333.403C66.9121 333.164 66.623 333.01 66.3008 333.01C65.748 333.01 65.3008 333.458 65.3008 334.01C65.3008 334.562 65.748 335.01 66.3008 335.01ZM68.002 369.182L72.7305 364.453L71.3164 363.039L66.3652 367.989L61.416 363.039L60.002 364.453L65.002 369.453V418H68.002V369.182ZM516.001 316.751L519.44 320.19L520.854 318.776L514.49 312.412L508.126 318.776L509.54 320.19L513.001 316.729V329.691H511.079L511.054 329.581L508.131 330.256L509.256 335.127L506.333 335.802L507.764 342H500.951C500.7 339.473 498.568 337.5 495.976 337.5C493.214 337.5 490.976 339.739 490.976 342.5C490.976 345.261 493.214 347.5 495.976 347.5C498.568 347.5 500.7 345.527 500.951 343H507.998L509.032 347.495L511.955 346.82L513.001 351.351V359.536L509.415 355.95L508.001 357.364L514.365 363.728L520.729 357.364L519.315 355.95L516.001 359.264L516.003 351.017L511.541 331.691H512.563C512.39 331.988 512.29 332.333 512.29 332.701C512.29 333.806 513.186 334.701 514.29 334.701C515.395 334.701 516.29 333.806 516.29 332.701C516.29 332.55 516.273 332.402 516.241 332.259L516.21 332.139C516.192 332.08 516.172 332.021 516.149 331.964L516.11 331.873L516.094 331.837C516.07 331.787 516.044 331.739 516.017 331.691H517.991V329.691H516.001V316.751ZM514.29 333.701C514.843 333.701 515.29 333.254 515.29 332.701C515.29 332.149 514.843 331.701 514.29 331.701C513.738 331.701 513.29 332.149 513.29 332.701C513.29 332.766 513.296 332.83 513.308 332.891C513.324 332.974 513.351 333.052 513.385 333.126C513.444 333.253 513.529 333.365 513.634 333.456C513.724 333.534 513.827 333.596 513.94 333.638C514.049 333.679 514.167 333.701 514.29 333.701ZM520.729 364.364L516.001 369.093V418H513.001V369.364L508.001 364.364L509.415 362.95L514.365 367.9L519.315 362.95L520.729 364.364ZM143.975 340.5C143.975 342.709 142.184 344.5 139.975 344.5C137.766 344.5 135.975 342.709 135.975 340.5C135.975 338.291 137.766 336.5 139.975 336.5C142.184 336.5 143.975 338.291 143.975 340.5ZM499.996 342.5L499.956 342.901C499.755 344.922 498.049 346.5 495.976 346.5C493.767 346.5 491.976 344.709 491.976 342.5C491.976 340.291 493.767 338.5 495.976 338.5C498.049 338.5 499.755 340.079 499.956 342.099L499.996 342.5Z" fill="#352295"/>
</svg>
