<svg width="15%" viewBox="0 0 32 32" fill="none" xmlns="http://www.w3.org/2000/svg">
     <circle cx="16" cy="16" r="15.5" stroke="#5F639D" stroke-opacity="0.5" />
     <path d="M10.6099 25.8312C9.51258 24.5794 8.41528 23.2776 7.71694 21.7253C7.01865 20.073 6.81912 18.1703 7.16829 16.3677C7.51746 14.5651 8.31549 12.8627 9.46273 11.4106C9.36299 12.6624 9.8119 13.9643 10.6598 14.9156C10.161 12.5122 10.9591 9.90846 12.5552 8.00575C14.1513 6.10305 16.346 4.8512 18.6404 4C17.4932 5.20172 17.3436 7.10442 17.7925 8.70674C18.2414 10.309 19.1891 11.711 20.037 13.1631C20.8849 14.6151 21.683 16.1173 21.7329 17.7697C22.1818 16.9185 22.6806 16.0672 22.9799 15.1159C23.2792 14.1645 23.4288 13.1631 23.1794 12.2117C24.0772 13.3133 24.576 14.4148 24.8254 15.8169C25.0748 17.2189 25.025 18.6709 24.8753 20.073C24.6758 21.6252 24.2768 23.2275 23.4288 24.5293C22.4313 26.0815 20.8351 27.1831 19.0894 27.7839C15.9968 28.3348 12.9542 27.8841 10.6099 25.8312Z" fill="#5F639D" fill-opacity="0.5" />
     <path d="M14.3546 27.683C18.5181 29.2987 22.6308 24.4011 20.346 20.6143C20.346 20.5638 20.2952 20.5638 20.2952 20.5133C20.4983 22.5834 19.9905 24.0981 19.0258 24.9565C19.5336 23.7447 19.1781 22.331 18.5688 21.1192C17.9595 19.9579 17.0964 18.8976 16.4363 17.7868C15.7762 16.6255 15.2685 15.3127 15.5732 14C14.3546 14.9088 13.4914 16.2721 13.136 17.7363C12.7806 19.2005 12.9837 20.8163 13.6438 22.1795C12.8821 21.6241 12.3236 20.7153 12.2729 19.756C11.4605 20.7153 10.9527 21.9775 11.0035 23.2398C11.0035 25.209 12.5775 26.9761 14.3546 27.683Z" fill="white" fill-opacity="0.1" />
 </svg>