<svg width="100%" viewBox="0 0 1125 428" fill="none" xmlns="http://www.w3.org/2000/svg">
            <rect x="281.5" y="211.5" width="540" height="202" fill="#E0DBDB" stroke="black" />
            <rect x="0.5" y="63.5" width="159" height="99" fill="#FAFAFB" stroke="black" />
            <rect x="0.5" y="63.5" width="159" height="99" fill="#FAFAFB" stroke="black" />
            <circle cx="45" cy="118" r="38.5" fill="#C6C6C6" stroke="black" stroke-width="3" />
            <mask id="path-5-inside-1" fill="white">
                <path fill-rule="evenodd" clip-rule="evenodd" d="M83.6077 128.5C84.5155 125.154 85 121.634 85 118C85 111.724 83.5547 105.786 80.9788 100.5H9.02116C6.44528 105.786 5 111.724 5 118C5 121.634 5.48447 125.154 6.39234 128.5H83.6077Z" />
            </mask>
            <path fill-rule="evenodd" clip-rule="evenodd" d="M83.6077 128.5C84.5155 125.154 85 121.634 85 118C85 111.724 83.5547 105.786 80.9788 100.5H9.02116C6.44528 105.786 5 111.724 5 118C5 121.634 5.48447 125.154 6.39234 128.5H83.6077Z" fill="white" />
            <path d="M83.6077 128.5V129.5H84.3725L84.5728 128.762L83.6077 128.5ZM80.9788 100.5L81.8778 100.062L81.6039 99.5H80.9788V100.5ZM9.02116 100.5V99.5H8.39605L8.12222 100.062L9.02116 100.5ZM6.39234 128.5L5.42724 128.762L5.62751 129.5H6.39234V128.5ZM84 118C84 121.544 83.5275 124.977 82.6425 128.238L84.5728 128.762C85.5036 125.331 86 121.723 86 118H84ZM80.0799 100.938C82.5907 106.091 84 111.879 84 118H86C86 111.569 84.5187 105.481 81.8778 100.062L80.0799 100.938ZM9.02116 101.5H80.9788V99.5H9.02116V101.5ZM6 118C6 111.879 7.40927 106.091 9.92011 100.938L8.12222 100.062C5.48129 105.481 4 111.569 4 118H6ZM7.35745 128.238C6.47253 124.977 6 121.544 6 118H4C4 121.723 4.49642 125.331 5.42724 128.762L7.35745 128.238ZM83.6077 127.5H6.39234V129.5H83.6077V127.5Z" fill="black" mask="url(#path-5-inside-1)" />
            <rect x="23" y="133" width="44" height="4" fill="black" />
            <circle cx="25.5" cy="141.5" r="2.5" fill="black" />
            <circle cx="64.5" cy="141.5" r="2.5" fill="black" />
            <circle cx="51.5" cy="141.5" r="2.5" fill="black" />
            <circle cx="38.5" cy="141.5" r="2.5" fill="black" />
            <rect x="331.5" y="63.5" width="159" height="99" fill="#FAFAFB" stroke="black" />
            <rect x="331.5" y="63.5" width="159" height="99" fill="#FAFAFB" stroke="black" />
            <circle cx="376" cy="118" r="38.5" fill="#C6C6C6" stroke="black" stroke-width="3" />
            <mask id="path-15-inside-2" fill="white">
                <path fill-rule="evenodd" clip-rule="evenodd" d="M414.608 128.5C415.516 125.154 416 121.634 416 118C416 111.724 414.555 105.786 411.979 100.5H340.021C337.445 105.786 336 111.724 336 118C336 121.634 336.484 125.154 337.392 128.5H414.608Z" />
            </mask>
            <path fill-rule="evenodd" clip-rule="evenodd" d="M414.608 128.5C415.516 125.154 416 121.634 416 118C416 111.724 414.555 105.786 411.979 100.5H340.021C337.445 105.786 336 111.724 336 118C336 121.634 336.484 125.154 337.392 128.5H414.608Z" fill="white" />
            <path d="M414.608 128.5V129.5H415.372L415.573 128.762L414.608 128.5ZM411.979 100.5L412.878 100.062L412.604 99.5H411.979V100.5ZM340.021 100.5V99.5H339.396L339.122 100.062L340.021 100.5ZM337.392 128.5L336.427 128.762L336.628 129.5H337.392V128.5ZM415 118C415 121.544 414.527 124.977 413.643 128.238L415.573 128.762C416.504 125.331 417 121.723 417 118H415ZM411.08 100.938C413.591 106.091 415 111.879 415 118H417C417 111.569 415.519 105.481 412.878 100.062L411.08 100.938ZM340.021 101.5H411.979V99.5H340.021V101.5ZM337 118C337 111.879 338.409 106.091 340.92 100.938L339.122 100.062C336.481 105.481 335 111.569 335 118H337ZM338.357 128.238C337.473 124.977 337 121.544 337 118H335C335 121.723 335.496 125.331 336.427 128.762L338.357 128.238ZM414.608 127.5H337.392V129.5H414.608V127.5Z" fill="black" mask="url(#path-15-inside-2)" />
            <rect x="354" y="133" width="44" height="4" fill="black" />
            <circle cx="356.5" cy="141.5" r="2.5" fill="black" />
            <circle cx="395.5" cy="141.5" r="2.5" fill="black" />
            <circle cx="382.5" cy="141.5" r="2.5" fill="black" />
            <circle cx="369.5" cy="141.5" r="2.5" fill="black" />
            <rect x="965.5" y="63.5" width="159" height="99" fill="#FAFAFB" stroke="black" />
            <rect x="965.5" y="63.5" width="159" height="99" fill="#FAFAFB" stroke="black" />
            <circle cx="1010" cy="118" r="38.5" fill="#C6C6C6" stroke="black" stroke-width="3" />
            <mask id="path-25-inside-3" fill="white">
                <path fill-rule="evenodd" clip-rule="evenodd" d="M1048.61 128.5C1049.52 125.154 1050 121.634 1050 118C1050 111.724 1048.55 105.786 1045.98 100.5H974.021C971.445 105.786 970 111.724 970 118C970 121.634 970.484 125.154 971.392 128.5H1048.61Z" />
            </mask>
            <path fill-rule="evenodd" clip-rule="evenodd" d="M1048.61 128.5C1049.52 125.154 1050 121.634 1050 118C1050 111.724 1048.55 105.786 1045.98 100.5H974.021C971.445 105.786 970 111.724 970 118C970 121.634 970.484 125.154 971.392 128.5H1048.61Z" fill="white" />
            <path d="M1048.61 128.5V129.5H1049.37L1049.57 128.762L1048.61 128.5ZM1045.98 100.5L1046.88 100.062L1046.6 99.5H1045.98V100.5ZM974.021 100.5V99.5H973.396L973.122 100.062L974.021 100.5ZM971.392 128.5L970.427 128.762L970.628 129.5H971.392V128.5ZM1049 118C1049 121.544 1048.53 124.977 1047.64 128.238L1049.57 128.762C1050.5 125.331 1051 121.723 1051 118H1049ZM1045.08 100.938C1047.59 106.091 1049 111.879 1049 118H1051C1051 111.569 1049.52 105.481 1046.88 100.062L1045.08 100.938ZM974.021 101.5H1045.98V99.5H974.021V101.5ZM971 118C971 111.879 972.409 106.091 974.92 100.938L973.122 100.062C970.481 105.481 969 111.569 969 118H971ZM972.357 128.238C971.473 124.977 971 121.544 971 118H969C969 121.723 969.496 125.331 970.427 128.762L972.357 128.238ZM1048.61 127.5H971.392V129.5H1048.61V127.5Z" fill="black" mask="url(#path-25-inside-3)" />
            <rect x="988" y="133" width="44" height="4" fill="black" />
            <circle cx="990.5" cy="141.5" r="2.5" fill="black" />
            <circle cx="1029.5" cy="141.5" r="2.5" fill="black" />
            <circle cx="1016.5" cy="141.5" r="2.5" fill="black" />
            <circle cx="1003.5" cy="141.5" r="2.5" fill="black" />
            <rect x="616.5" y="63.5" width="159" height="99" fill="#FAFAFB" stroke="black" />
            <rect x="616.5" y="63.5" width="159" height="99" fill="#FAFAFB" stroke="black" />
            <circle cx="661" cy="118" r="38.5" fill="#C6C6C6" stroke="black" stroke-width="3" />
            <mask id="path-35-inside-4" fill="white">
                <path fill-rule="evenodd" clip-rule="evenodd" d="M699.608 128.5C700.516 125.154 701 121.634 701 118C701 111.724 699.555 105.786 696.979 100.5H625.021C622.445 105.786 621 111.724 621 118C621 121.634 621.484 125.154 622.392 128.5H699.608Z" />
            </mask>
            <path fill-rule="evenodd" clip-rule="evenodd" d="M699.608 128.5C700.516 125.154 701 121.634 701 118C701 111.724 699.555 105.786 696.979 100.5H625.021C622.445 105.786 621 111.724 621 118C621 121.634 621.484 125.154 622.392 128.5H699.608Z" fill="white" />
            <path d="M699.608 128.5V129.5H700.372L700.573 128.762L699.608 128.5ZM696.979 100.5L697.878 100.062L697.604 99.5H696.979V100.5ZM625.021 100.5V99.5H624.396L624.122 100.062L625.021 100.5ZM622.392 128.5L621.427 128.762L621.628 129.5H622.392V128.5ZM700 118C700 121.544 699.527 124.977 698.643 128.238L700.573 128.762C701.504 125.331 702 121.723 702 118H700ZM696.08 100.938C698.591 106.091 700 111.879 700 118H702C702 111.569 700.519 105.481 697.878 100.062L696.08 100.938ZM625.021 101.5H696.979V99.5H625.021V101.5ZM622 118C622 111.879 623.409 106.091 625.92 100.938L624.122 100.062C621.481 105.481 620 111.569 620 118H622ZM623.357 128.238C622.473 124.977 622 121.544 622 118H620C620 121.723 620.496 125.331 621.427 128.762L623.357 128.238ZM699.608 127.5H622.392V129.5H699.608V127.5Z" fill="black" mask="url(#path-35-inside-4)" />
            <rect x="639" y="133" width="44" height="4" fill="black" />
            <circle cx="641.5" cy="141.5" r="2.5" fill="black" />
            <circle cx="680.5" cy="141.5" r="2.5" fill="black" />
            <circle cx="667.5" cy="141.5" r="2.5" fill="black" />
            <circle cx="654.5" cy="141.5" r="2.5" fill="black" />
            <rect x="167.074" y="114.5" width="3" height="13.9258" transform="rotate(-90 167.074 114.5)" fill="#858384" />
            <rect x="234" y="114.5" width="3" height="97" transform="rotate(-90 234 114.5)" fill="#858384" />
            <rect x="410" y="166" width="3" height="44" fill="#858384" />
            <rect width="3" height="9" transform="matrix(1 0 0 -1 444 310)" fill="#858384" />
            <rect width="3" height="10" transform="matrix(1 0 0 -1 333 370)" fill="#858384" />
            <path d="M172 113L160 119.928L160 106.072L172 113Z" fill="#858384" />
            <path d="M411.572 175L404.644 163L418.5 163L411.572 175Z" fill="#858384" />
            <rect x="78.5" y="12" width="3" height="51" fill="#858384" />
            <path d="M80 18L69.6077 -5.0249e-08L90.3923 1.7668e-06L80 18Z" fill="#858384" />
            <path d="M694.5 170H697.5V210H694.5V170Z" fill="#858384" />
            <path d="M696 175L689.072 163L702.928 163L696 175Z" fill="#858384" />
            <circle cx="198.5" cy="113.5" r="17" stroke="black" />
            <circle cx="216.5" cy="113.5" r="17" stroke="black" />
            <rect x="936" y="114.5" width="3" height="29" transform="rotate(-90 936 114.5)" fill="#858384" />
            <rect x="776" y="114.5" width="3" height="107" transform="rotate(-90 776 114.5)" fill="#858384" />
            <path d="M953 113L965 106.072L965 119.928L953 113Z" fill="#858384" />
            <rect x="1043.5" y="12" width="3" height="51" fill="#858384" />
            <path d="M1045 18L1034.61 -5.0249e-08L1055.39 1.7668e-06L1045 18Z" fill="#858384" />
            <circle cx="900.5" cy="113.5" r="17" stroke="black" />
            <circle cx="918.5" cy="113.5" r="17" stroke="black" />
            <rect x="268.5" y="37.5" width="570" height="389" stroke="black" stroke-dasharray="10 10" />
            <path id="AVR_NN_switch1" fill-rule="evenodd" clip-rule="evenodd" d="M413 265.053L410.402 266.553L407.902 262.222L405.305 263.722L399.305 253.33L401.902 251.83L399.402 247.5L402 246L413 265.053Z" fill="#858384" />
            <rect width="3" height="10" transform="matrix(1 0 0 -1 410 275)" fill="#858384" />
            <path d="M414.5 276.041C414.5 277.698 413.157 279.041 411.5 279.041C409.843 279.041 408.5 277.698 408.5 276.041C408.5 274.385 409.843 273.041 411.5 273.041C413.157 273.041 414.5 274.385 414.5 276.041Z" fill="#858384" />
            <path d="M404.5 276C404.5 277.857 405.237 279.637 406.55 280.95C407.863 282.263 409.643 283 411.5 283C413.357 283 415.137 282.263 416.45 280.95C417.763 279.637 418.5 277.857 418.5 276L416.172 276C416.172 277.239 415.68 278.427 414.803 279.303C413.927 280.18 412.739 280.672 411.5 280.672C410.261 280.672 409.073 280.18 408.197 279.303C407.32 278.427 406.828 277.239 406.828 276L404.5 276Z" fill="#858384" />
            <rect width="3" height="8" transform="matrix(1 0 0 -1 410 223)" fill="#858384" />
            <rect width="3" height="14" transform="matrix(1 0 0 -1 410 245)" fill="#858384" />
            <path d="M414.5 228.959C414.5 230.615 413.157 231.959 411.5 231.959C409.843 231.959 408.5 230.615 408.5 228.959C408.5 227.302 409.843 225.959 411.5 225.959C413.157 225.959 414.5 227.302 414.5 228.959Z" fill="#858384" />
            <path d="M418.5 229C418.5 227.143 417.763 225.363 416.45 224.05C415.137 222.737 413.357 222 411.5 222C409.643 222 407.863 222.737 406.55 224.05C405.237 225.363 404.5 227.143 404.5 229L406.828 229C406.828 227.761 407.32 226.573 408.197 225.697C409.073 224.82 410.261 224.328 411.5 224.328C412.739 224.328 413.927 224.82 414.803 225.697C415.68 226.573 416.172 227.761 416.172 229H418.5Z" fill="#858384" />
            <rect x="408" y="244" width="7" height="2" fill="#858384" />
            <path d="M413 247C413 247.828 412.328 248.5 411.5 248.5C410.672 248.5 410 247.828 410 247C410 246.172 410.672 245.5 411.5 245.5C412.328 245.5 413 246.172 413 247Z" stroke="#858384" />
            <rect width="3" height="8" transform="matrix(1 0 0 -1 694.5 223)" fill="#858384" />
            <rect width="3" height="14" transform="matrix(1 0 0 -1 694.5 245)" fill="#858384" />
            <path d="M699 228.959C699 230.615 697.657 231.959 696 231.959C694.343 231.959 693 230.615 693 228.959C693 227.302 694.343 225.959 696 225.959C697.657 225.959 699 227.302 699 228.959Z" fill="#858384" />
            <path d="M703 229C703 227.143 702.263 225.363 700.95 224.05C699.637 222.737 697.857 222 696 222C694.143 222 692.363 222.737 691.05 224.05C689.737 225.363 689 227.143 689 229L691.328 229C691.328 227.761 691.82 226.573 692.697 225.697C693.573 224.82 694.761 224.328 696 224.328C697.239 224.328 698.427 224.82 699.303 225.697C700.18 226.573 700.672 227.761 700.672 229H703Z" fill="#858384" />
            <rect x="692.5" y="244" width="7" height="2" fill="#858384" />
            <path d="M697.5 247C697.5 247.828 696.828 248.5 696 248.5C695.172 248.5 694.5 247.828 694.5 247C694.5 246.172 695.172 245.5 696 245.5C696.828 245.5 697.5 246.172 697.5 247Z" stroke="#858384" />
            <path fill-rule="evenodd" clip-rule="evenodd" d="M424.5 316.163C423.203 316.447 422.004 317.097 421.05 318.05C419.737 319.363 419 321.143 419 323H421.328C421.328 321.761 421.82 320.573 422.697 319.697C423.573 318.82 424.761 318.328 426 318.328C427.239 318.328 428.427 318.82 429.303 319.697C430.18 320.573 430.672 321.761 430.672 323H433C433 321.143 432.263 319.363 430.95 318.05C429.996 317.097 428.797 316.447 427.5 316.163V309H424.5V316.163ZM425 325.788V338H423V340H424.768C424.598 340.294 424.501 340.636 424.501 341C424.501 342.105 425.396 343 426.501 343C427.605 343 428.501 342.105 428.501 341C428.501 340.636 428.403 340.294 428.233 340H430V338H428V325.195C428.614 324.645 429 323.847 429 322.959C429 321.302 427.657 319.959 426 319.959C424.343 319.959 423 321.302 423 322.959C423 324.265 423.835 325.376 425 325.788ZM426.492 340H426.509C427.058 340.004 427.501 340.45 427.501 341C427.501 341.552 427.053 342 426.501 342C425.949 342 425.501 341.552 425.501 341C425.501 340.45 425.944 340.004 426.492 340Z" fill="#858384" />
            <rect x="397" y="257" width="9" height="1" fill="#858384" />
            <rect x="412" y="352" width="9" height="1" fill="#858384" />
            <path d="M397.475 257.5C397.475 259.985 395.46 262 392.975 262C390.489 262 388.475 259.985 388.475 257.5C388.475 255.015 390.489 253 392.975 253C395.46 253 397.475 255.015 397.475 257.5Z" fill="#C4C4C4" stroke="#858384" />
            <path d="M396.4 256.447C396.4 257.064 396.217 257.586 395.85 258.012C395.486 258.434 395.037 258.645 394.502 258.645C394.221 258.645 393.955 258.594 393.705 258.492C393.455 258.387 393.164 258.189 392.832 257.9C392.504 257.611 392.268 257.432 392.123 257.361C391.979 257.291 391.824 257.256 391.66 257.256C391.355 257.256 391.121 257.361 390.957 257.572C390.793 257.779 390.711 258.066 390.711 258.434L389.768 258.445C389.768 257.82 389.947 257.307 390.307 256.904C390.666 256.502 391.117 256.301 391.66 256.301C391.957 256.301 392.242 256.363 392.516 256.488C392.789 256.613 393.098 256.834 393.441 257.15C393.785 257.463 394.082 257.639 394.332 257.678L394.502 257.689C394.799 257.689 395.039 257.576 395.223 257.35C395.41 257.123 395.504 256.824 395.504 256.453L396.4 256.447Z" fill="black" />
            <path fill-rule="evenodd" clip-rule="evenodd" d="M428.002 359.995L425.404 361.495L422.904 357.165L420.307 358.665L414.307 348.273L416.904 346.773L414.404 342.443L417.002 340.943L428.002 359.995Z" fill="#858384" />
            <path d="M425 370H428V360H425V370Z" fill="#858384" />
            <path d="M429.5 371.083C429.5 372.74 428.157 374.083 426.5 374.083C424.843 374.083 423.5 372.74 423.5 371.083C423.5 369.426 424.843 368.083 426.5 368.083C428.157 368.083 429.5 369.426 429.5 371.083Z" fill="#858384" />
            <path d="M419.5 371C419.5 372.857 420.237 374.637 421.55 375.95C422.863 377.263 424.643 378 426.5 378C428.357 378 430.137 377.263 431.45 375.95C432.763 374.637 433.5 372.857 433.5 371L431.172 371C431.172 372.239 430.68 373.427 429.803 374.303C428.927 375.18 427.739 375.672 426.5 375.672C425.261 375.672 424.073 375.18 423.197 374.303C422.32 373.427 421.828 372.239 421.828 371L419.5 371Z" fill="#858384" />
            <path d="M411.5 352.5C411.5 354.985 409.485 357 407 357C404.515 357 402.5 354.985 402.5 352.5C402.5 350.015 404.515 348 407 348C409.485 348 411.5 350.015 411.5 352.5Z" fill="#C4C4C4" stroke="#858384" />
            <path d="M410.389 351.447C410.389 352.064 410.205 352.586 409.838 353.012C409.475 353.434 409.025 353.645 408.49 353.645C408.209 353.645 407.943 353.594 407.693 353.492C407.443 353.387 407.152 353.189 406.82 352.9C406.492 352.611 406.256 352.432 406.111 352.361C405.967 352.291 405.812 352.256 405.648 352.256C405.344 352.256 405.109 352.361 404.945 352.572C404.781 352.779 404.699 353.066 404.699 353.434L403.756 353.445C403.756 352.82 403.936 352.307 404.295 351.904C404.654 351.502 405.105 351.301 405.648 351.301C405.945 351.301 406.23 351.363 406.504 351.488C406.777 351.613 407.086 351.834 407.43 352.15C407.773 352.463 408.07 352.639 408.32 352.678L408.49 352.689C408.787 352.689 409.027 352.576 409.211 352.35C409.398 352.123 409.492 351.824 409.492 351.453L410.389 351.447Z" fill="black" />
            <path d="M766.865 351.447C766.865 352.064 766.682 352.586 766.314 353.012C765.951 353.434 765.502 353.645 764.967 353.645C764.686 353.645 764.42 353.594 764.17 353.492C763.92 353.387 763.629 353.189 763.297 352.9C762.969 352.611 762.732 352.432 762.588 352.361C762.443 352.291 762.289 352.256 762.125 352.256C761.82 352.256 761.586 352.361 761.422 352.572C761.258 352.779 761.176 353.066 761.176 353.434L760.232 353.445C760.232 352.82 760.412 352.307 760.771 351.904C761.131 351.502 761.582 351.301 762.125 351.301C762.422 351.301 762.707 351.363 762.98 351.488C763.254 351.613 763.562 351.834 763.906 352.15C764.25 352.463 764.547 352.639 764.797 352.678L764.967 352.689C765.264 352.689 765.504 352.576 765.688 352.35C765.875 352.123 765.969 351.824 765.969 351.453L766.865 351.447Z" fill="black" />
            <line x1="411.5" y1="282" x2="411.5" y2="307" stroke="#858384" stroke-width="3" stroke-dasharray="9 9" />
            <line x1="411.5" y1="282" x2="411.5" y2="307" stroke="#858384" stroke-width="3" stroke-dasharray="9 9" />
            <path id="AVR_NN_switch2" fill-rule="evenodd" clip-rule="evenodd" d="M698.026 265.053L695.428 266.553L692.928 262.222L690.33 263.722L684.33 253.33L686.928 251.83L684.428 247.5L687.026 246L698.026 265.053Z" fill="#858384" />
            <rect width="3" height="10" transform="matrix(1 0 0 -1 695.025 275)" fill="#858384" />
            <path d="M699.525 276.041C699.525 277.698 698.182 279.041 696.525 279.041C694.869 279.041 693.525 277.698 693.525 276.041C693.525 274.385 694.869 273.041 696.525 273.041C698.182 273.041 699.525 274.385 699.525 276.041Z" fill="#858384" />
            <path d="M689.525 276C689.525 277.857 690.263 279.637 691.576 280.95C692.888 282.263 694.669 283 696.525 283C698.382 283 700.162 282.263 701.475 280.95C702.788 279.637 703.525 277.857 703.525 276L701.197 276C701.197 277.239 700.705 278.427 699.829 279.303C698.953 280.18 697.764 280.672 696.525 280.672C695.286 280.672 694.098 280.18 693.222 279.303C692.346 278.427 691.854 277.239 691.854 276L689.525 276Z" fill="#858384" />
            <rect x="682" y="257" width="9" height="1" fill="#858384" />
            <path d="M681.5 257.5C681.5 259.985 679.485 262 677 262C674.515 262 672.5 259.985 672.5 257.5C672.5 255.015 674.515 253 677 253C679.485 253 681.5 255.015 681.5 257.5Z" fill="#C4C4C4" stroke="#858384" />
            <line x1="696.5" y1="282" x2="696.5" y2="306" stroke="#858384" stroke-width="3" stroke-dasharray="9 9" />
            <line x1="426.5" y1="377" x2="426.5" y2="390" stroke="#858384" stroke-width="3" stroke-dasharray="6 6" />
            <line x1="334.5" y1="378" x2="334.5" y2="427" stroke="#858384" stroke-width="3" stroke-dasharray="6 6" />
            <line x1="334.5" y1="304" x2="334.5" y2="315" stroke="#858384" stroke-width="3" stroke-dasharray="6 6" />
            <line x1="444" y1="305.5" x2="333" y2="305.5" stroke="#858384" stroke-width="3" stroke-dasharray="6 6" />
            <line x1="691" y1="388.5" x2="425" y2="388.5" stroke="#858384" stroke-width="3" stroke-dasharray="6 6" />
            <path fill-rule="evenodd" clip-rule="evenodd" d="M328 319.364L334.364 313L334.364 313.001L334.365 313L340.729 319.364L339.314 320.779L334.364 315.828L329.414 320.778L328 319.364ZM334.544 321.13L328.18 327.494L329.594 328.908L333 325.502V338H331V340H332.768C332.598 340.294 332.5 340.635 332.5 341C332.5 342.104 333.396 343 334.5 343C335.605 343 336.5 342.104 336.5 341C336.5 340.635 336.403 340.294 336.233 340H338V338H336V325.415L339.494 328.908L340.908 327.494L335.958 322.544L335.958 322.544L334.544 321.13ZM334.5 340C333.948 340 333.5 340.448 333.5 341C333.5 341.552 333.948 342 334.5 342C335.052 342 335.5 341.552 335.5 341C335.5 340.448 335.052 340 334.5 340Z" fill="#858384" />
            <path fill-rule="evenodd" clip-rule="evenodd" d="M340.729 366.365L334.365 372.728L334.364 372.728L334.364 372.728L328 366.364L329.414 364.95L334.364 369.9L339.314 364.95L340.729 366.365ZM340.729 373.453L334.365 379.817L334.364 379.817L334.364 379.817L328 373.453L329.414 372.039L334.364 376.989L339.314 372.039L340.729 373.453Z" fill="#858384" />
            <path fill-rule="evenodd" clip-rule="evenodd" d="M336 359.973L333.402 361.473L330.902 357.143L328.305 358.643L322.305 348.251L324.902 346.751L322.402 342.421L325 340.921L336 359.973Z" fill="#858384" />
            <path d="M782.5 378.02L782.5 427.02" stroke="#858384" stroke-width="3" stroke-dasharray="6 6" />
            <path d="M781 370.02H784V360.02H781V370.02Z" fill="#858384" />
            <path fill-rule="evenodd" clip-rule="evenodd" d="M782.365 372.728L788.729 366.365L787.314 364.95L782.364 369.9L777.414 364.95L776 366.364L782.364 372.728L782.364 372.728L782.365 372.728Z" fill="#858384" />
            <path fill-rule="evenodd" clip-rule="evenodd" d="M782.365 379.728L788.729 373.364L787.314 371.95L782.364 376.9L777.414 371.95L776 373.364L782.364 379.728L782.364 379.728L782.365 379.728Z" fill="#858384" />
            <path fill-rule="evenodd" clip-rule="evenodd" d="M783.999 360.053L781.344 361.553L778.788 357.222L776.133 358.722L770 348.33L772.655 346.83L770.1 342.5L772.756 341L783.999 360.053Z" fill="#858384" />
            <rect x="673" y="309" width="3" height="9" transform="rotate(180 673 309)" fill="#858384" />
            <line x1="782.5" y1="303" x2="782.5" y2="314" stroke="#858384" stroke-width="3" stroke-dasharray="6 6" />
            <line x1="691.5" y1="306" x2="691.5" y2="390" stroke="#858384" stroke-width="3" stroke-dasharray="6 6" />
            <line y1="-1.5" x2="111" y2="-1.5" transform="matrix(1 8.74228e-08 8.74228e-08 -1 673 303)" stroke="#858384" stroke-width="3" stroke-dasharray="6 6" />
            <path onchange="changeSw1(this,'AVR_NN_switch1')" id="AVR_NN_Input1" fill-rule="evenodd" clip-rule="evenodd" d="M409.999 222.163C408.702 222.447 407.503 223.097 406.549 224.05C405.237 225.363 404.499 227.143 404.499 229H406.827C406.827 227.761 407.319 226.573 408.196 225.697C409.072 224.82 410.26 224.328 411.499 224.328C412.738 224.328 413.926 224.82 414.803 225.697C415.679 226.573 416.171 227.761 416.171 229H418.499C418.499 227.143 417.762 225.363 416.449 224.05C415.496 223.097 414.296 222.447 412.999 222.163V210H409.999V222.163ZM414.999 244H412.999V231.557C413.896 231.038 414.499 230.069 414.499 228.959C414.499 227.302 413.156 225.959 411.499 225.959C409.842 225.959 408.499 227.302 408.499 228.959C408.499 230.069 409.102 231.038 409.999 231.557V244H408.147L408.053 243.593L405.13 244.268L406.255 249.14L403.332 249.814L404.991 257H397.95C397.699 254.473 395.567 252.5 392.975 252.5C390.213 252.5 387.975 254.739 387.975 257.5C387.975 260.261 390.213 262.5 392.975 262.5C395.567 262.5 397.699 260.527 397.95 258H405H405.222L406.031 261.507L408.954 260.832L409.999 265.358V273.443C409.102 273.962 408.499 274.931 408.499 276.041C408.499 277.698 409.842 279.041 411.499 279.041C413.156 279.041 414.499 277.698 414.499 276.041C414.499 274.931 413.896 273.962 412.999 273.443V265.03L413.002 265.029L412.999 265.017V265H412.995L408.609 246H409.767C409.596 246.294 409.499 246.636 409.499 247C409.499 248.105 410.394 249 411.499 249C412.604 249 413.499 248.105 413.499 247C413.499 246.636 413.402 246.294 413.232 246H414.999V244ZM411.505 246C412.055 246.003 412.499 246.45 412.499 247C412.499 247.552 412.051 248 411.499 248C410.947 248 410.499 247.552 410.499 247C410.499 246.45 410.943 246.003 411.493 246H411.505ZM406.549 280.95C405.237 279.637 404.499 277.857 404.499 276H406.827C406.827 277.239 407.319 278.427 408.196 279.303C409.072 280.18 410.26 280.672 411.499 280.672C412.738 280.672 413.926 280.18 414.803 279.303C415.679 278.427 416.171 277.239 416.171 276H418.499C418.499 277.857 417.762 279.637 416.449 280.95C415.496 281.903 414.296 282.553 412.999 282.837L412.999 307H409.999V282.837C408.702 282.553 407.503 281.903 406.549 280.95ZM396.995 257.5L396.955 257.901C396.754 259.921 395.048 261.5 392.975 261.5C390.765 261.5 388.975 259.709 388.975 257.5C388.975 255.291 390.765 253.5 392.975 253.5C395.048 253.5 396.754 255.079 396.955 257.099L396.995 257.5Z" fill="#76BB81" />
            <path fill-rule="evenodd" clip-rule="evenodd" d="M776 319.364L782.364 313L782.364 313.001L782.365 313L788.729 319.364L787.314 320.779L782.364 315.828L777.414 320.778L776 319.364ZM782.544 321.13L776.18 327.494L777.594 328.908L781 325.502V338H779V340H780.768C780.598 340.294 780.5 340.635 780.5 341C780.5 342.104 781.396 343 782.5 343C783.605 343 784.5 342.104 784.5 341C784.5 340.635 784.403 340.294 784.233 340H786V338H784V325.415L787.494 328.908L788.908 327.494L783.958 322.544L783.958 322.544L782.544 321.13ZM782.5 340C781.948 340 781.5 340.448 781.5 341C781.5 341.552 781.948 342 782.5 342C783.052 342 783.5 341.552 783.5 341C783.5 340.448 783.052 340 782.5 340Z" fill="#858384" />
            <rect x="784" y="315" width="3" height="6" transform="rotate(-180 784 315)" fill="#858384" />
            <path id="AVR_NN_Input2" fill-rule="evenodd" clip-rule="evenodd" d="M694.5 222.163C693.203 222.447 692.002 223.097 691.049 224.05C689.736 225.363 689 227.144 689 229H691.328C691.328 227.761 691.82 226.573 692.695 225.697C693.572 224.82 694.76 224.328 696 224.328C697.238 224.328 698.426 224.82 699.303 225.697C700.178 226.573 700.67 227.761 700.67 229H703C703 227.144 702.262 225.363 700.949 224.05C699.996 223.097 698.795 222.447 697.5 222.163V209H694.5V222.163ZM699.5 244H697.5V231.557C698.396 231.039 699 230.069 699 228.958C699 227.302 697.656 225.958 696 225.958C694.342 225.958 693 227.302 693 228.958C693 230.069 693.602 231.039 694.5 231.557V244H693.158L693.059 243.567L690.137 244.242L691.26 249.114L688.338 249.789L690.002 257H682C681.75 254.473 679.617 252.5 677.025 252.5C674.264 252.5 672.025 254.739 672.025 257.5C672.025 260.261 674.264 262.5 677.025 262.5C679.617 262.5 681.75 260.527 682 258H690.002H690.234L691.037 261.481L693.961 260.806L695.025 265.417V273.443C694.127 273.961 693.525 274.931 693.525 276.042C693.525 277.698 694.867 279.042 696.525 279.042C698.182 279.042 699.525 277.698 699.525 276.042C699.525 274.931 698.922 273.961 698.025 273.443V265H698.008L693.621 246H694.268C694.096 246.294 694 246.636 694 247C694 248.104 694.895 249 696 249C697.104 249 698 248.104 698 247C698 246.636 697.902 246.294 697.732 246H699.5V244ZM695.992 246C696.555 246.003 697 246.45 697 247C697 247.552 696.551 248 696 248C695.447 248 695 247.552 695 247C695 246.45 695.443 246.003 695.992 246ZM698 303H695V282.832C693.713 282.544 692.521 281.897 691.574 280.95C690.262 279.637 689.525 277.856 689.525 276H691.854C691.854 277.239 692.346 278.427 693.221 279.303C694.098 280.18 695.285 280.672 696.525 280.672C697.764 280.672 698.951 280.18 699.828 279.303C700.703 278.427 701.195 277.239 701.195 276H703.525C703.525 277.856 702.787 279.637 701.475 280.95C700.516 281.909 699.305 282.562 698 282.843V303ZM681.045 257.5L681.006 257.901C680.805 259.921 679.1 261.5 677.025 261.5C674.816 261.5 673.025 259.709 673.025 257.5C673.025 255.291 674.816 253.5 677.025 253.5C679.1 253.5 680.805 255.079 681.006 257.099L681.045 257.5Z" fill="#76BB81" />
            <path id="input1_on" fill-rule="evenodd" clip-rule="evenodd" d="M81.4997 63V15.4019L90.392 0H69.6074L78.4997 15.4019V63H81.4997ZM169.402 114.5L160 119.928V106.072L169.402 111.5H181V114.5H169.402ZM331 114.5L234 114.5V111.5L331 111.5V114.5ZM413 172.526L418.5 163H404.643L410 172.278V210H413V172.526Z" fill="#76BB81" />
            <path id="input2_on" fill-rule="evenodd" clip-rule="evenodd" d="M1046.5 63V15.4019L1055.39 0H1034.61L1043.5 15.4019V63H1046.5ZM702.929 163L697.5 172.402V210H694.5V172.402L689.072 163H702.929ZM936 111.5V114.5H955.599L965 119.928L965 114.5L965 111.5V106.072L955.599 111.5H936ZM776 114.5V111.5L883 111.5V114.5L776 114.5Z" fill="#76BB81" />
            <mask id="path-123-inside-5" fill="white">
                <path fill-rule="evenodd" clip-rule="evenodd" d="M768.475 353C768.224 355.527 766.093 357.5 763.5 357.5C760.739 357.5 758.5 355.261 758.5 352.5C758.5 349.739 760.739 347.5 763.5 347.5C766.093 347.5 768.224 349.473 768.475 352H776V353H768.475Z" />
            </mask>
            <path d="M768.475 353V352H767.57L767.48 352.901L768.475 353ZM768.475 352L767.48 352.099L767.57 353H768.475V352ZM776 352H777V351H776V352ZM776 353V354H777V353H776ZM767.48 352.901C767.28 354.921 765.574 356.5 763.5 356.5V358.5C766.612 358.5 769.169 356.132 769.47 353.099L767.48 352.901ZM763.5 356.5C761.291 356.5 759.5 354.709 759.5 352.5H757.5C757.5 355.814 760.186 358.5 763.5 358.5V356.5ZM759.5 352.5C759.5 350.291 761.291 348.5 763.5 348.5V346.5C760.186 346.5 757.5 349.186 757.5 352.5H759.5ZM763.5 348.5C765.574 348.5 767.28 350.079 767.48 352.099L769.47 351.901C769.169 348.868 766.612 346.5 763.5 346.5V348.5ZM768.475 353H776V351H768.475V353ZM775 352V353H777V352H775ZM776 352H768.475V354H776V352Z" fill="#858384" mask="url(#path-123-inside-5)" />
            <path d="M680.4 256.447C680.4 257.064 680.217 257.586 679.85 258.012C679.486 258.434 679.037 258.645 678.502 258.645C678.221 258.645 677.955 258.594 677.705 258.492C677.455 258.387 677.164 258.189 676.832 257.9C676.504 257.611 676.268 257.432 676.123 257.361C675.979 257.291 675.824 257.256 675.66 257.256C675.355 257.256 675.121 257.361 674.957 257.572C674.793 257.779 674.711 258.066 674.711 258.434L673.768 258.445C673.768 257.82 673.947 257.307 674.307 256.904C674.666 256.502 675.117 256.301 675.66 256.301C675.957 256.301 676.242 256.363 676.516 256.488C676.789 256.613 677.098 256.834 677.441 257.15C677.785 257.463 678.082 257.639 678.332 257.678L678.502 257.689C678.799 257.689 679.039 257.576 679.223 257.35C679.41 257.123 679.504 256.824 679.504 256.453L680.4 256.447Z" fill="black" />
            <path d="M318 352H327V353H318V352Z" fill="#858384" />
            <path d="M318.475 352.5C318.475 354.985 316.46 357 313.975 357C311.489 357 309.475 354.985 309.475 352.5C309.475 350.015 311.489 348 313.975 348C316.46 348 318.475 350.015 318.475 352.5Z" fill="#C4C4C4" stroke="#858384" />
            <path id="AVR_NN_Line_on" fill-rule="evenodd" clip-rule="evenodd" d="M672.999 309H669.999V306V303V300H672.999V303L689.999 303H692.999H783.999V305V306V314.636L788.728 319.364L787.314 320.779L782.363 315.828L777.413 320.778L775.999 319.364L780.999 314.364V306L692.999 306V387V390L427.999 390H424.999V377.837C423.702 377.553 422.503 376.903 421.549 375.95C420.237 374.637 419.499 372.857 419.499 371H421.827C421.827 372.239 422.319 373.427 423.196 374.303C424.072 375.18 425.26 375.672 426.499 375.672C427.738 375.672 428.926 375.18 429.803 374.303C430.679 373.427 431.171 372.239 431.171 371H433.499C433.499 372.857 432.762 374.637 431.449 375.95C430.496 376.903 429.296 377.553 427.999 377.837V387L689.999 387V306L672.999 306V309ZM784.033 360.08L783.999 360.087V368.264L787.314 364.95L788.728 366.364L782.364 372.728L782.363 372.728L782.363 372.728L775.999 366.364L777.413 364.95L780.999 368.536V360.274L779.985 355.883L777.063 356.557L776.241 353H768.475C768.225 355.527 766.093 357.5 763.5 357.5C760.739 357.5 758.5 355.261 758.5 352.5C758.5 349.739 760.739 347.5 763.5 347.5C766.093 347.5 768.224 349.473 768.475 352H776.01L774.363 344.865L777.286 344.19L776.161 339.318L778.999 338.663V338H780.999V325.502L777.593 328.908L776.179 327.494L782.543 321.13L783.957 322.544L788.907 327.494L787.493 328.908L783.999 325.415V338H785.999V340H784.232C784.402 340.294 784.499 340.635 784.499 341C784.499 342.104 783.604 343 782.499 343C781.395 343 780.499 342.104 780.499 341C780.499 340.635 780.597 340.294 780.767 340H779.397L784.033 360.08ZM783.999 378.093L788.728 373.364L787.314 371.95L782.363 376.9L777.413 371.95L775.999 373.364L780.999 378.364V427H783.999V378.093ZM781.499 341C781.499 340.448 781.947 340 782.499 340C783.051 340 783.499 340.448 783.499 341C783.499 341.552 783.051 342 782.499 342C781.947 342 781.499 341.552 781.499 341ZM421.049 318.05C422.003 317.097 423.202 316.447 424.499 316.163V307L335.999 307V314.636L340.728 319.364L339.314 320.779L334.363 315.828L329.413 320.778L327.999 319.364L332.999 314.364L332.999 307V304L443.999 304V301H446.999V310H443.999V307L427.499 307V316.163C428.796 316.447 429.996 317.097 430.949 318.05C432.262 319.363 432.999 321.143 432.999 323H430.671C430.671 321.761 430.179 320.573 429.303 319.697C428.426 318.82 427.238 318.328 425.999 318.328C424.76 318.328 423.572 318.82 422.696 319.697C421.819 320.573 421.327 321.761 421.327 323H418.999C418.999 321.143 419.737 319.363 421.049 318.05ZM424.999 338V325.788C423.834 325.376 422.999 324.265 422.999 322.959C422.999 321.302 424.342 319.959 425.999 319.959C427.656 319.959 428.999 321.302 428.999 322.959C428.999 323.847 428.613 324.645 427.999 325.195V338H429.999V340H428.232C428.402 340.294 428.5 340.636 428.5 341C428.5 342.105 427.604 343 426.5 343C425.395 343 424.5 342.105 424.5 341C424.5 340.636 424.597 340.294 424.767 340H423.386L428.004 360.001L427.999 360.002V368.484C428.896 369.003 429.499 369.973 429.499 371.083C429.499 372.74 428.156 374.083 426.499 374.083C424.842 374.083 423.499 372.74 423.499 371.083C423.499 369.973 424.102 369.003 424.999 368.484V360.321L423.956 355.804L421.033 356.478L420.23 353H420H413H412.979H412V352.5V352H412.979H413H419.999L418.334 344.786L421.257 344.111L420.132 339.239L422.999 338.577V338H424.999ZM412 352.5C412 352.669 411.992 352.836 411.975 353C411.941 353.345 411.872 353.679 411.771 354C411.134 356.029 409.239 357.5 407 357.5C404.239 357.5 402 355.261 402 352.5C402 349.739 404.239 347.5 407 347.5C409.239 347.5 411.134 348.971 411.771 351C411.872 351.321 411.941 351.655 411.975 352C411.992 352.164 412 352.331 412 352.5ZM426.508 340H426.491C425.943 340.004 425.5 340.45 425.5 341C425.5 341.552 425.948 342 426.5 342C427.052 342 427.5 341.552 427.5 341C427.5 340.45 427.057 340.004 426.508 340ZM328.179 327.494L334.543 321.13L335.957 322.544L335.957 322.544L340.907 327.494L339.493 328.908L335.999 325.415V338H337.999V340H336.232C336.402 340.294 336.499 340.635 336.499 341C336.499 342.104 335.604 343 334.499 343C333.395 343 332.499 342.104 332.499 341C332.499 340.635 332.597 340.294 332.767 340H331.38L335.997 360H335.999V360.008L336 360.012L335.999 360.012V368.265L339.314 364.95L340.728 366.365L334.364 372.728L334.363 372.728L334.363 372.728L327.999 366.364L329.413 364.95L332.999 368.536V360.35L331.952 355.815L329.029 356.49L328.224 353H318.95C318.699 355.527 316.567 357.5 313.975 357.5C311.213 357.5 308.975 355.261 308.975 352.5C308.975 349.739 311.213 347.5 313.975 347.5C316.567 347.5 318.699 349.473 318.95 352H327.993L326.33 344.798L329.253 344.123L328.128 339.251L330.999 338.588V338H332.999V325.502L329.593 328.908L328.179 327.494ZM333.499 341C333.499 340.448 333.947 340 334.499 340C335.051 340 335.499 340.448 335.499 341C335.499 341.552 335.051 342 334.499 342C333.947 342 333.499 341.552 333.499 341ZM332.999 427H335.999L335.999 378.182L340.728 373.453L339.314 372.039L334.363 376.989L329.413 372.039L327.999 373.453L332.999 378.453L332.999 427ZM411 352.5C411 354.709 409.209 356.5 407 356.5C404.791 356.5 403 354.709 403 352.5C403 350.291 404.791 348.5 407 348.5C409.209 348.5 411 350.291 411 352.5ZM763.5 356.5C765.709 356.5 767.5 354.709 767.5 352.5C767.5 350.291 765.709 348.5 763.5 348.5C761.291 348.5 759.5 350.291 759.5 352.5C759.5 354.709 761.291 356.5 763.5 356.5ZM317.975 352.5C317.975 354.709 316.184 356.5 313.975 356.5C311.765 356.5 309.975 354.709 309.975 352.5C309.975 350.291 311.765 348.5 313.975 348.5C316.184 348.5 317.975 350.291 317.975 352.5Z" fill="#76BB81" />
            <path d="M317.4 351.447C317.4 352.064 317.217 352.586 316.85 353.012C316.486 353.434 316.037 353.645 315.502 353.645C315.221 353.645 314.955 353.594 314.705 353.492C314.455 353.387 314.164 353.189 313.832 352.9C313.504 352.611 313.268 352.432 313.123 352.361C312.979 352.291 312.824 352.256 312.66 352.256C312.355 352.256 312.121 352.361 311.957 352.572C311.793 352.779 311.711 353.066 311.711 353.434L310.768 353.445C310.768 352.82 310.947 352.307 311.307 351.904C311.666 351.502 312.117 351.301 312.66 351.301C312.957 351.301 313.242 351.363 313.516 351.488C313.789 351.613 314.098 351.834 314.441 352.15C314.785 352.463 315.082 352.639 315.332 352.678L315.502 352.689C315.799 352.689 316.039 352.576 316.223 352.35C316.41 352.123 316.504 351.824 316.504 351.453L317.4 351.447Z" fill="black" />
        </svg>