<svg width="100%" viewBox="0 0 400 497" fill="none" xmlns="http://www.w3.org/2000/svg">
                <rect x="16.5" y="16.5" width="367" height="130" fill="#E0DBDB" stroke="black" />
                <path fill-rule="evenodd" clip-rule="evenodd" d="M54.0004 67.0057L51.4023 68.5057L48.9024 64.1756L46.3047 65.6754L40.3047 55.2831L42.9024 53.7833L40.4023 49.4531L43.0004 47.9531L54.0004 67.0057Z" fill="#858384" />
                <rect width="3" height="10" transform="matrix(1 0 0 -1 51 77)" fill="#858384" />
                <path d="M55.5254 78.0415C55.5254 79.6983 54.1822 81.0415 52.5254 81.0415C50.8685 81.0415 49.5254 79.6983 49.5254 78.0415C49.5254 76.3846 50.8685 75.0415 52.5254 75.0415C54.1822 75.0415 55.5254 76.3846 55.5254 78.0415Z" fill="#858384" />
                <path d="M45.5254 78C45.5254 79.8565 46.2629 81.637 47.5756 82.9497C48.8884 84.2625 50.6689 85 52.5254 85C54.3819 85 56.1624 84.2625 57.4751 82.9497C58.7879 81.637 59.5254 79.8565 59.5254 78L57.1972 78C57.1972 79.239 56.705 80.4273 55.8289 81.3035C54.9527 82.1796 53.7644 82.6718 52.5254 82.6718C51.2863 82.6718 50.098 82.1796 49.2219 81.3035C48.3458 80.4273 47.8536 79.239 47.8536 78L45.5254 78Z" fill="#858384" />
                <rect width="3" height="8" transform="matrix(1 0 0 -1 51.0254 25)" fill="#858384" />
                <rect width="3" height="14" transform="matrix(1 0 0 -1 51.0254 47)" fill="#858384" />
                <path d="M55.5254 30.9585C55.5254 32.6154 54.1822 33.9585 52.5254 33.9585C50.8685 33.9585 49.5254 32.6154 49.5254 30.9585C49.5254 29.3017 50.8685 27.9585 52.5254 27.9585C54.1822 27.9585 55.5254 29.3017 55.5254 30.9585Z" fill="#858384" />
                <path d="M59.5254 31C59.5254 29.1435 58.7879 27.363 57.4751 26.0503C56.1624 24.7375 54.3819 24 52.5254 24C50.6689 24 48.8884 24.7375 47.5756 26.0503C46.2629 27.363 45.5254 29.1435 45.5254 31L47.8536 31C47.8536 29.761 48.3458 28.5727 49.2219 27.6965C50.098 26.8204 51.2863 26.3282 52.5254 26.3282C53.7644 26.3282 54.9527 26.8204 55.8289 27.6965C56.705 28.5727 57.1972 29.761 57.1972 31H59.5254Z" fill="#858384" />
                <rect x="49.0254" y="46" width="7" height="2" fill="#858384" />
                <path d="M54.0254 49C54.0254 49.8284 53.3538 50.5 52.5254 50.5C51.697 50.5 51.0254 49.8284 51.0254 49C51.0254 48.1716 51.697 47.5 52.5254 47.5C53.3538 47.5 54.0254 48.1716 54.0254 49Z" stroke="#858384" />
                <rect x="38" y="60" width="8" height="1" fill="#858384" />
                <path d="M38.5 60.5C38.5 62.9853 36.4853 65 34 65C31.5147 65 29.5 62.9853 29.5 60.5C29.5 58.0147 31.5147 56 34 56C36.4853 56 38.5 58.0147 38.5 60.5Z" fill="#C4C4C4" stroke="#858384" />
                <path d="M37.4258 59.4473C37.4258 60.0645 37.2422 60.5859 36.875 61.0117C36.5117 61.4336 36.0625 61.6445 35.5273 61.6445C35.2461 61.6445 34.9805 61.5938 34.7305 61.4922C34.4805 61.3867 34.1895 61.1895 33.8574 60.9004C33.5293 60.6113 33.293 60.4316 33.1484 60.3613C33.0039 60.291 32.8496 60.2559 32.6855 60.2559C32.3809 60.2559 32.1465 60.3613 31.9824 60.5723C31.8184 60.7793 31.7363 61.0664 31.7363 61.4336L30.793 61.4453C30.793 60.8203 30.9727 60.3066 31.332 59.9043C31.6914 59.502 32.1426 59.3008 32.6855 59.3008C32.9824 59.3008 33.2676 59.3633 33.541 59.4883C33.8145 59.6133 34.123 59.834 34.4668 60.1504C34.8105 60.4629 35.1074 60.6387 35.3574 60.6777L35.5273 60.6895C35.8242 60.6895 36.0645 60.5762 36.248 60.3496C36.4355 60.123 36.5293 59.8242 36.5293 59.4531L37.4258 59.4473Z" fill="black" />
                <line x1="52.5" y1="84" x2="52.5" y2="130" stroke="#858384" stroke-width="3" stroke-dasharray="9 9" />
                <line x1="349" y1="128.5" x2="51" y2="128.5" stroke="#858384" stroke-width="3" stroke-dasharray="6 6" />
                <path fill-rule="evenodd" clip-rule="evenodd" d="M349.026 67.0526L346.428 68.5526L343.928 64.2225L341.33 65.7222L335.33 55.3299L337.928 53.8302L335.428 49.5L338.026 48L349.026 67.0526Z" fill="#858384" />
                <rect width="3" height="10" transform="matrix(1 0 0 -1 346.025 77)" fill="#858384" />
                <path d="M350.525 78.0415C350.525 79.6983 349.182 81.0415 347.525 81.0415C345.869 81.0415 344.525 79.6983 344.525 78.0415C344.525 76.3846 345.869 75.0415 347.525 75.0415C349.182 75.0415 350.525 76.3846 350.525 78.0415Z" fill="#858384" />
                <path d="M340.525 78C340.525 79.8565 341.263 81.637 342.576 82.9497C343.888 84.2625 345.669 85 347.525 85C349.382 85 351.162 84.2625 352.475 82.9497C353.788 81.637 354.525 79.8565 354.525 78L352.197 78C352.197 79.239 351.705 80.4273 350.829 81.3035C349.953 82.1796 348.764 82.6718 347.525 82.6718C346.286 82.6718 345.098 82.1796 344.222 81.3035C343.346 80.4273 342.854 79.239 342.854 78L340.525 78Z" fill="#858384" />
                <rect width="3" height="8" transform="matrix(1 0 0 -1 346.025 25)" fill="#858384" />
                <rect width="3" height="14" transform="matrix(1 0 0 -1 346.025 47)" fill="#858384" />
                <path d="M350.525 30.9585C350.525 32.6154 349.182 33.9585 347.525 33.9585C345.869 33.9585 344.525 32.6154 344.525 30.9585C344.525 29.3017 345.869 27.9585 347.525 27.9585C349.182 27.9585 350.525 29.3017 350.525 30.9585Z" fill="#858384" />
                <path d="M354.525 31C354.525 29.1435 353.788 27.363 352.475 26.0503C351.162 24.7375 349.382 24 347.525 24C345.669 24 343.888 24.7375 342.576 26.0503C341.263 27.363 340.525 29.1435 340.525 31L342.854 31C342.854 29.761 343.346 28.5727 344.222 27.6965C345.098 26.8204 346.286 26.3282 347.525 26.3282C348.764 26.3282 349.953 26.8204 350.829 27.6965C351.705 28.5727 352.197 29.761 352.197 31H354.525Z" fill="#858384" />
                <rect x="344.025" y="46" width="7" height="2" fill="#858384" />
                <path d="M349.025 49C349.025 49.8284 348.354 50.5 347.525 50.5C346.697 50.5 346.025 49.8284 346.025 49C346.025 48.1716 346.697 47.5 347.525 47.5C348.354 47.5 349.025 48.1716 349.025 49Z" stroke="#858384" />
                <path d="M331.4 57.4473C331.4 58.0645 331.217 58.5859 330.85 59.0117C330.486 59.4336 330.037 59.6445 329.502 59.6445C329.221 59.6445 328.955 59.5938 328.705 59.4922C328.455 59.3867 328.164 59.1895 327.832 58.9004C327.504 58.6113 327.268 58.4316 327.123 58.3613C326.979 58.291 326.824 58.2559 326.66 58.2559C326.355 58.2559 326.121 58.3613 325.957 58.5723C325.793 58.7793 325.711 59.0664 325.711 59.4336L324.768 59.4453C324.768 58.8203 324.947 58.3066 325.307 57.9043C325.666 57.502 326.117 57.3008 326.66 57.3008C326.957 57.3008 327.242 57.3633 327.516 57.4883C327.789 57.6133 328.098 57.834 328.441 58.1504C328.785 58.4629 329.082 58.6387 329.332 58.6777L329.502 58.6895C329.799 58.6895 330.039 58.5762 330.223 58.3496C330.41 58.123 330.504 57.8242 330.504 57.4531L331.4 57.4473Z" fill="black" />
                <line x1="347.5" y1="84" x2="347.5" y2="130" stroke="#858384" stroke-width="3" stroke-dasharray="9 9" />
                <line x1="201.5" y1="130" x2="201.5" y2="176" stroke="#858384" stroke-width="3" stroke-dasharray="9 9" />
                <line x1="52.5" y1="-6.55672e-08" x2="52.5" y2="16" stroke="#858384" stroke-width="3" stroke-dasharray="9 9" />
                <line x1="347.5" y1="-6.55671e-08" x2="347.5" y2="10" stroke="#858384" stroke-width="3" stroke-dasharray="9 9" />
                <rect x="38.5" y="176.5" width="323" height="207" fill="#EAEAEA" stroke="black" />
                <rect x="45.5" y="295.5" width="149" height="81" fill="#D6D6D6" stroke="black" />
                <rect x="49.5" y="300.5" width="95" height="72" fill="white" stroke="black" />
                <rect x="54" y="305" width="39" height="20" rx="2" fill="white" />
                <rect x="56" y="307" width="5" height="16" fill="#C75C5C" />
                <rect x="92" y="311" width="3" height="8" fill="#070707" />
                <path fill-rule="evenodd" clip-rule="evenodd" d="M56 305C54.8954 305 54 305.895 54 307V323C54 324.105 54.8954 325 56 325H91C92.1046 325 93 324.105 93 323V307C93 305.895 92.1046 305 91 305H56ZM56 307H61V323H56V307ZM62 307H67V323H62V307ZM85 307H80V323H85V307ZM86 307H91V323H86V307ZM73 307H68V323H73V307ZM74 307H79V323H74V307Z" fill="white" />
                <rect x="54.5" y="305.5" width="38" height="19" rx="1.5" stroke="#070707" />
                <circle cx="62.5" cy="341.5" r="8" stroke="black" />
                <line x1="62.5" y1="335" x2="62.5" y2="342" stroke="black" />
                <path d="M66.5 345.5L62.4994 341.5" stroke="black" />
                <rect x="45.5" y="203.5" width="149" height="81" fill="#D6D6D6" stroke="black" />
                <rect x="49.5" y="208.5" width="95" height="72" fill="white" stroke="black" />
                <rect x="54" y="213" width="39" height="20" rx="2" fill="white" />
                <rect id="SHRI1_IBP1_chargeAnim" x="56" y="215" width="35" height="16" fill="#7ABD84" />
                <rect x="92" y="219" width="3" height="8" fill="#070707" />
                <path fill-rule="evenodd" clip-rule="evenodd" d="M56 213C54.8954 213 54 213.895 54 215V231C54 232.105 54.8954 233 56 233H91C92.1046 233 93 232.105 93 231V215C93 213.895 92.1046 213 91 213H56ZM56 215H61V231H56V215ZM62 215H67V231H62V215ZM85 215H80V231H85V215ZM86 215H91V231H86V215ZM73 215H68V231H73V215ZM74 215H79V231H74V215Z" fill="white" />
                <rect x="54.5" y="213.5" width="38" height="19" rx="1.5" stroke="#070707" />
                <circle cx="62.5" cy="249.5" r="8" stroke="black" />
                <line x1="62.5" y1="243" x2="62.5" y2="250" stroke="black" />
                <path d="M66.5 253.5L62.4994 249.5" stroke="black" />
                <rect x="205.5" y="203.5" width="149" height="81" fill="#D6D6D6" stroke="black" />
                <rect x="209.5" y="208.5" width="95" height="72" fill="white" stroke="black" />
                <rect x="214" y="213" width="39" height="20" rx="2" fill="white" />
                <rect x="216" y="215" width="5" height="16" fill="#C75C5C" />
                <rect x="252" y="219" width="3" height="8" fill="#070707" />
                <path fill-rule="evenodd" clip-rule="evenodd" d="M216 213C214.895 213 214 213.895 214 215V231C214 232.105 214.895 233 216 233H251C252.105 233 253 232.105 253 231V215C253 213.895 252.105 213 251 213H216ZM216 215H221V231H216V215ZM222 215H227V231H222V215ZM245 215H240V231H245V215ZM246 215H251V231H246V215ZM233 215H228V231H233V215ZM234 215H239V231H234V215Z" fill="white" />
                <rect x="214.5" y="213.5" width="38" height="19" rx="1.5" stroke="#070707" />
                <circle cx="222.5" cy="249.5" r="8" stroke="black" />
                <line x1="222.5" y1="243" x2="222.5" y2="250" stroke="black" />
                <path d="M226.5 253.5L222.499 249.5" stroke="black" />
                <rect x="205.5" y="295.5" width="149" height="81" fill="#D6D6D6" stroke="black" />
                <rect x="209.5" y="300.5" width="95" height="72" fill="white" stroke="black" />
                <rect x="214" y="305" width="39" height="20" rx="2" fill="white" />
                <rect x="216" y="307" width="5" height="16" fill="#C75C5C" />
                <rect x="252" y="311" width="3" height="8" fill="#070707" />
                <path fill-rule="evenodd" clip-rule="evenodd" d="M216 305C214.895 305 214 305.895 214 307V323C214 324.105 214.895 325 216 325H251C252.105 325 253 324.105 253 323V307C253 305.895 252.105 305 251 305H216ZM216 307H221V323H216V307ZM222 307H227V323H222V307ZM245 307H240V323H245V307ZM246 307H251V323H246V307ZM233 307H228V323H233V307ZM234 307H239V323H234V307Z" fill="white" />
                <rect x="214.5" y="305.5" width="38" height="19" rx="1.5" stroke="#070707" />
                <circle cx="222.5" cy="341.5" r="8" stroke="black" />
                <line x1="222.5" y1="335" x2="222.5" y2="342" stroke="black" />
                <path d="M226.5 345.5L222.499 341.5" stroke="black" />
                <path d="M50.5 418.5H348.5V463.785L199.5 495.466L50.5 463.785V418.5Z" fill="#E0DBDB" stroke="black" stroke-width="3" />
                <rect x="0.5" y="0.5" width="399" height="399" stroke="black" stroke-dasharray="7 7" />
                <path fill-rule="evenodd" clip-rule="evenodd" d="M362 206.09V204.661L353.377 196H351.954L362 206.09ZM339.15 196H340.573L362 217.522V218.952L339.15 196ZM326.341 196H327.764L362 230.388V231.817L326.341 196ZM313.535 196H314.958L362 243.251V244.68L313.535 196ZM302.153 196L362 256.112V257.542L300.73 196H302.153ZM289.345 196L362 268.978V270.407L287.922 196H289.345ZM276.538 196L362 281.841V283.27L275.115 196H276.538ZM263.732 196L358.312 291H356.889L262.309 196H263.732ZM250.925 196L345.505 291H344.083L249.502 196H250.925ZM238.119 196L332.699 291H331.276L236.696 196H238.119ZM225.312 196L319.893 291H318.47L223.889 196H225.312ZM212.506 196L307.086 291H305.663L211.083 196H212.506ZM199.701 196L294.281 291H292.859L199 196.725V196.499L199.496 196H199.701ZM199 208.161L281.473 291H280.05L199 209.59V208.161ZM199 221.024L268.666 291H267.244L199 222.454V221.024ZM199 233.886L255.862 291H254.439L199 235.315V233.886ZM199 246.751L243.053 291H241.63L199 248.18V246.751ZM230.247 291L199 259.614V261.044L228.824 291H230.247ZM217.442 291L199 272.476V273.905L216.02 291H217.442ZM204.634 291L199 285.341V286.77L203.211 291H204.634Z" fill="black" />
                <rect x="199.5" y="196.5" width="162" height="94" stroke="black" />
                <path fill-rule="evenodd" clip-rule="evenodd" d="M200 299.984V298.57L191.43 290H190.016L200 299.984ZM177.29 290H178.704L200 311.296V312.71L177.29 290ZM164.56 290H165.975L200 324.025V325.44L164.56 290ZM151.832 290H153.247L200 336.753V338.168L151.832 290ZM139.106 290H140.521L200 349.479V350.894L139.106 290ZM126.377 290H127.791L200 362.209V363.623L126.377 290ZM113.649 290H115.063L200 374.937V376.351L113.649 290ZM100.921 290H102.335L196.335 384H194.921L100.921 290ZM88.1928 290H89.607L183.607 384H182.193L88.1928 290ZM75.4649 290H76.8791L170.879 384H169.465L75.4649 290ZM62.7368 290H64.1511L158.151 384H156.737L62.7368 290ZM50.0089 290H51.4232L145.423 384H144.009L50.0089 290ZM38.4937 290H38.6971L132.697 384H131.283L38 290.717V290.494L38.4937 290ZM38 303.447V302.033L119.967 384H118.553L38 303.447ZM38 316.175V314.761L107.239 384H105.825L38 316.175ZM38 328.901V327.487L94.5134 384H93.0992L38 328.901ZM38 341.631V340.216L81.7835 384H80.3693L38 341.631ZM38 354.359V352.944L69.0555 384H67.6413L38 354.359ZM38 367.085V365.67L56.3295 384H54.9153L38 367.085ZM38 379.815V378.4L43.5997 384H42.1855L38 379.815Z" fill="black" />
                <rect x="38.5" y="290.5" width="161" height="93" stroke="black" />
                <path fill-rule="evenodd" clip-rule="evenodd" d="M362 299.984V298.57L353.377 290H351.954L362 299.984ZM339.15 290H340.573L362 311.296V312.71L339.15 290ZM326.341 290H327.764L362 324.026V325.44L326.341 290ZM313.535 290H314.958L362 336.754V338.168L313.535 290ZM300.73 290H302.153L362 349.48V350.894L300.73 290ZM287.922 290H289.345L362 362.21V363.624L287.922 290ZM275.115 290H276.538L362 374.937V376.352L275.115 290ZM262.309 290H263.732L358.312 384H356.889L262.309 290ZM249.502 290H250.925L345.505 384H344.083L249.502 290ZM236.696 290H238.119L332.699 384H331.276L236.696 290ZM223.889 290H225.312L319.893 384H318.47L223.889 290ZM211.083 290H212.506L307.086 384H305.663L211.083 290ZM199.496 290H199.701L294.281 384H292.858L199 290.717V290.493L199.496 290ZM199 303.447V302.033L281.473 384H280.05L199 303.447ZM199 316.175V314.761L268.666 384H267.244L199 316.175ZM199 328.901V327.487L255.862 384H254.439L199 328.901ZM199 341.631V340.217L243.053 384H241.63L199 341.631ZM199 354.359V352.945L230.247 384H228.824L199 354.359ZM199 367.085V365.671L217.442 384H216.02L199 367.085ZM199 379.815V378.401L204.634 384H203.211L199 379.815Z" fill="black" />
                <rect x="199.5" y="290.5" width="162" height="93" stroke="black" />
                <rect x="203.75" y="384.75" width="1.5" height="31.5" stroke="#858384" stroke-width="1.5" stroke-dasharray="7 7" />
                <mask id="path-82-inside-1" fill="white">
                    <path fill-rule="evenodd" clip-rule="evenodd" d="M333.475 59C333.224 61.5267 331.093 63.5 328.5 63.5C325.739 63.5 323.5 61.2614 323.5 58.5C323.5 55.7386 325.739 53.5 328.5 53.5C331.093 53.5 333.224 55.4734 333.475 58H340.001V59H333.475Z" />
                </mask>
                <path d="M333.475 59V58H332.57L332.48 58.9012L333.475 59ZM333.475 58L332.48 58.0988L332.57 59H333.475V58ZM340.001 58H341.001V57H340.001V58ZM340.001 59V60H341.001V59H340.001ZM332.48 58.9012C332.28 60.9215 330.574 62.5 328.5 62.5V64.5C331.612 64.5 334.169 62.1319 334.47 59.0988L332.48 58.9012ZM328.5 62.5C326.291 62.5 324.5 60.7091 324.5 58.5H322.5C322.5 61.8137 325.186 64.5 328.5 64.5V62.5ZM324.5 58.5C324.5 56.2909 326.291 54.5 328.5 54.5V52.5C325.186 52.5 322.5 55.1863 322.5 58.5H324.5ZM328.5 54.5C330.574 54.5 332.28 56.0786 332.48 58.0988L334.47 57.9012C334.169 54.8682 331.612 52.5 328.5 52.5V54.5ZM333.475 59H340.001V57H333.475V59ZM339.001 58V59H341.001V58H339.001ZM340.001 58H333.475V60H340.001V58Z" fill="#858384" mask="url(#path-82-inside-1)" />
                <path id="SHRI1_input1_on" fill-rule="evenodd" clip-rule="evenodd" d="M57.4742 26.0503C56.5209 25.097 55.321 24.447 54.0245 24.1626V0H51.0245V24.1626C49.7279 24.447 48.528 25.097 47.5747 26.0503C46.2619 27.363 45.5245 29.1435 45.5245 31H47.8526C47.8526 29.761 48.3448 28.5727 49.221 27.6965C50.0971 26.8204 51.2854 26.3282 52.5245 26.3282C53.7635 26.3282 54.9518 26.8204 55.8279 27.6965C56.7041 28.5727 57.1963 29.761 57.1963 31H59.5245C59.5245 29.1435 58.787 27.363 57.4742 26.0503ZM53.9991 75.4283V67H53.9904L53.9961 66.9987L49.6099 48H50.792C50.6218 48.2942 50.5245 48.6357 50.5245 49C50.5245 50.1045 51.4199 51 52.5245 51C53.629 51 54.5245 50.1045 54.5245 49C54.5245 48.6357 54.4271 48.2942 54.2569 48H56.0245V46H54.0245V33.5572C54.9212 33.0385 55.5245 32.069 55.5245 30.9585C55.5245 29.3017 54.1813 27.9585 52.5245 27.9585C50.8676 27.9585 49.5245 29.3017 49.5245 30.9585C49.5245 32.069 50.1277 33.0385 51.0245 33.5572V46H49.1482L49.0472 45.5625L46.1241 46.2374L47.2488 51.1093L44.3262 51.784L46.223 60H39.0007C38.7498 57.4733 36.6181 55.5 34.0254 55.5C31.264 55.5 29.0254 57.7386 29.0254 60.5C29.0254 63.2614 31.264 65.5 34.0254 65.5C36.6181 65.5 38.7498 63.5267 39.0007 61H46.4538L47.0256 63.4765L49.9482 62.8017L50.9991 67.3533V75.4577C50.1164 75.9799 49.5245 76.9416 49.5245 78.0415C49.5245 79.6983 50.8676 81.0415 52.5245 81.0415C54.1813 81.0415 55.5245 79.6983 55.5245 78.0415C55.5245 76.9206 54.9097 75.9433 53.9991 75.4283ZM38 60.0468V60.9532C37.7749 62.949 36.0813 64.5 34.0254 64.5C31.8163 64.5 30.0254 62.7091 30.0254 60.5C30.0254 58.2909 31.8163 56.5 34.0254 56.5C36.0813 56.5 37.7749 58.051 38 60.0468ZM45.5245 78C45.5245 79.8565 46.2619 81.637 47.5747 82.9497C48.5217 83.8968 49.7122 84.5444 50.9991 84.8318V130H51H53.9991H199.999V176H202.999V130H203V127H202.999H199.999L53.9991 127V84.8429C55.3053 84.5614 56.5147 83.9092 57.4742 82.9497C58.787 81.637 59.5244 79.8565 59.5245 78H57.1963C57.1963 79.239 56.7041 80.4273 55.8279 81.3035C54.9518 82.1796 53.7635 82.6718 52.5244 82.6718C51.2854 82.6718 50.0971 82.1796 49.221 81.3035C48.3448 80.4273 47.8526 79.239 47.8526 78H45.5245ZM53.5245 49C53.5245 48.4498 53.0801 48.0033 52.5307 48H52.5182C51.9688 48.0033 51.5245 48.4498 51.5245 49C51.5245 49.5523 51.9722 50 52.5245 50C53.0767 50 53.5245 49.5523 53.5245 49ZM206 384H203V417H206V384Z" fill="#7ABD84" />
                <path id="SHRI1_input2_on" fill-rule="evenodd" clip-rule="evenodd" d="M349.025 24.1627C350.322 24.4472 351.522 25.0971 352.475 26.0504C353.788 27.3631 354.525 29.1436 354.525 31.0001H352.197C352.197 29.7611 351.705 28.5728 350.829 27.6966C349.953 26.8205 348.764 26.3283 347.525 26.3283C346.286 26.3283 345.098 26.8205 344.222 27.6966C343.346 28.5728 342.854 29.7611 342.854 31.0001H340.525C340.525 29.1436 341.263 27.3631 342.576 26.0504C343.529 25.0971 344.729 24.4472 346.025 24.1627V0.00012207H349.025V24.1627ZM344.525 78.0416C344.525 76.9312 345.129 75.9617 346.025 75.443V67.3203L344.988 62.828L342.066 63.5027L341.026 59H341H333.475C333.224 61.5267 331.093 63.5 328.5 63.5C325.739 63.5 323.5 61.2614 323.5 58.5C323.5 55.7386 325.739 53.5 328.5 53.5C331.093 53.5 333.224 55.4733 333.475 58H340.795L339.366 51.8103L342.289 51.1355L341.164 46.2636L344.087 45.5888L344.182 46.0001H346.025V33.5573C345.129 33.0386 344.525 32.0691 344.525 30.9587C344.525 29.3018 345.869 27.9587 347.525 27.9587C349.182 27.9587 350.525 29.3018 350.525 30.9587C350.525 32.0691 349.922 33.0386 349.025 33.5573V46.0001H351.025V48.0001H349.258C349.428 48.2943 349.525 48.6358 349.525 49.0001C349.525 50.1047 348.63 51.0001 347.525 51.0001C346.421 51.0001 345.525 50.1047 345.525 49.0001C345.525 48.6358 345.623 48.2943 345.793 48.0001H344.644L349.036 67.0249L349.025 67.0274V75.443C349.922 75.9617 350.525 76.9312 350.525 78.0416C350.525 79.6985 349.182 81.0416 347.525 81.0416C345.869 81.0416 344.525 79.6985 344.525 78.0416ZM342.576 82.9499C341.263 81.6371 340.525 79.8566 340.525 78.0001H342.854C342.854 79.2392 343.346 80.4275 344.222 81.3036C345.098 82.1797 346.286 82.672 347.525 82.672C348.764 82.672 349.953 82.1797 350.829 81.3036C351.705 80.4275 352.197 79.2392 352.197 78.0001H354.525C354.525 79.8566 353.788 81.6371 352.475 82.9499C351.516 83.9094 350.306 84.5616 349 84.8431V127V130H346H203L203 176H200V130L200 127H203L346 127V84.8319C344.713 84.5446 343.523 83.8969 342.576 82.9499ZM347.532 48.0001C348.081 48.0035 348.525 48.4499 348.525 49.0001C348.525 49.5524 348.078 50.0001 347.525 50.0001C346.973 50.0001 346.525 49.5524 346.525 49.0001C346.525 48.4499 346.97 48.0035 347.519 48.0001H347.532ZM203 384H206V417H203V384ZM332.48 58.0988L332.52 58.5L332.48 58.9012C332.28 60.9215 330.574 62.5 328.5 62.5C326.291 62.5 324.5 60.7091 324.5 58.5C324.5 56.2909 326.291 54.5 328.5 54.5C330.574 54.5 332.28 56.0785 332.48 58.0988Z" fill="#352295" />
            </svg>
