<svg width="1781" height="204" viewBox="0 0 1781 204" fill="none" xmlns="http://www.w3.org/2000/svg">
<path d="M774 148C774 148.552 774.448 149 775 149C775.552 149 776 148.552 776 148L774 148ZM776 158C776 157.448 775.552 157 775 157C774.448 157 774 157.448 774 158L776 158ZM774 143L774 148L776 148L776 143L774 143ZM774 158L774 163L776 163L776 158L774 158ZM773 148C773 149.105 773.895 150 775 150C776.105 150 777 149.105 777 148L773 148ZM777 158C777 156.895 776.105 156 775 156C773.895 156 773 156.895 773 158L777 158ZM773 143L773 148L777 148L777 143L773 143ZM773 158L773 163L777 163L777 158L773 158Z" fill="#3C458F"/>
<path d="M774 182.5C774 183.052 774.448 183.5 775 183.5C775.552 183.5 776 183.052 776 182.5L774 182.5ZM776 193.5C776 192.948 775.552 192.5 775 192.5C774.448 192.5 774 192.948 774 193.5L776 193.5ZM774 177L774 182.5L776 182.5L776 177L774 177ZM774 193.5L774 199L776 199L776 193.5L774 193.5ZM773 182.5C773 183.605 773.895 184.5 775 184.5C776.105 184.5 777 183.605 777 182.5L773 182.5ZM777 193.5C777 192.395 776.105 191.5 775 191.5C773.895 191.5 773 192.395 773 193.5L777 193.5ZM773 177L773 182.5L777 182.5L777 177L773 177ZM773 193.5L773 199L777 199L777 193.5L773 193.5Z" fill="#3C458F"/>
<line x1="164.5" y1="1" x2="164.5" y2="135" stroke="black"/>
<line x1="164.5" y1="6.55671e-08" x2="164.5" y2="172" stroke="#67B165" stroke-width="3"/>
<line x1="1.5" y1="172" x2="1.5" y2="184" stroke="#67B165" stroke-width="3"/>
<line x1="471.5" y1="151" x2="471.5" y2="171" stroke="#67B165" stroke-width="3"/>
<line x1="471.5" y1="176" x2="471.5" y2="184" stroke="#67B165" stroke-width="3"/>
<line x1="1413.5" y1="151" x2="1413.5" y2="171" stroke="#67B165" stroke-width="3"/>
<line x1="1413.5" y1="176" x2="1413.5" y2="184" stroke="#67B165" stroke-width="3"/>
<line x1="944.5" y1="172" x2="944.5" y2="184" stroke="#67B165" stroke-width="3"/>
<line x1="946" y1="173.5" x2="3" y2="173.5" stroke="#67B165" stroke-width="3"/>
<line x1="1415" y1="152.5" x2="472" y2="152.5" stroke="#67B165" stroke-width="3"/>
<line x1="666.5" y1="6.55671e-08" x2="666.5" y2="151" stroke="#67B165" stroke-width="3"/>
<path d="M1216 123.5C1216 122.948 1215.55 122.5 1215 122.5C1214.45 122.5 1214 122.948 1214 123.5L1216 123.5ZM1214 104.5C1214 105.052 1214.45 105.5 1215 105.5C1215.55 105.5 1216 105.052 1216 104.5L1214 104.5ZM1216 85.5C1216 84.9477 1215.55 84.5 1215 84.5C1214.45 84.5 1214 84.9477 1214 85.5L1216 85.5ZM1214 66.5C1214 67.0523 1214.45 67.5 1215 67.5C1215.55 67.5 1216 67.0523 1216 66.5L1214 66.5ZM1216 133L1216 123.5L1214 123.5L1214 133L1216 133ZM1216 104.5L1216 85.5L1214 85.5L1214 104.5L1216 104.5ZM1216 66.5L1216 57L1214 57L1214 66.5L1216 66.5ZM1217 123.5C1217 122.395 1216.1 121.5 1215 121.5C1213.9 121.5 1213 122.395 1213 123.5L1217 123.5ZM1213 104.5C1213 105.605 1213.9 106.5 1215 106.5C1216.1 106.5 1217 105.605 1217 104.5L1213 104.5ZM1217 85.5C1217 84.3954 1216.1 83.5 1215 83.5C1213.9 83.5 1213 84.3954 1213 85.5L1217 85.5ZM1213 66.5C1213 67.6046 1213.9 68.5 1215 68.5C1216.1 68.5 1217 67.6046 1217 66.5L1213 66.5ZM1217 133L1217 123.5L1213 123.5L1213 133L1217 133ZM1217 104.5L1217 85.5L1213 85.5L1213 104.5L1217 104.5ZM1217 66.5L1217 57L1213 57L1213 66.5L1217 66.5Z" fill="#3C458F"/>
<path d="M1244 133H1245C1245 132.448 1244.55 132 1244 132V133ZM1245 146.5C1245 145.948 1244.55 145.5 1244 145.5C1243.45 145.5 1243 145.948 1243 146.5H1245ZM1243 137.5C1243 138.052 1243.45 138.5 1244 138.5C1244.55 138.5 1245 138.052 1245 137.5H1243ZM1236.08 132C1235.53 132 1235.08 132.448 1235.08 133C1235.08 133.552 1235.53 134 1236.08 134V132ZM1220.25 134C1220.8 134 1221.25 133.552 1221.25 133C1221.25 132.448 1220.8 132 1220.25 132V134ZM1204.42 132C1203.86 132 1203.42 132.448 1203.42 133C1203.42 133.552 1203.86 134 1204.42 134V132ZM1188.58 134C1189.14 134 1189.58 133.552 1189.58 133C1189.58 132.448 1189.14 132 1188.58 132V134ZM1172.75 132C1172.2 132 1171.75 132.448 1171.75 133C1171.75 133.552 1172.2 134 1172.75 134V132ZM1156.92 134C1157.47 134 1157.92 133.552 1157.92 133C1157.92 132.448 1157.47 132 1156.92 132V134ZM1141.08 132C1140.53 132 1140.08 132.448 1140.08 133C1140.08 133.552 1140.53 134 1141.08 134V132ZM1125.25 134C1125.8 134 1126.25 133.552 1126.25 133C1126.25 132.448 1125.8 132 1125.25 132V134ZM1109.42 132C1108.86 132 1108.42 132.448 1108.42 133C1108.42 133.552 1108.86 134 1109.42 134V132ZM1093.58 134C1094.14 134 1094.58 133.552 1094.58 133C1094.58 132.448 1094.14 132 1093.58 132V134ZM1077.75 132C1077.2 132 1076.75 132.448 1076.75 133C1076.75 133.552 1077.2 134 1077.75 134V132ZM1061.92 134C1062.47 134 1062.92 133.552 1062.92 133C1062.92 132.448 1062.47 132 1061.92 132V134ZM1046.08 132C1045.53 132 1045.08 132.448 1045.08 133C1045.08 133.552 1045.53 134 1046.08 134V132ZM1030.25 134C1030.8 134 1031.25 133.552 1031.25 133C1031.25 132.448 1030.8 132 1030.25 132V134ZM1014.42 132C1013.86 132 1013.42 132.448 1013.42 133C1013.42 133.552 1013.86 134 1014.42 134V132ZM998.583 134C999.136 134 999.583 133.552 999.583 133C999.583 132.448 999.136 132 998.583 132V134ZM982.75 132C982.198 132 981.75 132.448 981.75 133C981.75 133.552 982.198 134 982.75 134V132ZM966.917 134C967.469 134 967.917 133.552 967.917 133C967.917 132.448 967.469 132 966.917 132V134ZM951.083 132C950.531 132 950.083 132.448 950.083 133C950.083 133.552 950.531 134 951.083 134V132ZM935.25 134C935.802 134 936.25 133.552 936.25 133C936.25 132.448 935.802 132 935.25 132V134ZM919.417 132C918.864 132 918.417 132.448 918.417 133C918.417 133.552 918.864 134 919.417 134V132ZM903.583 134C904.136 134 904.583 133.552 904.583 133C904.583 132.448 904.136 132 903.583 132V134ZM887.75 132C887.198 132 886.75 132.448 886.75 133C886.75 133.552 887.198 134 887.75 134V132ZM871.917 134C872.469 134 872.917 133.552 872.917 133C872.917 132.448 872.469 132 871.917 132V134ZM856.083 132C855.531 132 855.083 132.448 855.083 133C855.083 133.552 855.531 134 856.083 134V132ZM840.25 134C840.802 134 841.25 133.552 841.25 133C841.25 132.448 840.802 132 840.25 132V134ZM824.417 132C823.864 132 823.417 132.448 823.417 133C823.417 133.552 823.864 134 824.417 134V132ZM808.583 134C809.136 134 809.583 133.552 809.583 133C809.583 132.448 809.136 132 808.583 132V134ZM792.75 132C792.198 132 791.75 132.448 791.75 133C791.75 133.552 792.198 134 792.75 134V132ZM776.917 134C777.469 134 777.917 133.552 777.917 133C777.917 132.448 777.469 132 776.917 132V134ZM761.083 132C760.531 132 760.083 132.448 760.083 133C760.083 133.552 760.531 134 761.083 134V132ZM745.25 134C745.802 134 746.25 133.552 746.25 133C746.25 132.448 745.802 132 745.25 132V134ZM729.417 132C728.864 132 728.417 132.448 728.417 133C728.417 133.552 728.864 134 729.417 134V132ZM713.583 134C714.136 134 714.583 133.552 714.583 133C714.583 132.448 714.136 132 713.583 132V134ZM697.75 132C697.198 132 696.75 132.448 696.75 133C696.75 133.552 697.198 134 697.75 134V132ZM681.917 134C682.469 134 682.917 133.552 682.917 133C682.917 132.448 682.469 132 681.917 132V134ZM1245 151V146.5H1243V151H1245ZM1245 137.5V133H1243V137.5H1245ZM1244 132H1236.08V134H1244V132ZM1220.25 132H1204.42V134H1220.25V132ZM1188.58 132H1172.75V134H1188.58V132ZM1156.92 132H1141.08V134H1156.92V132ZM1125.25 132L1109.42 132V134L1125.25 134V132ZM1093.58 132H1077.75V134H1093.58V132ZM1061.92 132H1046.08V134H1061.92V132ZM1030.25 132H1014.42V134H1030.25V132ZM998.583 132H982.75V134H998.583V132ZM966.917 132H951.083V134H966.917V132ZM935.25 132H919.417V134H935.25V132ZM903.583 132H887.75V134H903.583V132ZM871.917 132H856.083V134H871.917V132ZM840.25 132H824.417V134H840.25V132ZM808.583 132H792.75V134H808.583V132ZM776.917 132H761.083V134H776.917V132ZM745.25 132H729.417V134H745.25V132ZM713.583 132H697.75V134H713.583V132ZM681.917 132H674V134H681.917V132ZM1244 133H1246C1246 131.895 1245.1 131 1244 131V133ZM1246 146.5C1246 145.395 1245.1 144.5 1244 144.5C1242.9 144.5 1242 145.395 1242 146.5H1246ZM1242 137.5C1242 138.605 1242.9 139.5 1244 139.5C1245.1 139.5 1246 138.605 1246 137.5H1242ZM1236.08 131C1234.98 131 1234.08 131.895 1234.08 133C1234.08 134.105 1234.98 135 1236.08 135V131ZM1220.25 135C1221.35 135 1222.25 134.105 1222.25 133C1222.25 131.895 1221.35 131 1220.25 131V135ZM1204.42 131C1203.31 131 1202.42 131.895 1202.42 133C1202.42 134.105 1203.31 135 1204.42 135V131ZM1188.58 135C1189.69 135 1190.58 134.105 1190.58 133C1190.58 131.895 1189.69 131 1188.58 131V135ZM1172.75 131C1171.65 131 1170.75 131.895 1170.75 133C1170.75 134.105 1171.65 135 1172.75 135V131ZM1156.92 135C1158.02 135 1158.92 134.105 1158.92 133C1158.92 131.895 1158.02 131 1156.92 131V135ZM1141.08 131C1139.98 131 1139.08 131.895 1139.08 133C1139.08 134.105 1139.98 135 1141.08 135V131ZM1125.25 135C1126.35 135 1127.25 134.105 1127.25 133C1127.25 131.895 1126.35 131 1125.25 131V135ZM1109.42 131C1108.31 131 1107.42 131.895 1107.42 133C1107.42 134.105 1108.31 135 1109.42 135V131ZM1093.58 135C1094.69 135 1095.58 134.105 1095.58 133C1095.58 131.895 1094.69 131 1093.58 131V135ZM1077.75 131C1076.65 131 1075.75 131.895 1075.75 133C1075.75 134.105 1076.65 135 1077.75 135V131ZM1061.92 135C1063.02 135 1063.92 134.105 1063.92 133C1063.92 131.895 1063.02 131 1061.92 131V135ZM1046.08 131C1044.98 131 1044.08 131.895 1044.08 133C1044.08 134.105 1044.98 135 1046.08 135V131ZM1030.25 135C1031.35 135 1032.25 134.105 1032.25 133C1032.25 131.895 1031.35 131 1030.25 131V135ZM1014.42 131C1013.31 131 1012.42 131.895 1012.42 133C1012.42 134.105 1013.31 135 1014.42 135V131ZM998.583 135C999.688 135 1000.58 134.105 1000.58 133C1000.58 131.895 999.688 131 998.583 131V135ZM982.75 131C981.645 131 980.75 131.895 980.75 133C980.75 134.105 981.645 135 982.75 135V131ZM966.917 135C968.021 135 968.917 134.105 968.917 133C968.917 131.895 968.021 131 966.917 131V135ZM951.083 131C949.979 131 949.083 131.895 949.083 133C949.083 134.105 949.979 135 951.083 135V131ZM935.25 135C936.355 135 937.25 134.105 937.25 133C937.25 131.895 936.355 131 935.25 131V135ZM919.417 131C918.312 131 917.417 131.895 917.417 133C917.417 134.105 918.312 135 919.417 135V131ZM903.583 135C904.688 135 905.583 134.105 905.583 133C905.583 131.895 904.688 131 903.583 131V135ZM887.75 131C886.645 131 885.75 131.895 885.75 133C885.75 134.105 886.645 135 887.75 135V131ZM871.917 135C873.021 135 873.917 134.105 873.917 133C873.917 131.895 873.021 131 871.917 131V135ZM856.083 131C854.979 131 854.083 131.895 854.083 133C854.083 134.105 854.979 135 856.083 135V131ZM840.25 135C841.355 135 842.25 134.105 842.25 133C842.25 131.895 841.355 131 840.25 131V135ZM824.417 131C823.312 131 822.417 131.895 822.417 133C822.417 134.105 823.312 135 824.417 135V131ZM808.583 135C809.688 135 810.583 134.105 810.583 133C810.583 131.895 809.688 131 808.583 131V135ZM792.75 131C791.645 131 790.75 131.895 790.75 133C790.75 134.105 791.645 135 792.75 135V131ZM776.917 135C778.021 135 778.917 134.105 778.917 133C778.917 131.895 778.021 131 776.917 131V135ZM761.083 131C759.979 131 759.083 131.895 759.083 133C759.083 134.105 759.979 135 761.083 135V131ZM745.25 135C746.354 135 747.25 134.105 747.25 133C747.25 131.895 746.354 131 745.25 131V135ZM729.417 131C728.312 131 727.417 131.895 727.417 133C727.417 134.105 728.312 135 729.417 135V131ZM713.583 135C714.688 135 715.583 134.105 715.583 133C715.583 131.895 714.688 131 713.583 131V135ZM697.75 131C696.645 131 695.75 131.895 695.75 133C695.75 134.105 696.645 135 697.75 135V131ZM681.917 135C683.021 135 683.917 134.105 683.917 133C683.917 131.895 683.021 131 681.917 131V135ZM1246 151V146.5H1242V151H1246ZM1246 137.5V133H1242V137.5H1246ZM1244 131H1236.08V135H1244V131ZM1220.25 131H1204.42V135H1220.25V131ZM1188.58 131H1172.75V135H1188.58V131ZM1156.92 131H1141.08V135H1156.92V131ZM1125.25 131L1109.42 131V135L1125.25 135V131ZM1093.58 131H1077.75V135H1093.58V131ZM1061.92 131H1046.08V135H1061.92V131ZM1030.25 131H1014.42V135H1030.25V131ZM998.583 131H982.75V135H998.583V131ZM966.917 131H951.083V135H966.917V131ZM935.25 131H919.417V135H935.25V131ZM903.583 131H887.75V135L903.583 135V131ZM871.917 131H856.083V135H871.917V131ZM840.25 131H824.417V135H840.25V131ZM808.583 131H792.75V135H808.583V131ZM776.917 131H761.083V135H776.917V131ZM745.25 131H729.417V135H745.25V131ZM713.583 131H697.75V135H713.583V131ZM681.917 131H674V135H681.917V131Z" fill="#3C458F"/>
<path d="M1717 114H1718C1718 113.448 1717.55 113 1717 113V114ZM1718 194.667C1718 194.114 1717.55 193.667 1717 193.667C1716.45 193.667 1716 194.114 1716 194.667H1718ZM1716 180C1716 180.552 1716.45 181 1717 181C1717.55 181 1718 180.552 1718 180H1716ZM1718 165.333C1718 164.781 1717.55 164.333 1717 164.333C1716.45 164.333 1716 164.781 1716 165.333H1718ZM1716 150.667C1716 151.219 1716.45 151.667 1717 151.667C1717.55 151.667 1718 151.219 1718 150.667H1716ZM1718 136C1718 135.448 1717.55 135 1717 135C1716.45 135 1716 135.448 1716 136H1718ZM1716 121.333C1716 121.886 1716.45 122.333 1717 122.333C1717.55 122.333 1718 121.886 1718 121.333H1716ZM1709.25 113C1708.7 113 1708.25 113.448 1708.25 114C1708.25 114.552 1708.7 115 1709.25 115V113ZM1693.75 115C1694.3 115 1694.75 114.552 1694.75 114C1694.75 113.448 1694.3 113 1693.75 113V115ZM1678.25 113C1677.7 113 1677.25 113.448 1677.25 114C1677.25 114.552 1677.7 115 1678.25 115V113ZM1662.75 115C1663.3 115 1663.75 114.552 1663.75 114C1663.75 113.448 1663.3 113 1662.75 113V115ZM1647.25 113C1646.7 113 1646.25 113.448 1646.25 114C1646.25 114.552 1646.7 115 1647.25 115V113ZM1631.75 115C1632.3 115 1632.75 114.552 1632.75 114C1632.75 113.448 1632.3 113 1631.75 113V115ZM1616.25 113C1615.7 113 1615.25 113.448 1615.25 114C1615.25 114.552 1615.7 115 1616.25 115V113ZM1600.75 115C1601.3 115 1601.75 114.552 1601.75 114C1601.75 113.448 1601.3 113 1600.75 113V115ZM1585.25 113C1584.7 113 1584.25 113.448 1584.25 114C1584.25 114.552 1584.7 115 1585.25 115V113ZM1569.75 115C1570.3 115 1570.75 114.552 1570.75 114C1570.75 113.448 1570.3 113 1569.75 113V115ZM1554.25 113C1553.7 113 1553.25 113.448 1553.25 114C1553.25 114.552 1553.7 115 1554.25 115V113ZM1538.75 115C1539.3 115 1539.75 114.552 1539.75 114C1539.75 113.448 1539.3 113 1538.75 113V115ZM1523.25 113C1522.7 113 1522.25 113.448 1522.25 114C1522.25 114.552 1522.7 115 1523.25 115V113ZM1507.75 115C1508.3 115 1508.75 114.552 1508.75 114C1508.75 113.448 1508.3 113 1507.75 113V115ZM1492.25 113C1491.7 113 1491.25 113.448 1491.25 114C1491.25 114.552 1491.7 115 1492.25 115V113ZM1476.75 115C1477.3 115 1477.75 114.552 1477.75 114C1477.75 113.448 1477.3 113 1476.75 113V115ZM1461.25 113C1460.7 113 1460.25 113.448 1460.25 114C1460.25 114.552 1460.7 115 1461.25 115V113ZM1445.75 115C1446.3 115 1446.75 114.552 1446.75 114C1446.75 113.448 1446.3 113 1445.75 113V115ZM1430.25 113C1429.7 113 1429.25 113.448 1429.25 114C1429.25 114.552 1429.7 115 1430.25 115V113ZM1414.75 115C1415.3 115 1415.75 114.552 1415.75 114C1415.75 113.448 1415.3 113 1414.75 113V115ZM1399.25 113C1398.7 113 1398.25 113.448 1398.25 114C1398.25 114.552 1398.7 115 1399.25 115V113ZM1383.75 115C1384.3 115 1384.75 114.552 1384.75 114C1384.75 113.448 1384.3 113 1383.75 113V115ZM1368.25 113C1367.7 113 1367.25 113.448 1367.25 114C1367.25 114.552 1367.7 115 1368.25 115V113ZM1352.75 115C1353.3 115 1353.75 114.552 1353.75 114C1353.75 113.448 1353.3 113 1352.75 113V115ZM1337.25 113C1336.7 113 1336.25 113.448 1336.25 114C1336.25 114.552 1336.7 115 1337.25 115V113ZM1321.75 115C1322.3 115 1322.75 114.552 1322.75 114C1322.75 113.448 1322.3 113 1321.75 113V115ZM1306.25 113C1305.7 113 1305.25 113.448 1305.25 114C1305.25 114.552 1305.7 115 1306.25 115V113ZM1290.75 115C1291.3 115 1291.75 114.552 1291.75 114C1291.75 113.448 1291.3 113 1290.75 113V115ZM1275.25 113C1274.7 113 1274.25 113.448 1274.25 114C1274.25 114.552 1274.7 115 1275.25 115V113ZM1259.75 115C1260.3 115 1260.75 114.552 1260.75 114C1260.75 113.448 1260.3 113 1259.75 113V115ZM1244.25 113C1243.7 113 1243.25 113.448 1243.25 114C1243.25 114.552 1243.7 115 1244.25 115V113ZM1228.75 115C1229.3 115 1229.75 114.552 1229.75 114C1229.75 113.448 1229.3 113 1228.75 113V115ZM1718 202V194.667H1716V202H1718ZM1718 180V165.333H1716V180H1718ZM1718 150.667V136H1716V150.667H1718ZM1718 121.333V114H1716V121.333H1718ZM1717 113H1709.25V115H1717V113ZM1693.75 113H1678.25V115H1693.75V113ZM1662.75 113L1647.25 113V115L1662.75 115V113ZM1631.75 113H1616.25V115H1631.75V113ZM1600.75 113H1585.25V115H1600.75V113ZM1569.75 113H1554.25V115H1569.75V113ZM1538.75 113H1523.25V115H1538.75V113ZM1507.75 113H1492.25V115H1507.75V113ZM1476.75 113H1461.25V115H1476.75V113ZM1445.75 113H1430.25V115H1445.75V113ZM1414.75 113H1399.25V115H1414.75V113ZM1383.75 113H1368.25V115H1383.75V113ZM1352.75 113H1337.25V115H1352.75V113ZM1321.75 113L1306.25 113V115L1321.75 115V113ZM1290.75 113H1275.25V115H1290.75V113ZM1259.75 113H1244.25V115H1259.75V113ZM1228.75 113H1221V115H1228.75V113ZM1717 114H1719C1719 112.895 1718.1 112 1717 112V114ZM1719 194.667C1719 193.562 1718.1 192.667 1717 192.667C1715.9 192.667 1715 193.562 1715 194.667H1719ZM1715 180C1715 181.105 1715.9 182 1717 182C1718.1 182 1719 181.105 1719 180H1715ZM1719 165.333C1719 164.229 1718.1 163.333 1717 163.333C1715.9 163.333 1715 164.229 1715 165.333H1719ZM1715 150.667C1715 151.771 1715.9 152.667 1717 152.667C1718.1 152.667 1719 151.771 1719 150.667H1715ZM1719 136C1719 134.895 1718.1 134 1717 134C1715.9 134 1715 134.895 1715 136H1719ZM1715 121.333C1715 122.438 1715.9 123.333 1717 123.333C1718.1 123.333 1719 122.438 1719 121.333H1715ZM1709.25 112C1708.15 112 1707.25 112.895 1707.25 114C1707.25 115.105 1708.15 116 1709.25 116V112ZM1693.75 116C1694.85 116 1695.75 115.105 1695.75 114C1695.75 112.895 1694.85 112 1693.75 112V116ZM1678.25 112C1677.15 112 1676.25 112.895 1676.25 114C1676.25 115.105 1677.15 116 1678.25 116V112ZM1662.75 116C1663.85 116 1664.75 115.105 1664.75 114C1664.75 112.895 1663.85 112 1662.75 112V116ZM1647.25 112C1646.15 112 1645.25 112.895 1645.25 114C1645.25 115.105 1646.15 116 1647.25 116V112ZM1631.75 116C1632.85 116 1633.75 115.105 1633.75 114C1633.75 112.895 1632.85 112 1631.75 112V116ZM1616.25 112C1615.15 112 1614.25 112.895 1614.25 114C1614.25 115.105 1615.15 116 1616.25 116V112ZM1600.75 116C1601.85 116 1602.75 115.105 1602.75 114C1602.75 112.895 1601.85 112 1600.75 112V116ZM1585.25 112C1584.15 112 1583.25 112.895 1583.25 114C1583.25 115.105 1584.15 116 1585.25 116V112ZM1569.75 116C1570.85 116 1571.75 115.105 1571.75 114C1571.75 112.895 1570.85 112 1569.75 112V116ZM1554.25 112C1553.15 112 1552.25 112.895 1552.25 114C1552.25 115.105 1553.15 116 1554.25 116V112ZM1538.75 116C1539.85 116 1540.75 115.105 1540.75 114C1540.75 112.895 1539.85 112 1538.75 112V116ZM1523.25 112C1522.15 112 1521.25 112.895 1521.25 114C1521.25 115.105 1522.15 116 1523.25 116V112ZM1507.75 116C1508.85 116 1509.75 115.105 1509.75 114C1509.75 112.895 1508.85 112 1507.75 112V116ZM1492.25 112C1491.15 112 1490.25 112.895 1490.25 114C1490.25 115.105 1491.15 116 1492.25 116V112ZM1476.75 116C1477.85 116 1478.75 115.105 1478.75 114C1478.75 112.895 1477.85 112 1476.75 112V116ZM1461.25 112C1460.15 112 1459.25 112.895 1459.25 114C1459.25 115.105 1460.15 116 1461.25 116V112ZM1445.75 116C1446.85 116 1447.75 115.105 1447.75 114C1447.75 112.895 1446.85 112 1445.75 112V116ZM1430.25 112C1429.15 112 1428.25 112.895 1428.25 114C1428.25 115.105 1429.15 116 1430.25 116V112ZM1414.75 116C1415.85 116 1416.75 115.105 1416.75 114C1416.75 112.895 1415.85 112 1414.75 112V116ZM1399.25 112C1398.15 112 1397.25 112.895 1397.25 114C1397.25 115.105 1398.15 116 1399.25 116V112ZM1383.75 116C1384.85 116 1385.75 115.105 1385.75 114C1385.75 112.895 1384.85 112 1383.75 112V116ZM1368.25 112C1367.15 112 1366.25 112.895 1366.25 114C1366.25 115.105 1367.15 116 1368.25 116V112ZM1352.75 116C1353.85 116 1354.75 115.105 1354.75 114C1354.75 112.895 1353.85 112 1352.75 112V116ZM1337.25 112C1336.15 112 1335.25 112.895 1335.25 114C1335.25 115.105 1336.15 116 1337.25 116V112ZM1321.75 116C1322.85 116 1323.75 115.105 1323.75 114C1323.75 112.895 1322.85 112 1321.75 112V116ZM1306.25 112C1305.15 112 1304.25 112.895 1304.25 114C1304.25 115.105 1305.15 116 1306.25 116V112ZM1290.75 116C1291.85 116 1292.75 115.105 1292.75 114C1292.75 112.895 1291.85 112 1290.75 112V116ZM1275.25 112C1274.15 112 1273.25 112.895 1273.25 114C1273.25 115.105 1274.15 116 1275.25 116V112ZM1259.75 116C1260.85 116 1261.75 115.105 1261.75 114C1261.75 112.895 1260.85 112 1259.75 112V116ZM1244.25 112C1243.15 112 1242.25 112.895 1242.25 114C1242.25 115.105 1243.15 116 1244.25 116V112ZM1228.75 116C1229.85 116 1230.75 115.105 1230.75 114C1230.75 112.895 1229.85 112 1228.75 112V116ZM1719 202V194.667H1715V202H1719ZM1719 180V165.333H1715V180H1719ZM1719 150.667V136H1715V150.667H1719ZM1719 121.333V114H1715V121.333H1719ZM1717 112H1709.25V116H1717V112ZM1693.75 112H1678.25V116H1693.75V112ZM1662.75 112L1647.25 112V116L1662.75 116V112ZM1631.75 112H1616.25V116H1631.75V112ZM1600.75 112H1585.25V116H1600.75V112ZM1569.75 112H1554.25V116H1569.75V112ZM1538.75 112H1523.25V116H1538.75V112ZM1507.75 112H1492.25V116H1507.75V112ZM1476.75 112H1461.25V116H1476.75V112ZM1445.75 112H1430.25V116H1445.75V112ZM1414.75 112H1399.25V116H1414.75V112ZM1383.75 112H1368.25V116H1383.75V112ZM1352.75 112H1337.25V116H1352.75V112ZM1321.75 112L1306.25 112V116L1321.75 116V112ZM1290.75 112H1275.25V116H1290.75V112ZM1259.75 112H1244.25V116H1259.75V112ZM1228.75 112H1221V116H1228.75V112Z" fill="#3C458F"/>
<path d="M1779 114H1780C1780 114.552 1779.55 115 1779 115V114ZM1780 64.125C1780 64.6773 1779.55 65.125 1779 65.125C1778.45 65.125 1778 64.6773 1778 64.125H1780ZM1778 78.375C1778 77.8227 1778.45 77.375 1779 77.375C1779.55 77.375 1780 77.8227 1780 78.375H1778ZM1780 92.625C1780 93.1773 1779.55 93.625 1779 93.625C1778.45 93.625 1778 93.1773 1778 92.625H1780ZM1778 106.875C1778 106.323 1778.45 105.875 1779 105.875C1779.55 105.875 1780 106.323 1780 106.875H1778ZM1771.38 115C1770.82 115 1770.38 114.552 1770.38 114C1770.38 113.448 1770.82 113 1771.38 113V115ZM1756.12 113C1756.68 113 1757.12 113.448 1757.12 114C1757.12 114.552 1756.68 115 1756.12 115V113ZM1740.88 115C1740.32 115 1739.88 114.552 1739.88 114C1739.88 113.448 1740.32 113 1740.88 113V115ZM1725.62 113C1726.18 113 1726.62 113.448 1726.62 114C1726.62 114.552 1726.18 115 1725.62 115V113ZM1780 57V64.125H1778V57H1780ZM1780 78.375V92.625H1778V78.375H1780ZM1780 106.875V114H1778V106.875H1780ZM1779 115H1771.38V113H1779V115ZM1756.12 115H1740.88V113H1756.12V115ZM1725.62 115H1718V113H1725.62V115ZM1779 114H1781C1781 115.105 1780.1 116 1779 116V114ZM1781 64.125C1781 65.2296 1780.1 66.125 1779 66.125C1777.9 66.125 1777 65.2296 1777 64.125H1781ZM1777 78.375C1777 77.2704 1777.9 76.375 1779 76.375C1780.1 76.375 1781 77.2704 1781 78.375H1777ZM1781 92.625C1781 93.7296 1780.1 94.625 1779 94.625C1777.9 94.625 1777 93.7296 1777 92.625H1781ZM1777 106.875C1777 105.77 1777.9 104.875 1779 104.875C1780.1 104.875 1781 105.77 1781 106.875H1777ZM1771.38 116C1770.27 116 1769.38 115.105 1769.38 114C1769.38 112.895 1770.27 112 1771.38 112V116ZM1756.12 112C1757.23 112 1758.12 112.895 1758.12 114C1758.12 115.105 1757.23 116 1756.12 116V112ZM1740.88 116C1739.77 116 1738.88 115.105 1738.88 114C1738.88 112.895 1739.77 112 1740.88 112V116ZM1725.62 112C1726.73 112 1727.62 112.895 1727.62 114C1727.62 115.105 1726.73 116 1725.62 116V112ZM1781 57V64.125H1777V57H1781ZM1781 78.375V92.625H1777V78.375H1781ZM1781 106.875V114H1777V106.875H1781ZM1779 116H1771.38V112H1779V116ZM1756.12 116H1740.88V112H1756.12V116ZM1725.62 116H1718V112H1725.62V116Z" fill="#3C458F"/>
<path d="M775 114H774C774 113.448 774.448 113 775 113V114ZM774 125.25C774 124.698 774.448 124.25 775 124.25C775.552 124.25 776 124.698 776 125.25H774ZM776 117.75C776 118.302 775.552 118.75 775 118.75C774.448 118.75 774 118.302 774 117.75H776ZM783.288 113C783.841 113 784.288 113.448 784.288 114C784.288 114.552 783.841 115 783.288 115V113ZM799.865 115C799.313 115 798.865 114.552 798.865 114C798.865 113.448 799.313 113 799.865 113V115ZM816.442 113C816.995 113 817.442 113.448 817.442 114C817.442 114.552 816.995 115 816.442 115V113ZM833.019 115C832.467 115 832.019 114.552 832.019 114C832.019 113.448 832.467 113 833.019 113V115ZM849.596 113C850.148 113 850.596 113.448 850.596 114C850.596 114.552 850.148 115 849.596 115V113ZM866.173 115C865.621 115 865.173 114.552 865.173 114C865.173 113.448 865.621 113 866.173 113V115ZM882.75 113C883.302 113 883.75 113.448 883.75 114C883.75 114.552 883.302 115 882.75 115V113ZM899.327 115C898.775 115 898.327 114.552 898.327 114C898.327 113.448 898.775 113 899.327 113V115ZM915.904 113C916.456 113 916.904 113.448 916.904 114C916.904 114.552 916.456 115 915.904 115V113ZM932.481 115C931.928 115 931.481 114.552 931.481 114C931.481 113.448 931.928 113 932.481 113V115ZM949.058 113C949.61 113 950.058 113.448 950.058 114C950.058 114.552 949.61 115 949.058 115V113ZM965.635 115C965.082 115 964.635 114.552 964.635 114C964.635 113.448 965.082 113 965.635 113V115ZM982.212 113C982.764 113 983.212 113.448 983.212 114C983.212 114.552 982.764 115 982.212 115V113ZM998.788 115C998.236 115 997.788 114.552 997.788 114C997.788 113.448 998.236 113 998.788 113V115ZM1015.37 113C1015.92 113 1016.37 113.448 1016.37 114C1016.37 114.552 1015.92 115 1015.37 115V113ZM1031.94 115C1031.39 115 1030.94 114.552 1030.94 114C1030.94 113.448 1031.39 113 1031.94 113V115ZM1048.52 113C1049.07 113 1049.52 113.448 1049.52 114C1049.52 114.552 1049.07 115 1048.52 115V113ZM1065.1 115C1064.54 115 1064.1 114.552 1064.1 114C1064.1 113.448 1064.54 113 1065.1 113V115ZM1081.67 113C1082.23 113 1082.67 113.448 1082.67 114C1082.67 114.552 1082.23 115 1081.67 115V113ZM1098.25 115C1097.7 115 1097.25 114.552 1097.25 114C1097.25 113.448 1097.7 113 1098.25 113V115ZM1114.83 113C1115.38 113 1115.83 113.448 1115.83 114C1115.83 114.552 1115.38 115 1114.83 115V113ZM1131.4 115C1130.85 115 1130.4 114.552 1130.4 114C1130.4 113.448 1130.85 113 1131.4 113V115ZM1147.98 113C1148.53 113 1148.98 113.448 1148.98 114C1148.98 114.552 1148.53 115 1147.98 115V113ZM1164.56 115C1164.01 115 1163.56 114.552 1163.56 114C1163.56 113.448 1164.01 113 1164.56 113V115ZM1181.13 113C1181.69 113 1182.13 113.448 1182.13 114C1182.13 114.552 1181.69 115 1181.13 115V113ZM1197.71 115C1197.16 115 1196.71 114.552 1196.71 114C1196.71 113.448 1197.16 113 1197.71 113V115ZM774 129V125.25H776V129H774ZM774 117.75V114H776V117.75H774ZM775 113H783.288V115H775V113ZM799.865 113H816.442V115H799.865V113ZM833.019 113L849.596 113V115L833.019 115V113ZM866.173 113H882.75V115H866.173V113ZM899.327 113H915.904V115H899.327V113ZM932.481 113L949.058 113V115L932.481 115V113ZM965.635 113H982.212V115H965.635V113ZM998.788 113H1015.37V115H998.788V113ZM1031.94 113H1048.52V115H1031.94V113ZM1065.1 113L1081.67 113V115L1065.1 115V113ZM1098.25 113H1114.83V115H1098.25V113ZM1131.4 113H1147.98V115H1131.4V113ZM1164.56 113L1181.13 113V115L1164.56 115V113ZM1197.71 113H1206V115H1197.71V113ZM775 114H773C773 112.895 773.895 112 775 112V114ZM773 125.25C773 124.145 773.895 123.25 775 123.25C776.105 123.25 777 124.145 777 125.25H773ZM777 117.75C777 118.855 776.105 119.75 775 119.75C773.895 119.75 773 118.855 773 117.75H777ZM783.288 112C784.393 112 785.288 112.895 785.288 114C785.288 115.105 784.393 116 783.288 116V112ZM799.865 116C798.761 116 797.865 115.105 797.865 114C797.865 112.895 798.761 112 799.865 112V116ZM816.442 112C817.547 112 818.442 112.895 818.442 114C818.442 115.105 817.547 116 816.442 116V112ZM833.019 116C831.915 116 831.019 115.105 831.019 114C831.019 112.895 831.915 112 833.019 112V116ZM849.596 112C850.701 112 851.596 112.895 851.596 114C851.596 115.105 850.701 116 849.596 116V112ZM866.173 116C865.069 116 864.173 115.105 864.173 114C864.173 112.895 865.069 112 866.173 112V116ZM882.75 112C883.855 112 884.75 112.895 884.75 114C884.75 115.105 883.855 116 882.75 116V112ZM899.327 116C898.222 116 897.327 115.105 897.327 114C897.327 112.895 898.222 112 899.327 112V116ZM915.904 112C917.008 112 917.904 112.895 917.904 114C917.904 115.105 917.008 116 915.904 116V112ZM932.481 116C931.376 116 930.481 115.105 930.481 114C930.481 112.895 931.376 112 932.481 112V116ZM949.058 112C950.162 112 951.058 112.895 951.058 114C951.058 115.105 950.162 116 949.058 116V112ZM965.635 116C964.53 116 963.635 115.105 963.635 114C963.635 112.895 964.53 112 965.635 112V116ZM982.212 112C983.316 112 984.212 112.895 984.212 114C984.212 115.105 983.316 116 982.212 116V112ZM998.788 116C997.684 116 996.788 115.105 996.788 114C996.788 112.895 997.684 112 998.788 112V116ZM1015.37 112C1016.47 112 1017.37 112.895 1017.37 114C1017.37 115.105 1016.47 116 1015.37 116V112ZM1031.94 116C1030.84 116 1029.94 115.105 1029.94 114C1029.94 112.895 1030.84 112 1031.94 112V116ZM1048.52 112C1049.62 112 1050.52 112.895 1050.52 114C1050.52 115.105 1049.62 116 1048.52 116V112ZM1065.1 116C1063.99 116 1063.1 115.105 1063.1 114C1063.1 112.895 1063.99 112 1065.1 112V116ZM1081.67 112C1082.78 112 1083.67 112.895 1083.67 114C1083.67 115.105 1082.78 116 1081.67 116V112ZM1098.25 116C1097.15 116 1096.25 115.105 1096.25 114C1096.25 112.895 1097.15 112 1098.25 112V116ZM1114.83 112C1115.93 112 1116.83 112.895 1116.83 114C1116.83 115.105 1115.93 116 1114.83 116V112ZM1131.4 116C1130.3 116 1129.4 115.105 1129.4 114C1129.4 112.895 1130.3 112 1131.4 112V116ZM1147.98 112C1149.09 112 1149.98 112.895 1149.98 114C1149.98 115.105 1149.09 116 1147.98 116V112ZM1164.56 116C1163.45 116 1162.56 115.105 1162.56 114C1162.56 112.895 1163.45 112 1164.56 112V116ZM1181.13 112C1182.24 112 1183.13 112.895 1183.13 114C1183.13 115.105 1182.24 116 1181.13 116V112ZM1197.71 116C1196.61 116 1195.71 115.105 1195.71 114C1195.71 112.895 1196.61 112 1197.71 112V116ZM773 129V125.25H777V129H773ZM773 117.75V114H777V117.75H773ZM775 112H783.288V116H775V112ZM799.865 112H816.442V116H799.865V112ZM833.019 112L849.596 112V116L833.019 116V112ZM866.173 112H882.75V116H866.173V112ZM899.327 112H915.904V116H899.327V112ZM932.481 112L949.058 112V116L932.481 116V112ZM965.635 112H982.212V116H965.635V112ZM998.788 112H1015.37V116H998.788V112ZM1031.94 112H1048.52V116H1031.94V112ZM1065.1 112L1081.67 112V116L1065.1 116V112ZM1098.25 112H1114.83V116H1098.25V112ZM1131.4 112H1147.98V116H1131.4V112ZM1164.56 112L1181.13 112V116L1164.56 116V112ZM1197.71 112H1206V116H1197.71V112Z" fill="#3C458F"/>
<path d="M303 133V132C302.448 132 302 132.448 302 133H303ZM652.864 132C652.311 132 651.864 132.448 651.864 133C651.864 133.552 652.311 134 652.864 134V132ZM636.591 134C637.143 134 637.591 133.552 637.591 133C637.591 132.448 637.143 132 636.591 132V134ZM620.318 132C619.766 132 619.318 132.448 619.318 133C619.318 133.552 619.766 134 620.318 134V132ZM604.045 134C604.598 134 605.045 133.552 605.045 133C605.045 132.448 604.598 132 604.045 132V134ZM587.773 132C587.22 132 586.773 132.448 586.773 133C586.773 133.552 587.22 134 587.773 134V132ZM571.5 134C572.052 134 572.5 133.552 572.5 133C572.5 132.448 572.052 132 571.5 132V134ZM555.227 132C554.675 132 554.227 132.448 554.227 133C554.227 133.552 554.675 134 555.227 134V132ZM538.955 134C539.507 134 539.955 133.552 539.955 133C539.955 132.448 539.507 132 538.955 132V134ZM522.682 132C522.13 132 521.682 132.448 521.682 133C521.682 133.552 522.13 134 522.682 134V132ZM506.409 134C506.961 134 507.409 133.552 507.409 133C507.409 132.448 506.961 132 506.409 132V134ZM490.136 132C489.584 132 489.136 132.448 489.136 133C489.136 133.552 489.584 134 490.136 134V132ZM473.864 134C474.416 134 474.864 133.552 474.864 133C474.864 132.448 474.416 132 473.864 132V134ZM457.591 132C457.039 132 456.591 132.448 456.591 133C456.591 133.552 457.039 134 457.591 134V132ZM441.318 134C441.87 134 442.318 133.552 442.318 133C442.318 132.448 441.87 132 441.318 132V134ZM425.045 132C424.493 132 424.045 132.448 424.045 133C424.045 133.552 424.493 134 425.045 134V132ZM408.773 134C409.325 134 409.773 133.552 409.773 133C409.773 132.448 409.325 132 408.773 132V134ZM392.5 132C391.948 132 391.5 132.448 391.5 133C391.5 133.552 391.948 134 392.5 134V132ZM376.227 134C376.779 134 377.227 133.552 377.227 133C377.227 132.448 376.779 132 376.227 132V134ZM359.954 132C359.402 132 358.954 132.448 358.954 133C358.954 133.552 359.402 134 359.954 134V132ZM343.682 134C344.234 134 344.682 133.552 344.682 133C344.682 132.448 344.234 132 343.682 132V134ZM327.409 132C326.857 132 326.409 132.448 326.409 133C326.409 133.552 326.857 134 327.409 134V132ZM311.136 134C311.689 134 312.136 133.552 312.136 133C312.136 132.448 311.689 132 311.136 132V134ZM302 141.75C302 142.302 302.448 142.75 303 142.75C303.552 142.75 304 142.302 304 141.75H302ZM304 159.25C304 158.698 303.552 158.25 303 158.25C302.448 158.25 302 158.698 302 159.25H304ZM661 132H652.864V134H661V132ZM636.591 132H620.318V134H636.591V132ZM604.045 132H587.773V134H604.045V132ZM571.5 132H555.227V134H571.5V132ZM538.955 132H522.682V134H538.955V132ZM506.409 132H490.136V134H506.409V132ZM473.864 132H457.591V134H473.864V132ZM441.318 132H425.045V134H441.318V132ZM408.773 132H392.5V134H408.773V132ZM376.227 132H359.954V134H376.227V132ZM343.682 132L327.409 132V134L343.682 134V132ZM311.136 132H303V134H311.136V132ZM302 133V141.75H304V133H302ZM302 159.25V168H304V159.25H302ZM303 133V131C301.895 131 301 131.895 301 133H303ZM652.864 131C651.759 131 650.864 131.895 650.864 133C650.864 134.105 651.759 135 652.864 135V131ZM636.591 135C637.695 135 638.591 134.105 638.591 133C638.591 131.895 637.695 131 636.591 131V135ZM620.318 131C619.214 131 618.318 131.895 618.318 133C618.318 134.105 619.214 135 620.318 135V131ZM604.045 135C605.15 135 606.045 134.105 606.045 133C606.045 131.895 605.15 131 604.045 131V135ZM587.773 131C586.668 131 585.773 131.895 585.773 133C585.773 134.105 586.668 135 587.773 135V131ZM571.5 135C572.605 135 573.5 134.105 573.5 133C573.5 131.895 572.605 131 571.5 131V135ZM555.227 131C554.123 131 553.227 131.895 553.227 133C553.227 134.105 554.123 135 555.227 135V131ZM538.955 135C540.059 135 540.955 134.105 540.955 133C540.955 131.895 540.059 131 538.955 131V135ZM522.682 131C521.577 131 520.682 131.895 520.682 133C520.682 134.105 521.577 135 522.682 135V131ZM506.409 135C507.514 135 508.409 134.105 508.409 133C508.409 131.895 507.514 131 506.409 131V135ZM490.136 131C489.032 131 488.136 131.895 488.136 133C488.136 134.105 489.032 135 490.136 135V131ZM473.864 135C474.968 135 475.864 134.105 475.864 133C475.864 131.895 474.968 131 473.864 131V135ZM457.591 131C456.486 131 455.591 131.895 455.591 133C455.591 134.105 456.486 135 457.591 135V131ZM441.318 135C442.423 135 443.318 134.105 443.318 133C443.318 131.895 442.423 131 441.318 131V135ZM425.045 131C423.941 131 423.045 131.895 423.045 133C423.045 134.105 423.941 135 425.045 135V131ZM408.773 135C409.877 135 410.773 134.105 410.773 133C410.773 131.895 409.877 131 408.773 131V135ZM392.5 131C391.395 131 390.5 131.895 390.5 133C390.5 134.105 391.395 135 392.5 135V131ZM376.227 135C377.332 135 378.227 134.105 378.227 133C378.227 131.895 377.332 131 376.227 131V135ZM359.954 131C358.85 131 357.954 131.895 357.954 133C357.954 134.105 358.85 135 359.954 135V131ZM343.682 135C344.786 135 345.682 134.105 345.682 133C345.682 131.895 344.786 131 343.682 131V135ZM327.409 131C326.304 131 325.409 131.895 325.409 133C325.409 134.105 326.304 135 327.409 135V131ZM311.136 135C312.241 135 313.136 134.105 313.136 133C313.136 131.895 312.241 131 311.136 131V135ZM301 141.75C301 142.855 301.895 143.75 303 143.75C304.105 143.75 305 142.855 305 141.75H301ZM305 159.25C305 158.145 304.105 157.25 303 157.25C301.895 157.25 301 158.145 301 159.25H305ZM661 131H652.864V135H661V131ZM636.591 131H620.318V135H636.591V131ZM604.045 131H587.773V135H604.045V131ZM571.5 131H555.227V135H571.5V131ZM538.955 131H522.682V135H538.955V131ZM506.409 131H490.136V135H506.409V131ZM473.864 131H457.591V135H473.864V131ZM441.318 131H425.045V135H441.318V131ZM408.773 131H392.5V135H408.773V131ZM376.227 131H359.954V135H376.227V131ZM343.682 131L327.409 131V135L343.682 135V131ZM311.136 131H303V135H311.136V131ZM301 133V141.75H305V133H301ZM301 159.25V168H305V159.25H301Z" fill="#3C458F"/>
<path d="M1244 169.25C1244 169.802 1244.45 170.25 1245 170.25C1245.55 170.25 1246 169.802 1246 169.25L1244 169.25ZM1246 191.75C1246 191.198 1245.55 190.75 1245 190.75C1244.45 190.75 1244 191.198 1244 191.75L1246 191.75ZM1244 158L1244 169.25L1246 169.25L1246 158L1244 158ZM1244 191.75L1244 203L1246 203L1246 191.75L1244 191.75ZM1243 169.25C1243 170.355 1243.9 171.25 1245 171.25C1246.1 171.25 1247 170.355 1247 169.25L1243 169.25ZM1247 191.75C1247 190.645 1246.1 189.75 1245 189.75C1243.9 189.75 1243 190.645 1243 191.75L1247 191.75ZM1243 158L1243 169.25L1247 169.25L1247 158L1243 158ZM1243 191.75L1243 203L1247 203L1247 191.75L1243 191.75Z" fill="#3C458F"/>
<path d="M302 184.5C302 185.052 302.448 185.5 303 185.5C303.552 185.5 304 185.052 304 184.5L302 184.5ZM304 197.5C304 196.948 303.552 196.5 303 196.5C302.448 196.5 302 196.948 302 197.5L304 197.5ZM302 178L302 184.5L304 184.5L304 178L302 178ZM302 197.5L302 204L304 204L304 197.5L302 197.5ZM301 184.5C301 185.605 301.895 186.5 303 186.5C304.105 186.5 305 185.605 305 184.5L301 184.5ZM305 197.5C305 196.395 304.105 195.5 303 195.5C301.895 195.5 301 196.395 301 197.5L305 197.5ZM301 178L301 184.5L305 184.5L305 178L301 178ZM301 197.5L301 204L305 204L305 197.5L301 197.5Z" fill="#3C458F"/>
</svg>
