<svg width="572" height="627" viewBox="0 0 572 627" fill="none" xmlns="http://www.w3.org/2000/svg">
<path d="M554 410.5H14V612.5H554V410.5Z" fill="#E0DBDB" stroke="black"/>
<path d="M223 64.5H64V163.5H223V64.5Z" fill="#FAFAFB" stroke="black"/>
<path d="M223 64.5H64V163.5H223V64.5Z" fill="#FAFAFB" stroke="black"/>
<path d="M108.5 157.5C129.763 157.5 147 140.263 147 119C147 97.737 129.763 80.5 108.5 80.5C87.237 80.5 70 97.737 70 119C70 140.263 87.237 157.5 108.5 157.5Z" fill="#C6C6C6" stroke="black" stroke-width="3"/>
<path fill-rule="evenodd" clip-rule="evenodd" d="M147.108 129.5C148.015 126.154 148.5 122.634 148.5 119C148.5 112.724 147.055 106.786 144.479 101.5H72.5212C69.9453 106.786 68.5 112.724 68.5 119C68.5 122.634 68.9845 126.154 69.8923 129.5H147.108Z" fill="white"/>
<path fill-rule="evenodd" clip-rule="evenodd" d="M147.108 129.5C148.015 126.154 148.5 122.634 148.5 119C148.5 112.724 147.055 106.786 144.479 101.5H72.5212C69.9453 106.786 68.5 112.724 68.5 119C68.5 122.634 68.9845 126.154 69.8923 129.5H147.108Z" fill="white"/>
<path d="M147.108 129.5V130.5H147.872L148.073 129.762L147.108 129.5ZM144.479 101.5L145.378 101.062L145.104 100.5H144.479V101.5ZM72.5212 101.5V100.5H71.8961L71.6222 101.062L72.5212 101.5ZM69.8923 129.5L68.9272 129.762L69.1275 130.5H69.8923V129.5ZM147.5 119C147.5 122.544 147.028 125.977 146.143 129.238L148.073 129.762C149.004 126.331 149.5 122.723 149.5 119H147.5ZM143.58 101.938C146.091 107.091 147.5 112.879 147.5 119H149.5C149.5 112.569 148.019 106.481 145.378 101.062L143.58 101.938ZM72.5212 102.5H144.479V100.5H72.5212V102.5ZM69.5 119C69.5 112.879 70.9093 107.091 73.4201 101.938L71.6222 101.062C68.9813 106.481 67.5 112.569 67.5 119H69.5ZM70.8575 129.238C69.9725 125.977 69.5 122.544 69.5 119H67.5C67.5 122.723 67.9964 126.331 68.9272 129.762L70.8575 129.238ZM147.108 128.5H69.8923V130.5H147.108V128.5Z" fill="black"/>
<path d="M130.5 134H86.5V138H130.5V134Z" fill="black"/>
<path d="M89 145C90.3807 145 91.5 143.881 91.5 142.5C91.5 141.119 90.3807 140 89 140C87.6193 140 86.5 141.119 86.5 142.5C86.5 143.881 87.6193 145 89 145Z" fill="black"/>
<path d="M128 145C129.381 145 130.5 143.881 130.5 142.5C130.5 141.119 129.381 140 128 140C126.619 140 125.5 141.119 125.5 142.5C125.5 143.881 126.619 145 128 145Z" fill="black"/>
<path d="M115 145C116.381 145 117.5 143.881 117.5 142.5C117.5 141.119 116.381 140 115 140C113.619 140 112.5 141.119 112.5 142.5C112.5 143.881 113.619 145 115 145Z" fill="black"/>
<path d="M102 145C103.381 145 104.5 143.881 104.5 142.5C104.5 141.119 103.381 140 102 140C100.619 140 99.5 141.119 99.5 142.5C99.5 143.881 100.619 145 102 145Z" fill="black"/>
<path d="M223 262.5H64V361.5H223V262.5Z" fill="#FAFAFB" stroke="black"/>
<path d="M223 262.5H64V361.5H223V262.5Z" fill="#FAFAFB" stroke="black"/>
<path d="M108.5 355.5C129.763 355.5 147 338.263 147 317C147 295.737 129.763 278.5 108.5 278.5C87.237 278.5 70 295.737 70 317C70 338.263 87.237 355.5 108.5 355.5Z" fill="#C6C6C6" stroke="black" stroke-width="3"/>
<path fill-rule="evenodd" clip-rule="evenodd" d="M147.108 327.5C148.016 324.154 148.5 320.634 148.5 317C148.5 310.724 147.055 304.786 144.479 299.5H72.521C69.945 304.786 68.5 310.724 68.5 317C68.5 320.634 68.984 324.154 69.892 327.5H147.108Z" fill="white"/>
<path fill-rule="evenodd" clip-rule="evenodd" d="M147.108 327.5C148.016 324.154 148.5 320.634 148.5 317C148.5 310.724 147.055 304.786 144.479 299.5H72.521C69.945 304.786 68.5 310.724 68.5 317C68.5 320.634 68.984 324.154 69.892 327.5H147.108Z" fill="white"/>
<path d="M147.108 327.5V328.5H147.872L148.073 327.762L147.108 327.5ZM144.479 299.5L145.378 299.062L145.104 298.5H144.479V299.5ZM72.521 299.5V298.5H71.896L71.622 299.062L72.521 299.5ZM69.892 327.5L68.927 327.762L69.128 328.5H69.892V327.5ZM147.5 317C147.5 320.544 147.027 323.977 146.143 327.238L148.073 327.762C149.004 324.331 149.5 320.723 149.5 317H147.5ZM143.58 299.938C146.091 305.091 147.5 310.879 147.5 317H149.5C149.5 310.569 148.019 304.481 145.378 299.062L143.58 299.938ZM72.521 300.5H144.479V298.5H72.521V300.5ZM69.5 317C69.5 310.879 70.909 305.091 73.42 299.938L71.622 299.062C68.981 304.481 67.5 310.569 67.5 317H69.5ZM70.857 327.238C69.973 323.977 69.5 320.544 69.5 317H67.5C67.5 320.723 67.996 324.331 68.927 327.762L70.857 327.238ZM147.108 326.5H69.892V328.5H147.108V326.5Z" fill="black"/>
<path d="M130.5 332H86.5V336H130.5V332Z" fill="black"/>
<path d="M89 343C90.3807 343 91.5 341.881 91.5 340.5C91.5 339.119 90.3807 338 89 338C87.6193 338 86.5 339.119 86.5 340.5C86.5 341.881 87.6193 343 89 343Z" fill="black"/>
<path d="M128 343C129.381 343 130.5 341.881 130.5 340.5C130.5 339.119 129.381 338 128 338C126.619 338 125.5 339.119 125.5 340.5C125.5 341.881 126.619 343 128 343Z" fill="black"/>
<path d="M115 343C116.381 343 117.5 341.881 117.5 340.5C117.5 339.119 116.381 338 115 338C113.619 338 112.5 339.119 112.5 340.5C112.5 341.881 113.619 343 115 343Z" fill="black"/>
<path d="M102 343C103.381 343 104.5 341.881 104.5 340.5C104.5 339.119 103.381 338 102 338C100.619 338 99.5 339.119 99.5 340.5C99.5 341.881 100.619 343 102 343Z" fill="black"/>
<path d="M498.428 64.5H339.428V163.5H498.428V64.5Z" fill="#FAFAFB" stroke="black"/>
<path d="M498 64.5H339V163.5H498V64.5Z" fill="#FAFAFB" stroke="black"/>
<path d="M383.928 157.5C405.191 157.5 422.428 140.263 422.428 119C422.428 97.737 405.191 80.5 383.928 80.5C362.665 80.5 345.428 97.737 345.428 119C345.428 140.263 362.665 157.5 383.928 157.5Z" fill="#C6C6C6" stroke="black" stroke-width="3"/>
<path fill-rule="evenodd" clip-rule="evenodd" d="M422.538 129.5C423.448 126.154 423.928 122.634 423.928 119C423.928 112.724 422.478 106.786 419.908 101.5H347.949C345.373 106.786 343.928 112.724 343.928 119C343.928 122.634 344.412 126.154 345.32 129.5H422.538Z" fill="white"/>
<path fill-rule="evenodd" clip-rule="evenodd" d="M422.538 129.5C423.448 126.154 423.928 122.634 423.928 119C423.928 112.724 422.478 106.786 419.908 101.5H347.949C345.373 106.786 343.928 112.724 343.928 119C343.928 122.634 344.412 126.154 345.32 129.5H422.538Z" fill="white"/>
<path d="M422.538 129.5V130.5H423.298L423.498 129.762L422.538 129.5ZM419.908 101.5L420.808 101.062L420.528 100.5H419.908V101.5ZM347.949 101.5V100.5H347.324L347.05 101.062L347.949 101.5ZM345.32 129.5L344.355 129.762L344.556 130.5H345.32V129.5ZM422.928 119C422.928 122.544 422.458 125.977 421.568 129.238L423.498 129.762C424.428 126.331 424.928 122.723 424.928 119H422.928ZM419.008 101.938C421.518 107.091 422.928 112.879 422.928 119H424.928C424.928 112.569 423.448 106.481 420.808 101.062L419.008 101.938ZM347.949 102.5H419.908V100.5H347.949V102.5ZM344.928 119C344.928 112.879 346.337 107.091 348.848 101.938L347.05 101.062C344.409 106.481 342.928 112.569 342.928 119H344.928ZM346.285 129.238C345.401 125.977 344.928 122.544 344.928 119H342.928C342.928 122.723 343.424 126.331 344.355 129.762L346.285 129.238ZM422.538 128.5H345.32V130.5H422.538V128.5Z" fill="black"/>
<path d="M405.928 134H361.928V138H405.928V134Z" fill="black"/>
<path d="M364.428 145C365.809 145 366.928 143.881 366.928 142.5C366.928 141.119 365.809 140 364.428 140C363.047 140 361.928 141.119 361.928 142.5C361.928 143.881 363.047 145 364.428 145Z" fill="black"/>
<path d="M403.428 145C404.809 145 405.928 143.881 405.928 142.5C405.928 141.119 404.809 140 403.428 140C402.047 140 400.928 141.119 400.928 142.5C400.928 143.881 402.047 145 403.428 145Z" fill="black"/>
<path d="M390.428 145C391.809 145 392.928 143.881 392.928 142.5C392.928 141.119 391.809 140 390.428 140C389.047 140 387.928 141.119 387.928 142.5C387.928 143.881 389.047 145 390.428 145Z" fill="black"/>
<path d="M377.428 145C378.809 145 379.928 143.881 379.928 142.5C379.928 141.119 378.809 140 377.428 140C376.047 140 374.928 141.119 374.928 142.5C374.928 143.881 376.047 145 377.428 145Z" fill="black"/>
<path d="M508 262.5H349V361.5H508V262.5Z" fill="#FAFAFB" stroke="black"/>
<path d="M508 262.5H349V361.5H508V262.5Z" fill="#FAFAFB" stroke="black"/>
<path d="M393.5 355.5C414.763 355.5 432 338.263 432 317C432 295.737 414.763 278.5 393.5 278.5C372.237 278.5 355 295.737 355 317C355 338.263 372.237 355.5 393.5 355.5Z" fill="#C6C6C6" stroke="black" stroke-width="3"/>
<path fill-rule="evenodd" clip-rule="evenodd" d="M432.108 327.5C433.016 324.154 433.5 320.634 433.5 317C433.5 310.724 432.055 304.786 429.479 299.5H357.521C354.945 304.786 353.5 310.724 353.5 317C353.5 320.634 353.984 324.154 354.892 327.5H432.108Z" fill="white"/>
<path fill-rule="evenodd" clip-rule="evenodd" d="M432.108 327.5C433.016 324.154 433.5 320.634 433.5 317C433.5 310.724 432.055 304.786 429.479 299.5H357.521C354.945 304.786 353.5 310.724 353.5 317C353.5 320.634 353.984 324.154 354.892 327.5H432.108Z" fill="white"/>
<path d="M432.108 327.5V328.5H432.872L433.073 327.762L432.108 327.5ZM429.479 299.5L430.378 299.062L430.104 298.5H429.479V299.5ZM357.521 299.5V298.5H356.896L356.622 299.062L357.521 299.5ZM354.892 327.5L353.927 327.762L354.128 328.5H354.892V327.5ZM432.5 317C432.5 320.544 432.027 323.977 431.143 327.238L433.073 327.762C434.004 324.331 434.5 320.723 434.5 317H432.5ZM428.58 299.938C431.091 305.091 432.5 310.879 432.5 317H434.5C434.5 310.569 433.019 304.481 430.378 299.062L428.58 299.938ZM357.521 300.5H429.479V298.5H357.521V300.5ZM354.5 317C354.5 310.879 355.909 305.091 358.42 299.938L356.622 299.062C353.981 304.481 352.5 310.569 352.5 317H354.5ZM355.857 327.238C354.973 323.977 354.5 320.544 354.5 317H352.5C352.5 320.723 352.996 324.331 353.927 327.762L355.857 327.238ZM432.108 326.5H354.892V328.5H432.108V326.5Z" fill="black"/>
<path d="M415.5 332H371.5V336H415.5V332Z" fill="black"/>
<path d="M374 343C375.381 343 376.5 341.881 376.5 340.5C376.5 339.119 375.381 338 374 338C372.619 338 371.5 339.119 371.5 340.5C371.5 341.881 372.619 343 374 343Z" fill="black"/>
<path d="M413 343C414.381 343 415.5 341.881 415.5 340.5C415.5 339.119 414.381 338 413 338C411.619 338 410.5 339.119 410.5 340.5C410.5 341.881 411.619 343 413 343Z" fill="black"/>
<path d="M400 343C401.381 343 402.5 341.881 402.5 340.5C402.5 339.119 401.381 338 400 338C398.619 338 397.5 339.119 397.5 340.5C397.5 341.881 398.619 343 400 343Z" fill="black"/>
<path d="M387 343C388.381 343 389.5 341.881 389.5 340.5C389.5 339.119 388.381 338 387 338C385.619 338 384.5 339.119 384.5 340.5C384.5 341.881 385.619 343 387 343Z" fill="black"/>
<path d="M145 171H142V262H145V171Z" fill="#76BB81"/>
<path d="M145.5 365H142.5V409H145.5V365Z" fill="#76BB81"/>
<g filter="url(#filter0_d)">
<path d="M179.5 509H176.5V500H179.5V509Z" fill="#76BB81"/>
</g>
<g filter="url(#filter1_d)">
<path d="M68.5 569H65.5V559H68.5V569Z" fill="#76BB81"/>
</g>
<path d="M143.5 174L136.572 164L150.428 164L143.5 174Z" fill="#76BB81"/>
<path d="M144.072 374L137.144 362H151L144.072 374Z" fill="#76BB81"/>
<path d="M145 13H142V64H145V13Z" fill="#76BB81"/>
<path d="M143.5 19L133.108 1L153.892 1L143.5 19Z" fill="#76BB81"/>
<path d="M420 12H417V63H420V12Z" fill="#76BB81"/>
<path d="M418.5 18L408.108 0L428.892 1.81705e-06L418.5 18Z" fill="#76BB81"/>
<path d="M427 369H430V409H427V369Z" fill="#76BB81"/>
<path d="M428.5 374L421.572 362H435.428L428.5 374Z" fill="#76BB81"/>
<path d="M126 197C126 206.389 133.611 214 143 214C152.389 214 160 206.389 160 197C160 187.611 152.389 180 143 180C133.611 180 126 187.611 126 197Z" stroke="black"/>
<path d="M126 215C126 224.389 133.611 232 143 232C152.389 232 160 224.389 160 215C160 205.611 152.389 198 143 198C133.611 198 126 205.611 126 215Z" stroke="black"/>
<path d="M420 172H417V263H420V172Z" fill="#76BB81"/>
<path d="M419.5 174L412.572 164L426.428 164L419.5 174Z" fill="#76BB81"/>
<path d="M402 198C402 207.389 409.611 215 419 215C428.389 215 436 207.389 436 198C436 188.611 428.389 181 419 181C409.611 181 402 188.611 402 198Z" stroke="black"/>
<path d="M402 216C402 225.389 409.611 233 419 233C428.389 233 436 225.389 436 216C436 206.611 428.389 199 419 199C409.611 199 402 206.611 402 216Z" stroke="black"/>
<path d="M571 236.5H1V625.5H571V236.5Z" stroke="black" stroke-dasharray="10 10"/>
<path fill-rule="evenodd" clip-rule="evenodd" d="M145.5 464.053L142.902 465.553L140.402 461.222L137.805 462.722L131.805 452.33L134.402 450.83L131.902 446.5L134.5 445L145.5 464.053Z" fill="#76BB81"/>
<path d="M145.5 474H142.5V464H145.5V474Z" fill="#76BB81"/>
<path d="M147 475.041C147 476.698 145.657 478.041 144 478.041C142.343 478.041 141 476.698 141 475.041C141 473.385 142.343 472.041 144 472.041C145.657 472.041 147 473.385 147 475.041Z" fill="#76BB81"/>
<path d="M137 475C137 476.857 137.737 478.637 139.05 479.95C140.363 481.263 142.143 482 144 482C145.857 482 147.637 481.263 148.95 479.95C150.263 478.637 151 476.857 151 475H148.672C148.672 476.239 148.18 477.427 147.303 478.303C146.427 479.18 145.239 479.672 144 479.672C142.761 479.672 141.573 479.18 140.697 478.303C139.82 477.427 139.328 476.239 139.328 475H137Z" fill="#76BB81"/>
<path d="M145.5 422H142.5V414H145.5V422Z" fill="#76BB81"/>
<path d="M145.5 444H142.5V430H145.5V444Z" fill="#76BB81"/>
<path d="M147 427.959C147 429.615 145.657 430.959 144 430.959C142.343 430.959 141 429.615 141 427.959C141 426.302 142.343 424.959 144 424.959C145.657 424.959 147 426.302 147 427.959Z" fill="#76BB81"/>
<path d="M151 428C151 426.143 150.263 424.363 148.95 423.05C147.637 421.737 145.857 421 144 421C142.143 421 140.363 421.737 139.05 423.05C137.737 424.363 137 426.143 137 428H139.328C139.328 426.761 139.82 425.573 140.697 424.697C141.573 423.82 142.761 423.328 144 423.328C145.239 423.328 146.427 423.82 147.303 424.697C148.18 425.573 148.672 426.761 148.672 428H151Z" fill="#76BB81"/>
<path d="M147.5 443H140.5V445H147.5V443Z" fill="#76BB81"/>
<path d="M145.5 446C145.5 446.828 144.828 447.5 144 447.5C143.172 447.5 142.5 446.828 142.5 446C142.5 445.172 143.172 444.5 144 444.5C144.828 444.5 145.5 445.172 145.5 446Z" stroke="#76BB81"/>
<path d="M430 422H427V414H430V422Z" fill="#76BB81"/>
<path d="M430 444H427V430H430V444Z" fill="#76BB81"/>
<path d="M431.5 427.959C431.5 429.615 430.157 430.959 428.5 430.959C426.843 430.959 425.5 429.615 425.5 427.959C425.5 426.302 426.843 424.959 428.5 424.959C430.157 424.959 431.5 426.302 431.5 427.959Z" fill="#76BB81"/>
<path d="M435.5 428C435.5 426.143 434.763 424.363 433.45 423.05C432.137 421.737 430.357 421 428.5 421C426.643 421 424.863 421.737 423.55 423.05C422.237 424.363 421.5 426.143 421.5 428H423.828C423.828 426.761 424.32 425.573 425.197 424.697C426.073 423.82 427.261 423.328 428.5 423.328C429.739 423.328 430.927 423.82 431.803 424.697C432.68 425.573 433.172 426.761 433.172 428H435.5Z" fill="#76BB81"/>
<path d="M432 443H425V445H432V443Z" fill="#76BB81"/>
<path d="M430 446C430 446.828 429.328 447.5 428.5 447.5C427.672 447.5 427 446.828 427 446C427 445.172 427.672 444.5 428.5 444.5C429.328 444.5 430 445.172 430 446Z" stroke="#76BB81"/>
<path fill-rule="evenodd" clip-rule="evenodd" d="M157 515.163C155.703 515.447 154.504 516.097 153.55 517.05C152.237 518.363 151.5 520.143 151.5 522H153.828C153.828 520.761 154.32 519.573 155.197 518.697C156.073 517.82 157.261 517.328 158.5 517.328C159.739 517.328 160.927 517.82 161.803 518.697C162.68 519.573 163.172 520.761 163.172 522H165.5C165.5 520.143 164.763 518.363 163.45 517.05C162.496 516.097 161.297 515.447 160 515.163V508H157V515.163ZM157.5 524.788V537H155.5V539H157.268C157.098 539.294 157.001 539.636 157.001 540C157.001 541.105 157.896 542 159.001 542C160.105 542 161.001 541.105 161.001 540C161.001 539.636 160.903 539.294 160.733 539H162.5V537H160.5V524.195C161.114 523.645 161.5 522.847 161.5 521.959C161.5 520.302 160.157 518.959 158.5 518.959C156.843 518.959 155.5 520.302 155.5 521.959C155.5 523.265 156.335 524.376 157.5 524.788ZM158.992 539H159.009C159.558 539.004 160.001 539.45 160.001 540C160.001 540.552 159.553 541 159.001 541C158.449 541 158.001 540.552 158.001 540C158.001 539.45 158.444 539.004 158.992 539Z" fill="#76BB81"/>
<path d="M138.5 456H129.5V457H138.5V456Z" fill="#76BB81"/>
<path d="M153.5 551H144.5V552H153.5V551Z" fill="#76BB81"/>
<path d="M129.975 456.5C129.975 458.985 127.96 461 125.475 461C122.989 461 120.975 458.985 120.975 456.5C120.975 454.015 122.989 452 125.475 452C127.96 452 129.975 454.015 129.975 456.5Z" stroke="#76BB81"/>
<path d="M128.9 455.447C128.9 456.064 128.717 456.586 128.35 457.012C127.986 457.434 127.537 457.645 127.002 457.645C126.721 457.645 126.455 457.594 126.205 457.492C125.955 457.387 125.664 457.189 125.332 456.9C125.004 456.611 124.768 456.432 124.623 456.361C124.479 456.291 124.324 456.256 124.16 456.256C123.855 456.256 123.621 456.361 123.457 456.572C123.293 456.779 123.211 457.066 123.211 457.434L122.268 457.445C122.268 456.82 122.447 456.307 122.807 455.904C123.166 455.502 123.617 455.301 124.16 455.301C124.457 455.301 124.742 455.363 125.016 455.488C125.289 455.613 125.598 455.834 125.941 456.15C126.285 456.463 126.582 456.639 126.832 456.678L127.002 456.689C127.299 456.689 127.539 456.576 127.723 456.35C127.91 456.123 128.004 455.824 128.004 455.453L128.9 455.447Z" fill="black"/>
<path fill-rule="evenodd" clip-rule="evenodd" d="M160.502 558.995L157.904 560.495L155.404 556.165L152.807 557.665L146.807 547.273L149.404 545.773L146.904 541.443L149.502 539.943L160.502 558.995Z" fill="#76BB81"/>
<path d="M157.5 569H160.5V559H157.5V569Z" fill="#76BB81"/>
<path d="M162 570.083C162 571.74 160.657 573.083 159 573.083C157.343 573.083 156 571.74 156 570.083C156 568.426 157.343 567.083 159 567.083C160.657 567.083 162 568.426 162 570.083Z" fill="#76BB81"/>
<path d="M152 570C152 571.857 152.737 573.637 154.05 574.95C155.363 576.263 157.143 577 159 577C160.857 577 162.637 576.263 163.95 574.95C165.263 573.637 166 571.857 166 570H163.672C163.672 571.239 163.18 572.427 162.303 573.303C161.427 574.18 160.239 574.672 159 574.672C157.761 574.672 156.573 574.18 155.697 573.303C154.82 572.427 154.328 571.239 154.328 570H152Z" fill="#76BB81"/>
<path d="M144 551.5C144 553.985 141.985 556 139.5 556C137.015 556 135 553.985 135 551.5C135 549.015 137.015 547 139.5 547C141.985 547 144 549.015 144 551.5Z" stroke="#76BB81"/>
<path d="M142.889 550.447C142.889 551.064 142.705 551.586 142.338 552.012C141.975 552.434 141.525 552.645 140.99 552.645C140.709 552.645 140.443 552.594 140.193 552.492C139.943 552.387 139.652 552.189 139.32 551.9C138.992 551.611 138.756 551.432 138.611 551.361C138.467 551.291 138.312 551.256 138.148 551.256C137.844 551.256 137.609 551.361 137.445 551.572C137.281 551.779 137.199 552.066 137.199 552.434L136.256 552.445C136.256 551.82 136.436 551.307 136.795 550.904C137.154 550.502 137.605 550.301 138.148 550.301C138.445 550.301 138.73 550.363 139.004 550.488C139.277 550.613 139.586 550.834 139.93 551.15C140.273 551.463 140.57 551.639 140.82 551.678L140.99 551.689C141.287 551.689 141.527 551.576 141.711 551.35C141.898 551.123 141.992 550.824 141.992 550.453L142.889 550.447Z" fill="black"/>
<path d="M499.365 550.447C499.365 551.064 499.182 551.586 498.814 552.012C498.451 552.434 498.002 552.645 497.467 552.645C497.186 552.645 496.92 552.594 496.67 552.492C496.42 552.387 496.129 552.189 495.797 551.9C495.469 551.611 495.232 551.432 495.088 551.361C494.943 551.291 494.789 551.256 494.625 551.256C494.32 551.256 494.086 551.361 493.922 551.572C493.758 551.779 493.676 552.066 493.676 552.434L492.732 552.445C492.732 551.82 492.912 551.307 493.271 550.904C493.631 550.502 494.082 550.301 494.625 550.301C494.922 550.301 495.207 550.363 495.48 550.488C495.754 550.613 496.062 550.834 496.406 551.15C496.75 551.463 497.047 551.639 497.297 551.678L497.467 551.689C497.764 551.689 498.004 551.576 498.188 551.35C498.375 551.123 498.469 550.824 498.469 550.453L499.365 550.447Z" fill="black"/>
<path d="M144 481V506" stroke="#76BB81" stroke-width="3" stroke-dasharray="9 9"/>
<path d="M144 481V506" stroke="#76BB81" stroke-width="3" stroke-dasharray="9 9"/>
<path fill-rule="evenodd" clip-rule="evenodd" d="M430.526 464.053L427.928 465.553L425.428 461.222L422.83 462.722L416.83 452.33L419.428 450.83L416.928 446.5L419.526 445L430.526 464.053Z" fill="#76BB81"/>
<path d="M430.525 474H427.525V464H430.525V474Z" fill="#76BB81"/>
<path d="M432.025 475.041C432.025 476.698 430.682 478.041 429.025 478.041C427.369 478.041 426.025 476.698 426.025 475.041C426.025 473.385 427.369 472.041 429.025 472.041C430.682 472.041 432.025 473.385 432.025 475.041Z" fill="#76BB81"/>
<path d="M422.025 475C422.025 476.857 422.763 478.637 424.076 479.95C425.388 481.263 427.169 482 429.025 482C430.882 482 432.662 481.263 433.975 479.95C435.288 478.637 436.025 476.857 436.025 475H433.697C433.697 476.239 433.205 477.427 432.329 478.303C431.453 479.18 430.264 479.672 429.025 479.672C427.786 479.672 426.598 479.18 425.722 478.303C424.846 477.427 424.354 476.239 424.354 475H422.025Z" fill="#76BB81"/>
<path d="M423.5 456H414.5V457H423.5V456Z" fill="#76BB81"/>
<path d="M414 456.5C414 458.985 411.985 461 409.5 461C407.015 461 405 458.985 405 456.5C405 454.015 407.015 452 409.5 452C411.985 452 414 454.015 414 456.5Z" stroke="#76BB81"/>
<path d="M429 481V505" stroke="#76BB81" stroke-width="3" stroke-dasharray="9 9"/>
<path d="M159 576V589" stroke="#76BB81" stroke-width="3" stroke-dasharray="6 6"/>
<path d="M67 577V626" stroke="#76BB81" stroke-width="3" stroke-dasharray="6 6"/>
<path d="M67 503V514" stroke="#76BB81" stroke-width="3" stroke-dasharray="6 6"/>
<path d="M176.5 504.5H65.5" stroke="#76BB81" stroke-width="3" stroke-dasharray="6 6"/>
<path d="M423.5 587.5H157.5" stroke="#76BB81" stroke-width="3" stroke-dasharray="6 6"/>
<path fill-rule="evenodd" clip-rule="evenodd" d="M60.5 518.364L66.864 512V512.001L66.865 512L73.229 518.364L71.814 519.779L66.864 514.828L61.914 519.778L60.5 518.364ZM67.044 520.13L60.68 526.494L62.094 527.908L65.5 524.502V537H63.5V539H65.268C65.098 539.294 65 539.635 65 540C65 541.104 65.896 542 67 542C68.105 542 69 541.104 69 540C69 539.635 68.903 539.294 68.733 539H70.5V537H68.5V524.415L71.994 527.908L73.408 526.494L68.458 521.544L67.044 520.13ZM67 539C66.448 539 66 539.448 66 540C66 540.552 66.448 541 67 541C67.552 541 68 540.552 68 540C68 539.448 67.552 539 67 539Z" fill="#76BB81"/>
<path fill-rule="evenodd" clip-rule="evenodd" d="M73.229 565.365L66.865 571.728H66.864L60.5 565.364L61.914 563.95L66.864 568.9L71.814 563.95L73.229 565.365ZM73.229 572.453L66.865 578.817H66.864L60.5 572.453L61.914 571.039L66.864 575.989L71.814 571.039L73.229 572.453Z" fill="#76BB81"/>
<path fill-rule="evenodd" clip-rule="evenodd" d="M68.5 558.973L65.902 560.473L63.402 556.143L60.805 557.643L54.805 547.251L57.402 545.751L54.902 541.421L57.5 539.921L68.5 558.973Z" fill="#76BB81"/>
<path d="M515 577.02V626.02" stroke="#76BB81" stroke-width="3" stroke-dasharray="6 6"/>
<path d="M513.5 569.02H516.5V559.02H513.5V569.02Z" fill="#76BB81"/>
<path fill-rule="evenodd" clip-rule="evenodd" d="M514.865 571.728L521.229 565.365L519.814 563.95L514.864 568.9L509.914 563.95L508.5 565.364L514.864 571.728H514.865Z" fill="#76BB81"/>
<path fill-rule="evenodd" clip-rule="evenodd" d="M514.865 578.728L521.229 572.364L519.814 570.95L514.864 575.9L509.914 570.95L508.5 572.364L514.864 578.728H514.865Z" fill="#76BB81"/>
<path fill-rule="evenodd" clip-rule="evenodd" d="M516.499 559.053L513.844 560.553L511.288 556.222L508.633 557.722L502.5 547.33L505.155 545.83L502.6 541.5L505.256 540L516.499 559.053Z" fill="#76BB81"/>
<path d="M402.5 508H405.5V499H402.5V508Z" fill="#76BB81"/>
<path d="M515 502V513" stroke="#76BB81" stroke-width="3" stroke-dasharray="6 6"/>
<path d="M424 505V589" stroke="#76BB81" stroke-width="3" stroke-dasharray="6 6"/>
<path d="M405.5 503.5L516.5 503.5" stroke="#76BB81" stroke-width="3" stroke-dasharray="6 6"/>
<path fill-rule="evenodd" clip-rule="evenodd" d="M142.499 421.163C141.202 421.447 140.003 422.097 139.049 423.05C137.737 424.363 136.999 426.143 136.999 428H139.327C139.327 426.761 139.819 425.573 140.696 424.697C141.572 423.82 142.76 423.328 143.999 423.328C145.238 423.328 146.426 423.82 147.303 424.697C148.179 425.573 148.671 426.761 148.671 428H150.999C150.999 426.143 150.262 424.363 148.949 423.05C147.996 422.097 146.796 421.447 145.499 421.163V409H142.499V421.163ZM147.499 443H145.499V430.557C146.396 430.038 146.999 429.069 146.999 427.959C146.999 426.302 145.656 424.959 143.999 424.959C142.342 424.959 140.999 426.302 140.999 427.959C140.999 429.069 141.602 430.038 142.499 430.557V443H140.647L140.553 442.593L137.63 443.268L138.755 448.14L135.832 448.814L137.491 456H130.45C130.199 453.473 128.067 451.5 125.475 451.5C122.713 451.5 120.475 453.739 120.475 456.5C120.475 459.261 122.713 461.5 125.475 461.5C128.067 461.5 130.199 459.527 130.45 457H137.5H137.722L138.531 460.507L141.454 459.832L142.499 464.358V472.443C141.602 472.962 140.999 473.931 140.999 475.041C140.999 476.698 142.342 478.041 143.999 478.041C145.656 478.041 146.999 476.698 146.999 475.041C146.999 473.931 146.396 472.962 145.499 472.443V464.03L145.502 464.029L145.499 464.017V464H145.495L141.109 445H142.267C142.096 445.294 141.999 445.636 141.999 446C141.999 447.105 142.894 448 143.999 448C145.104 448 145.999 447.105 145.999 446C145.999 445.636 145.902 445.294 145.732 445H147.499V443ZM144.005 445C144.555 445.003 144.999 445.45 144.999 446C144.999 446.552 144.551 447 143.999 447C143.447 447 142.999 446.552 142.999 446C142.999 445.45 143.443 445.003 143.993 445H144.005ZM139.049 479.95C137.737 478.637 136.999 476.857 136.999 475H139.327C139.327 476.239 139.819 477.427 140.696 478.303C141.572 479.18 142.76 479.672 143.999 479.672C145.238 479.672 146.426 479.18 147.303 478.303C148.179 477.427 148.671 476.239 148.671 475H150.999C150.999 476.857 150.262 478.637 148.949 479.95C147.996 480.903 146.796 481.553 145.499 481.837V506H142.499V481.837C141.202 481.553 140.003 480.903 139.049 479.95ZM129.495 456.5L129.455 456.901C129.254 458.921 127.548 460.5 125.475 460.5C123.265 460.5 121.475 458.709 121.475 456.5C121.475 454.291 123.265 452.5 125.475 452.5C127.548 452.5 129.254 454.079 129.455 456.099L129.495 456.5Z" fill="#76BB81"/>
<path fill-rule="evenodd" clip-rule="evenodd" d="M508.5 518.364L514.864 512V512.001L514.865 512L521.229 518.364L519.814 519.779L514.864 514.828L509.914 519.778L508.5 518.364ZM515.044 520.13L508.68 526.494L510.094 527.908L513.5 524.502V537H511.5V539H513.268C513.098 539.294 513 539.635 513 540C513 541.104 513.896 542 515 542C516.105 542 517 541.104 517 540C517 539.635 516.903 539.294 516.733 539H518.5V537H516.5V524.415L519.994 527.908L521.408 526.494L516.458 521.544L515.044 520.13ZM515 539C514.448 539 514 539.448 514 540C514 540.552 514.448 541 515 541C515.552 541 516 540.552 516 540C516 539.448 515.552 539 515 539Z" fill="#76BB81"/>
<path d="M513.5 514H516.5V508H513.5V514Z" fill="#76BB81"/>
<path fill-rule="evenodd" clip-rule="evenodd" d="M427 421.163C425.703 421.447 424.502 422.097 423.549 423.05C422.236 424.363 421.5 426.144 421.5 428H423.828C423.828 426.761 424.32 425.573 425.195 424.697C426.072 423.82 427.26 423.328 428.5 423.328C429.738 423.328 430.926 423.82 431.803 424.697C432.678 425.573 433.17 426.761 433.17 428H435.5C435.5 426.144 434.762 424.363 433.449 423.05C432.496 422.097 431.295 421.447 430 421.163V408H427V421.163ZM432 443H430V430.557C430.896 430.039 431.5 429.069 431.5 427.958C431.5 426.302 430.156 424.958 428.5 424.958C426.842 424.958 425.5 426.302 425.5 427.958C425.5 429.069 426.102 430.039 427 430.557V443H425.658L425.559 442.567L422.637 443.242L423.76 448.114L420.838 448.789L422.502 456H414.5C414.25 453.473 412.117 451.5 409.525 451.5C406.764 451.5 404.525 453.739 404.525 456.5C404.525 459.261 406.764 461.5 409.525 461.5C412.117 461.5 414.25 459.527 414.5 457H422.502H422.734L423.537 460.481L426.461 459.806L427.525 464.417V472.443C426.627 472.961 426.025 473.931 426.025 475.042C426.025 476.698 427.367 478.042 429.025 478.042C430.682 478.042 432.025 476.698 432.025 475.042C432.025 473.931 431.422 472.961 430.525 472.443V464H430.508L426.121 445H426.768C426.596 445.294 426.5 445.636 426.5 446C426.5 447.104 427.395 448 428.5 448C429.604 448 430.5 447.104 430.5 446C430.5 445.636 430.402 445.294 430.232 445H432V443ZM428.492 445C429.055 445.003 429.5 445.45 429.5 446C429.5 446.552 429.051 447 428.5 447C427.947 447 427.5 446.552 427.5 446C427.5 445.45 427.943 445.003 428.492 445ZM430.5 502H427.5V481.832C426.213 481.544 425.021 480.897 424.074 479.95C422.762 478.637 422.025 476.856 422.025 475H424.354C424.354 476.239 424.846 477.427 425.721 478.303C426.598 479.18 427.785 479.672 429.025 479.672C430.264 479.672 431.451 479.18 432.328 478.303C433.203 477.427 433.695 476.239 433.695 475H436.025C436.025 476.856 435.287 478.637 433.975 479.95C433.016 480.909 431.805 481.562 430.5 481.843V502ZM413.545 456.5L413.506 456.901C413.305 458.921 411.6 460.5 409.525 460.5C407.316 460.5 405.525 458.709 405.525 456.5C405.525 454.291 407.316 452.5 409.525 452.5C411.6 452.5 413.305 454.079 413.506 456.099L413.545 456.5Z" fill="#76BB81"/>
<path fill-rule="evenodd" clip-rule="evenodd" d="M500.975 552C500.724 554.527 498.593 556.5 496 556.5C493.239 556.5 491 554.261 491 551.5C491 548.739 493.239 546.5 496 546.5C498.593 546.5 500.724 548.473 500.975 551H508.5V552H500.975Z" fill="white"/>
<path d="M500.975 552V551H500.07L499.98 551.901L500.975 552ZM500.975 551L499.98 551.099L500.07 552H500.975V551ZM508.5 551H509.5V550H508.5V551ZM508.5 552V553H509.5V552H508.5ZM499.98 551.901C499.78 553.921 498.074 555.5 496 555.5V557.5C499.112 557.5 501.669 555.132 501.97 552.099L499.98 551.901ZM496 555.5C493.791 555.5 492 553.709 492 551.5H490C490 554.814 492.686 557.5 496 557.5V555.5ZM492 551.5C492 549.291 493.791 547.5 496 547.5V545.5C492.686 545.5 490 548.186 490 551.5H492ZM496 547.5C498.074 547.5 499.78 549.079 499.98 551.099L501.97 550.901C501.669 547.868 499.112 545.5 496 545.5V547.5ZM500.975 552H508.5V550H500.975V552ZM507.5 551V552H509.5V551H507.5ZM508.5 551H500.975V553H508.5V551Z" fill="#76BB81"/>
<path d="M412.9 455.447C412.9 456.064 412.717 456.586 412.35 457.012C411.986 457.434 411.537 457.645 411.002 457.645C410.721 457.645 410.455 457.594 410.205 457.492C409.955 457.387 409.664 457.189 409.332 456.9C409.004 456.611 408.768 456.432 408.623 456.361C408.479 456.291 408.324 456.256 408.16 456.256C407.855 456.256 407.621 456.361 407.457 456.572C407.293 456.779 407.211 457.066 407.211 457.434L406.268 457.445C406.268 456.82 406.447 456.307 406.807 455.904C407.166 455.502 407.617 455.301 408.16 455.301C408.457 455.301 408.742 455.363 409.016 455.488C409.289 455.613 409.598 455.834 409.941 456.15C410.285 456.463 410.582 456.639 410.832 456.678L411.002 456.689C411.299 456.689 411.539 456.576 411.723 456.35C411.91 456.123 412.004 455.824 412.004 455.453L412.9 455.447Z" fill="black"/>
<path d="M50.5 551H59.5V552H50.5V551Z" fill="#76BB81"/>
<path d="M50.975 551.5C50.975 553.985 48.96 556 46.475 556C43.989 556 41.975 553.985 41.975 551.5C41.975 549.015 43.989 547 46.475 547C48.96 547 50.975 549.015 50.975 551.5Z" stroke="#76BB81"/>
<path fill-rule="evenodd" clip-rule="evenodd" d="M405.499 508H402.499V505V502V499H405.499V502H422.499H425.499H516.499V504V505V513.636L521.228 518.364L519.814 519.779L514.863 514.828L509.913 519.778L508.499 518.364L513.499 513.364V505H425.499V586V589H160.499H157.499V576.837C156.202 576.553 155.003 575.903 154.049 574.95C152.737 573.637 151.999 571.857 151.999 570H154.327C154.327 571.239 154.819 572.427 155.696 573.303C156.572 574.18 157.76 574.672 158.999 574.672C160.238 574.672 161.426 574.18 162.303 573.303C163.179 572.427 163.671 571.239 163.671 570H165.999C165.999 571.857 165.262 573.637 163.949 574.95C162.996 575.903 161.796 576.553 160.499 576.837V586H422.499V505H405.499V508ZM516.533 559.08L516.499 559.087V567.264L519.814 563.95L521.228 565.364L514.864 571.728H514.863L508.499 565.364L509.913 563.95L513.499 567.536V559.274L512.485 554.883L509.563 555.557L508.741 552H500.975C500.725 554.527 498.593 556.5 496 556.5C493.239 556.5 491 554.261 491 551.5C491 548.739 493.239 546.5 496 546.5C498.593 546.5 500.724 548.473 500.975 551H508.51L506.863 543.865L509.786 543.19L508.661 538.318L511.499 537.663V537H513.499V524.502L510.093 527.908L508.679 526.494L515.043 520.13L516.457 521.544L521.407 526.494L519.993 527.908L516.499 524.415V537H518.499V539H516.732C516.902 539.294 516.999 539.635 516.999 540C516.999 541.104 516.104 542 514.999 542C513.895 542 512.999 541.104 512.999 540C512.999 539.635 513.097 539.294 513.267 539H511.897L516.533 559.08ZM516.499 577.093L521.228 572.364L519.814 570.95L514.863 575.9L509.913 570.95L508.499 572.364L513.499 577.364V626H516.499V577.093ZM513.999 540C513.999 539.448 514.447 539 514.999 539C515.551 539 515.999 539.448 515.999 540C515.999 540.552 515.551 541 514.999 541C514.447 541 513.999 540.552 513.999 540ZM153.549 517.05C154.503 516.097 155.702 515.447 156.999 515.163V506H68.499V513.636L73.228 518.364L71.814 519.779L66.863 514.828L61.913 519.778L60.499 518.364L65.499 513.364V506V503H176.499V500H179.499V509H176.499V506H159.999V515.163C161.296 515.447 162.496 516.097 163.449 517.05C164.762 518.363 165.499 520.143 165.499 522H163.171C163.171 520.761 162.679 519.573 161.803 518.697C160.926 517.82 159.738 517.328 158.499 517.328C157.26 517.328 156.072 517.82 155.196 518.697C154.319 519.573 153.827 520.761 153.827 522H151.499C151.499 520.143 152.237 518.363 153.549 517.05ZM157.499 537V524.788C156.334 524.376 155.499 523.265 155.499 521.959C155.499 520.302 156.842 518.959 158.499 518.959C160.156 518.959 161.499 520.302 161.499 521.959C161.499 522.847 161.113 523.645 160.499 524.195V537H162.499V539H160.732C160.902 539.294 161 539.636 161 540C161 541.105 160.104 542 159 542C157.895 542 157 541.105 157 540C157 539.636 157.097 539.294 157.267 539H155.886L160.504 559.001L160.499 559.002V567.484C161.396 568.003 161.999 568.973 161.999 570.083C161.999 571.74 160.656 573.083 158.999 573.083C157.342 573.083 155.999 571.74 155.999 570.083C155.999 568.973 156.602 568.003 157.499 567.484V559.321L156.456 554.804L153.533 555.478L152.73 552H152.5H145.5H145.479H144.5V551.5V551H145.479H145.5H152.499L150.834 543.786L153.757 543.111L152.632 538.239L155.499 537.577V537H157.499ZM144.5 551.5C144.5 551.669 144.492 551.836 144.475 552C144.441 552.345 144.372 552.679 144.271 553C143.634 555.029 141.739 556.5 139.5 556.5C136.739 556.5 134.5 554.261 134.5 551.5C134.5 548.739 136.739 546.5 139.5 546.5C141.739 546.5 143.634 547.971 144.271 550C144.372 550.321 144.441 550.655 144.475 551C144.492 551.164 144.5 551.331 144.5 551.5ZM159.008 539H158.991C158.443 539.004 158 539.45 158 540C158 540.552 158.448 541 159 541C159.552 541 160 540.552 160 540C160 539.45 159.557 539.004 159.008 539ZM60.679 526.494L67.043 520.13L68.457 521.544L73.407 526.494L71.993 527.908L68.499 524.415V537H70.499V539H68.732C68.902 539.294 68.999 539.635 68.999 540C68.999 541.104 68.104 542 66.999 542C65.895 542 64.999 541.104 64.999 540C64.999 539.635 65.097 539.294 65.267 539H63.88L68.497 559H68.499V559.008L68.5 559.012H68.499V567.265L71.814 563.95L73.228 565.365L66.864 571.728H66.863L60.499 565.364L61.913 563.95L65.499 567.536V559.35L64.452 554.815L61.529 555.49L60.724 552H51.45C51.199 554.527 49.067 556.5 46.475 556.5C43.713 556.5 41.475 554.261 41.475 551.5C41.475 548.739 43.713 546.5 46.475 546.5C49.067 546.5 51.199 548.473 51.45 551H60.493L58.83 543.798L61.753 543.123L60.628 538.251L63.499 537.588V537H65.499V524.502L62.093 527.908L60.679 526.494ZM65.999 540C65.999 539.448 66.447 539 66.999 539C67.551 539 67.999 539.448 67.999 540C67.999 540.552 67.551 541 66.999 541C66.447 541 65.999 540.552 65.999 540ZM65.499 626H68.499V577.182L73.228 572.453L71.814 571.039L66.863 575.989L61.913 571.039L60.499 572.453L65.499 577.453V626ZM143.5 551.5C143.5 553.709 141.709 555.5 139.5 555.5C137.291 555.5 135.5 553.709 135.5 551.5C135.5 549.291 137.291 547.5 139.5 547.5C141.709 547.5 143.5 549.291 143.5 551.5ZM496 555.5C498.209 555.5 500 553.709 500 551.5C500 549.291 498.209 547.5 496 547.5C493.791 547.5 492 549.291 492 551.5C492 553.709 493.791 555.5 496 555.5ZM50.475 551.5C50.475 553.709 48.684 555.5 46.475 555.5C44.265 555.5 42.475 553.709 42.475 551.5C42.475 549.291 44.265 547.5 46.475 547.5C48.684 547.5 50.475 549.291 50.475 551.5Z" fill="#76BB81"/>
<path d="M49.9 550.447C49.9 551.064 49.717 551.586 49.35 552.012C48.986 552.434 48.537 552.645 48.002 552.645C47.721 552.645 47.455 552.594 47.205 552.492C46.955 552.387 46.664 552.189 46.332 551.9C46.004 551.611 45.768 551.432 45.623 551.361C45.479 551.291 45.324 551.256 45.16 551.256C44.855 551.256 44.621 551.361 44.457 551.572C44.293 551.779 44.211 552.066 44.211 552.434L43.268 552.445C43.268 551.82 43.447 551.307 43.807 550.904C44.166 550.502 44.617 550.301 45.16 550.301C45.457 550.301 45.742 550.363 46.016 550.488C46.289 550.613 46.598 550.834 46.941 551.15C47.285 551.463 47.582 551.639 47.832 551.678L48.002 551.689C48.299 551.689 48.539 551.576 48.723 551.35C48.91 551.123 49.004 550.824 49.004 550.453L49.9 550.447Z" fill="black"/>
<defs>
<filter id="filter0_d" x="172.5" y="500" width="11" height="17" filterUnits="userSpaceOnUse" color-interpolation-filters="sRGB">
<feFlood flood-opacity="0" result="BackgroundImageFix"/>
<feColorMatrix in="SourceAlpha" type="matrix" values="0 0 0 0 0 0 0 0 0 0 0 0 0 0 0 0 0 0 127 0" result="hardAlpha"/>
<feOffset dy="4"/>
<feGaussianBlur stdDeviation="2"/>
<feComposite in2="hardAlpha" operator="out"/>
<feColorMatrix type="matrix" values="0 0 0 0 0 0 0 0 0 0 0 0 0 0 0 0 0 0 0.25 0"/>
<feBlend mode="normal" in2="BackgroundImageFix" result="effect1_dropShadow"/>
<feBlend mode="normal" in="SourceGraphic" in2="effect1_dropShadow" result="shape"/>
</filter>
<filter id="filter1_d" x="61.5" y="559" width="11" height="18" filterUnits="userSpaceOnUse" color-interpolation-filters="sRGB">
<feFlood flood-opacity="0" result="BackgroundImageFix"/>
<feColorMatrix in="SourceAlpha" type="matrix" values="0 0 0 0 0 0 0 0 0 0 0 0 0 0 0 0 0 0 127 0" result="hardAlpha"/>
<feOffset dy="4"/>
<feGaussianBlur stdDeviation="2"/>
<feComposite in2="hardAlpha" operator="out"/>
<feColorMatrix type="matrix" values="0 0 0 0 0 0 0 0 0 0 0 0 0 0 0 0 0 0 0.25 0"/>
<feBlend mode="normal" in2="BackgroundImageFix" result="effect1_dropShadow"/>
<feBlend mode="normal" in="SourceGraphic" in2="effect1_dropShadow" result="shape"/>
</filter>
</defs>
</svg>
